<?xml version="1.0" encoding="UTF-8" standalone="no"?>
<!DOCTYPE svg PUBLIC "-//W3C//DTD SVG 1.1//EN" "http://www.w3.org/Graphics/SVG/1.1/DTD/svg11.dtd">
<svg width="100%" height="100%" viewBox="0 0 1200 800" version="1.1" xmlns="http://www.w3.org/2000/svg" xmlns:xlink="http://www.w3.org/1999/xlink" xml:space="preserve" xmlns:serif="http://www.serif.com/" style="fill-rule:evenodd;clip-rule:evenodd;stroke-linecap:round;stroke-linejoin:round;stroke-miterlimit:1.5;">
    <g>
        <g>
            <g>
                <g transform="matrix(-0.208723,0,0,0.807194,410.789,36.7695)">
                    <path d="M298.918,701.204L301.859,197.671" style="fill:none;stroke:black;stroke-width:6.78px;"/>
                </g>
                <g transform="matrix(1,0,0,1,49.48,-49.4374)">
                    <path d="M398.267,652.215L401.671,245.766" style="fill:rgb(255,0,0);stroke:black;stroke-width:4px;"/>
                </g>
                <g transform="matrix(2e-06,0,0,0.807194,551.346,37.2166)">
                    <path d="M501.111,701.204L503.067,197.671" style="fill:none;stroke:black;stroke-width:7.01px;"/>
                </g>
                <g transform="matrix(1,0,0,0.807194,49.48,37.2166)">
                    <path d="M600,701.204L600,197.671" style="fill:none;stroke:black;stroke-width:4.4px;"/>
                </g>
                <g transform="matrix(1,0,0,1,49.48,-49.4374)">
                    <path d="M698.077,652.215L699.725,245.766" style="fill:none;stroke:black;stroke-width:4px;"/>
                </g>
                <g transform="matrix(1,0,0,1,49.48,-49.4374)">
                    <path d="M801.303,652.215L804.054,245.766" style="fill:none;stroke:black;stroke-width:4px;"/>
                </g>
                <g transform="matrix(1,0,0,1,49.48,-49.4374)">
                    <path d="M250.543,301.782L854.925,301.327" style="fill:rgb(255,0,0);stroke:black;stroke-width:4px;"/>
                </g>
                <g transform="matrix(1,0,0,1,49.48,-49.4374)">
                    <path d="M255.773,400L854.925,401.993" style="fill:rgb(255,0,0);stroke:black;stroke-width:4px;"/>
                </g>
                <g transform="matrix(1,0,0,1,49.48,-49.4374)">
                    <path d="M250.543,502.894L854.925,501.196" style="fill:rgb(255,0,0);stroke:black;stroke-width:4px;"/>
                </g>
                <g transform="matrix(1,0,0,1,49.48,-49.4374)">
                    <path d="M250.543,603.147L854.925,597.72" style="fill:none;stroke:black;stroke-width:4px;"/>
                </g>
            </g>
            <g transform="matrix(1.07659,0,0,1.00594,168.436,294.951)">
                <rect x="355.52" y="155.52" width="90.688" height="95.505" style="fill:rgb(61,61,61);stroke:rgb(45,45,45);stroke-width:3.84px;"/>
            </g>
            <g transform="matrix(1.07659,0,0,0.529982,168.599,470.186)">
                <rect x="355.52" y="155.52" width="90.688" height="95.505" style="fill:rgb(61,61,61);stroke:rgb(45,45,45);stroke-width:4.71px;"/>
            </g>
            <g transform="matrix(1.07659,0,0,0.529982,168.599,470.186)">
                <rect x="355.52" y="155.52" width="90.688" height="95.505" style="fill:rgb(61,61,61);stroke:rgb(45,45,45);stroke-width:4.71px;"/>
            </g>
            <g transform="matrix(1.07659,0,0,1.00594,168.436,96.0878)">
                <rect x="355.52" y="155.52" width="90.688" height="95.505" style="fill:rgb(61,61,61);stroke:rgb(45,45,45);stroke-width:3.84px;"/>
            </g>
            <g transform="matrix(1.07659,0,0,0.553316,168.273,110.724)">
                <rect x="355.52" y="155.52" width="90.688" height="95.505" style="fill:rgb(61,61,61);stroke:rgb(45,45,45);stroke-width:4.67px;"/>
            </g>
            <g transform="matrix(1.07659,0,0,0.553316,168.273,110.724)">
                <rect x="355.52" y="155.52" width="90.688" height="95.505" style="fill:rgb(61,61,61);stroke:rgb(45,45,45);stroke-width:4.67px;"/>
            </g>
        </g>
        <g transform="matrix(0.866923,0,0,0.870873,-51.1912,-29.2462)">
            <rect x="99.363" y="299.435" width="75.652" height="78.011" style="fill:none;stroke:rgb(67,67,67);stroke-width:4.6px;"/>
        </g>
        <g transform="matrix(0.866923,0,0,0.870873,901.129,-26.1073)">
            <rect x="99.363" y="299.435" width="75.652" height="78.011" style="fill:none;stroke:rgb(67,67,67);stroke-width:4.6px;"/>
        </g>
        <g transform="matrix(0.866923,0,0,0.870873,-51.1912,38.6918)">
            <rect x="99.363" y="299.435" width="75.652" height="78.011" style="fill:none;stroke:rgb(67,67,67);stroke-width:4.6px;"/>
        </g>
        <g transform="matrix(0.866923,0,0,0.870873,901.129,41.8307)">
            <rect x="99.363" y="299.435" width="75.652" height="78.011" style="fill:none;stroke:rgb(67,67,67);stroke-width:4.6px;"/>
        </g>
        <g transform="matrix(0.866923,0,0,0.870873,-51.1912,106.63)">
            <rect x="99.363" y="299.435" width="75.652" height="78.011" style="fill:none;stroke:rgb(67,67,67);stroke-width:4.6px;"/>
        </g>
        <g transform="matrix(0.866923,0,0,0.870873,901.129,109.769)">
            <rect x="99.363" y="299.435" width="75.652" height="78.011" style="fill:none;stroke:rgb(67,67,67);stroke-width:4.6px;"/>
        </g>
        <g transform="matrix(0.866923,0,0,0.870873,64.6011,-29.2462)">
            <rect x="99.363" y="299.435" width="75.652" height="78.011" style="fill:none;stroke:rgb(67,67,67);stroke-width:4.6px;"/>
        </g>
        <g transform="matrix(0.866923,0,0,0.870873,1016.92,-26.1073)">
            <rect x="99.363" y="299.435" width="75.652" height="78.011" style="fill:none;stroke:rgb(67,67,67);stroke-width:4.6px;"/>
        </g>
        <g transform="matrix(0.866923,0,0,0.870873,64.6011,38.6918)">
            <rect x="99.363" y="299.435" width="75.652" height="78.011" style="fill:none;stroke:rgb(67,67,67);stroke-width:4.6px;"/>
        </g>
        <g transform="matrix(0.866923,0,0,0.870873,1016.92,41.8307)">
            <rect x="99.363" y="299.435" width="75.652" height="78.011" style="fill:none;stroke:rgb(67,67,67);stroke-width:4.6px;"/>
        </g>
        <g transform="matrix(0.866923,0,0,0.870873,64.6011,106.63)">
            <rect x="99.363" y="299.435" width="75.652" height="78.011" style="fill:none;stroke:rgb(67,67,67);stroke-width:4.6px;"/>
        </g>
        <path d="M1123.27,248.886C1120.55,246.891 1128.98,257.937 1129.42,258.516C1135.5,266.624 1142.48,274.043 1147.9,282.619C1149.32,284.867 1155.66,290.935 1155.66,293.599C1155.66,293.665 1154.86,293.172 1154.86,292.795" style="fill:none;stroke:rgb(67,67,67);stroke-width:4px;"/>
        <path d="M1124.69,291.861C1124.69,291.868 1125.9,289.559 1126.2,289.046C1127.74,286.419 1128.76,283.907 1129.68,281.012C1132.25,273.003 1137.21,265.455 1141.47,258.248C1142.4,256.676 1149.1,246.076 1148.43,248.072" style="fill:none;stroke:rgb(67,67,67);stroke-width:4px;"/>
        <path d="M1128.88,279.695C1128.96,278.586 1125.59,278.73 1124.33,279.673C1121.76,281.601 1119.2,291.827 1125.13,289.849" style="fill:none;stroke:rgb(67,67,67);stroke-width:4px;"/>
        <path d="M1149.26,284.766C1148.36,284.616 1149.39,281.292 1149.5,281.012C1150.66,278.107 1154.84,278.763 1156.93,280.018C1163,283.658 1155.39,287.587 1155.39,290.653" style="fill:none;stroke:rgb(67,67,67);stroke-width:4px;"/>
        <path d="M1142.16,282.142C1142.49,281.973 1141.26,281.586 1141.47,281.28C1142.91,279.114 1146.58,271.639 1149.5,271.639" style="fill:none;stroke:rgb(67,67,67);stroke-width:4px;"/>
        <path d="M1127.24,274.699C1127.39,274.155 1125.11,274.089 1125.67,272.978C1126.45,271.408 1130.25,277.225 1130.49,277.53C1132.1,279.596 1135.05,279.412 1136.65,281.012" style="fill:none;stroke:rgb(67,67,67);stroke-width:4px;"/>
        <path d="M1133.61,354.296C1134.23,354.905 1133.17,352.586 1133.17,351.712C1133.17,350.284 1133.13,348.855 1133.17,347.427C1133.36,340.611 1133.17,333.878 1133.17,327.074C1133.17,324.768 1132.19,321.005 1133.7,322.521" style="fill:none;stroke:rgb(67,67,67);stroke-width:4px;"/>
        <path d="M1128.7,324.442C1128.02,324.071 1126.73,326.817 1127.28,326.271C1127.53,326.02 1130.87,317.775 1132.36,318.772C1133.48,319.519 1133.99,322.82 1134.51,323.86C1135.38,325.601 1140.06,328.949 1137.45,328.949" style="fill:none;stroke:rgb(67,67,67);stroke-width:4px;"/>
        <g transform="matrix(0.866923,0,0,0.870873,1016.92,109.769)">
            <rect x="99.363" y="299.435" width="75.652" height="78.011" style="fill:none;stroke:rgb(67,67,67);stroke-width:4.6px;"/>
        </g>
        <g transform="matrix(3.72963,0,0,3.72963,-149.371,-524.632)">
            <text x="51.394px" y="196.499px" style="font-family:'ArialMT', 'Arial', sans-serif;font-size:24px;fill:rgb(255,0,7);">1</text>
        </g>
        <g transform="matrix(3.72963,0,0,3.72963,802.949,-521.493)">
            <text x="51.394px" y="196.499px" style="font-family:'ArialMT', 'Arial', sans-serif;font-size:24px;fill:rgb(0,3,255);">1</text>
        </g>
        <g transform="matrix(3.72963,0,0,3.72963,-492.12,-480.792)">
            <text x="175.189px" y="184.745px" style="font-family:'ArialMT', 'Arial', sans-serif;font-size:24px;fill:rgb(255,0,7);">2</text>
        </g>
        <g transform="matrix(3.72963,0,0,3.72963,460.2,-477.653)">
            <text x="175.189px" y="184.745px" style="font-family:'ArialMT', 'Arial', sans-serif;font-size:24px;fill:rgb(0,6,255);">2</text>
        </g>
    </g>
    <g transform="matrix(1,0,0,1,101.48,4.34934)">
        <g transform="matrix(1,0,0,1,16.3547,-231.668)">
            <circle cx="382.449" cy="730.133" r="31.11" style="fill:rgb(255,0,0);stroke:rgb(255,0,0);stroke-width:4px;"/>
        </g>
        <g transform="matrix(1.7798,-0.141221,0,1.7798,-133.386,-371.397)">
            <text x="292.405px" y="520.625px" style="font-family:'ArialMT', 'Arial', sans-serif;font-size:24px;fill:white;">2</text>
        </g>
    </g>
    <g transform="matrix(1,0,0,1,201.85,95.1493)">
        <g transform="matrix(1,0,0,1,15.7011,-426.772)">
            <circle cx="382.449" cy="730.133" r="31.11" style="fill:rgb(255,0,0);stroke:rgb(255,0,0);stroke-width:4px;"/>
        </g>
        <g transform="matrix(2.45329,0,0,2.45329,-603.206,-409.343)">
            <text x="400.896px" y="299.073px" style="font-family:'ArialMT', 'Arial', sans-serif;font-size:24px;fill:white;">1</text>
        </g>
    </g>
    <g transform="matrix(1,0,0,1,-99.4692,-99.2031)">
        <g transform="matrix(1,0,0,1,249.17,-229.281)">
            <circle cx="551.737" cy="730.133" r="31.11" style="fill:rgb(12,0,255);stroke:rgb(0,2,255);stroke-width:4px;"/>
        </g>
        <g transform="matrix(1.7798,0,0,1.7798,269.286,-411.303)">
            <text x="292.405px" y="520.625px" style="font-family:'ArialMT', 'Arial', sans-serif;font-size:24px;fill:white;">2</text>
        </g>
    </g>
    <g transform="matrix(1,0,0,1,227.1,220.852)">
        <g transform="matrix(1,0,0,1,249.17,-433.111)">
            <circle cx="551.737" cy="730.133" r="31.11" style="fill:rgb(12,0,255);stroke:rgb(0,2,255);stroke-width:4px;"/>
        </g>
        <g transform="matrix(2.45329,0,0,2.45329,-199.08,-417.394)">
            <text x="400.896px" y="299.073px" style="font-family:'ArialMT', 'Arial', sans-serif;font-size:24px;fill:white;">1</text>
        </g>
    </g>
    <path d="M573.561,367.489C573.717,367.48 571.023,366.881 572.471,368.328C575.353,371.21 578.489,373.922 581.395,376.828C593.142,388.575 605.845,399.103 616.242,412.099C619.962,416.75 623.909,421.292 627.291,426.123C627.585,426.543 633.838,436.07 631.965,434.197" style="fill:none;stroke:rgb(67,67,67);stroke-width:4px;"/>
    <path d="M578.176,432.979C576.997,432.609 588.838,419.398 590.744,417.199C600.14,406.357 608.325,393.937 620.066,385.327C623.886,382.526 627.532,380.324 631.115,377.253C632.084,376.423 636.016,373.428 635.365,373.428" style="fill:none;stroke:rgb(67,67,67);stroke-width:4px;"/>
    <path d="M622.695,363.552C621.429,365.2 627.405,357.239 627.716,357.704C628.842,359.394 629.517,367.276 628.566,369.178C628.024,370.261 623.956,370.453 625.166,370.453C626.991,370.453 634.515,368.082 634.515,369.603" style="fill:none;stroke:rgb(67,67,67);stroke-width:4px;"/>
    <path d="M701.478,402.37C701.695,402.316 701.021,402.255 700.809,402.325C698.735,403.017 697.04,395.128 700.809,394.676C705.242,394.144 707.688,404.774 702.934,405.725C699.486,406.415 693.443,401.2 696.984,398.076C701.026,394.511 705.67,397.432 705.059,402.325C704.753,404.775 699.814,403.88 698.684,402.75C698.008,402.074 700.205,401.535 700.384,401.475C700.7,401.37 700.809,401.218 700.809,401.05C700.809,376.86 701.659,352.627 701.659,328.382C701.659,322.921 702.976,314.485 701.234,309.259C701.092,308.834 700.809,307.984 700.809,307.984C700.809,307.984 701.101,312.3 699.534,313.083C698.419,313.641 694.86,313.416 694.86,315.633C694.86,317.07 699.024,306.029 701.234,307.134C702.827,307.93 708.033,317.436 708.033,319.883" style="fill:none;stroke:rgb(67,67,67);stroke-width:4px;"/>
    <path d="M713.534,330.801C713.572,331.011 712.241,323.545 717.808,327.107C720.964,329.126 720.185,333.591 718.233,336.031C717.099,337.448 712.7,338.148 713.983,339.431C714.669,340.117 721.706,339.357 722.482,338.581" style="fill:none;stroke:rgb(67,67,67);stroke-width:4px;"/>
</svg>
