<svg version="1.1" viewBox="0.0 0.0 600.0 371.0" fill="none" stroke="none" stroke-linecap="square" stroke-miterlimit="10" width="600" height="371" xmlns:xlink="http://www.w3.org/1999/xlink" xmlns="http://www.w3.org/2000/svg"><path fill="#ffffff" d="M0 0L600.0 0L600.0 371.0L0 371.0L0 0Z" fill-rule="nonzero"/><path stroke="#cccccc" stroke-width="1.0" stroke-linecap="butt" d="M160.5 51.5L160.5 300.5" fill-rule="nonzero"/><path stroke="#cccccc" stroke-width="1.0" stroke-linecap="butt" d="M256.5 51.5L256.5 300.5" fill-rule="nonzero"/><path stroke="#cccccc" stroke-width="1.0" stroke-linecap="butt" d="M352.5 51.5L352.5 300.5" fill-rule="nonzero"/><path stroke="#cccccc" stroke-width="1.0" stroke-linecap="butt" d="M447.5 51.5L447.5 300.5" fill-rule="nonzero"/><path stroke="#cccccc" stroke-width="1.0" stroke-linecap="butt" d="M543.5 51.5L543.5 300.5" fill-rule="nonzero"/><path stroke="#333333" stroke-width="1.0" stroke-linecap="butt" d="M84.5 300.5L581.5 300.5" fill-rule="nonzero"/><path stroke="#cccccc" stroke-width="1.0" stroke-linecap="butt" d="M84.5 250.5L581.5 250.5" fill-rule="nonzero"/><path stroke="#cccccc" stroke-width="1.0" stroke-linecap="butt" d="M84.5 201.5L581.5 201.5" fill-rule="nonzero"/><path stroke="#cccccc" stroke-width="1.0" stroke-linecap="butt" d="M84.5 151.5L581.5 151.5" fill-rule="nonzero"/><path stroke="#cccccc" stroke-width="1.0" stroke-linecap="butt" d="M84.5 101.5L581.5 101.5" fill-rule="nonzero"/><path stroke="#cccccc" stroke-width="1.0" stroke-linecap="butt" d="M84.5 51.5L581.5 51.5" fill-rule="nonzero"/><clipPath id="id_0"><path d="M84.55 51.916668L581.45 51.916668L581.45 300.45L84.55 300.45L84.55 51.916668Z" clip-rule="nonzero"/></clipPath><path stroke="#4285f4" stroke-width="2.0" stroke-linecap="butt" clip-path="url(#id_0)" d="M84.55 291.10394L103.66154 282.07193L122.77308 272.9248L141.88461 264.04846L160.99615 255.22028L180.1077 246.51465L199.21924 236.87358L218.33076 227.10876L237.4423 217.24796L256.55383 209.03427L275.66537 200.37166L294.77692 191.99854L313.88846 183.3497L333.0 173.33752L352.11154 163.70018L371.22308 152.10547L390.33463 143.4209L409.44617 137.06099L428.55768 129.02194L447.66922 119.57962L466.78076 108.43546L485.8923 98.65476L505.00385 92.0201L524.11536 82.564545L543.2269 71.39997L562.33844 59.75322L581.45 53.821682" fill-rule="nonzero"/><path stroke="#ea4335" stroke-width="2.0" stroke-linecap="butt" clip-path="url(#id_0)" d="M84.55 298.9703L103.66154 297.48007L122.77308 295.97546L141.88461 294.45462L160.99615 293.00784L180.1077 290.88748L199.21924 289.2702L218.33076 288.04294L237.4423 286.42395L256.55383 284.93954L275.66537 283.3287L294.77692 280.83246L313.88846 275.66998L333.0 270.70248L352.11154 264.66504L371.22308 262.1576L390.33463 259.74466L409.44617 264.54483L428.55768 259.425L447.66922 261.08432L466.78076 233.89445L485.8923 228.54152L505.00385 209.06668L524.11536 202.60725L543.2269 198.14958L562.33844 182.5028L581.45 206.66682" fill-rule="nonzero"/><path fill="#000000" fill-opacity="0.0" clip-path="url(#id_0)" d="M87.55 291.10394C87.55 292.7608 86.206856 294.10394 84.55 294.10394C82.89314 294.10394 81.55 292.7608 81.55 291.10394C81.55 289.44708 82.89314 288.10394 84.55 288.10394C86.206856 288.10394 87.55 289.44708 87.55 291.10394Z" fill-rule="nonzero"/><path fill="#000000" fill-opacity="0.0" clip-path="url(#id_0)" d="M106.66154 282.07193C106.66154 283.72876 105.31839 285.07193 103.66154 285.07193C102.004684 285.07193 100.66154 283.72876 100.66154 282.07193C100.66154 280.41507 102.004684 279.07193 103.66154 279.07193C105.31839 279.07193 106.66154 280.41507 106.66154 282.07193Z" fill-rule="nonzero"/><path fill="#000000" fill-opacity="0.0" clip-path="url(#id_0)" d="M125.77308 272.9248C125.77308 274.58167 124.42993 275.9248 122.77308 275.9248C121.11623 275.9248 119.77308 274.58167 119.77308 272.9248C119.77308 271.26794 121.11623 269.9248 122.77308 269.9248C124.42993 269.9248 125.77308 271.26794 125.77308 272.9248Z" fill-rule="nonzero"/><path fill="#000000" fill-opacity="0.0" clip-path="url(#id_0)" d="M144.88461 264.04846C144.88461 265.70532 143.54147 267.04846 141.88461 267.04846C140.22777 267.04846 138.88461 265.70532 138.88461 264.04846C138.88461 262.3916 140.22777 261.04846 141.88461 261.04846C143.54147 261.04846 144.88461 262.3916 144.88461 264.04846Z" fill-rule="nonzero"/><path fill="#000000" fill-opacity="0.0" clip-path="url(#id_0)" d="M163.99615 255.22028C163.99615 256.87714 162.65302 258.22028 160.99615 258.22028C159.3393 258.22028 157.99615 256.87714 157.99615 255.22028C157.99615 253.56343 159.3393 252.22028 160.99615 252.22028C162.65302 252.22028 163.99615 253.56343 163.99615 255.22028Z" fill-rule="nonzero"/><path fill="#000000" fill-opacity="0.0" clip-path="url(#id_0)" d="M183.1077 246.51465C183.1077 248.1715 181.76454 249.51465 180.1077 249.51465C178.45084 249.51465 177.1077 248.1715 177.1077 246.51465C177.1077 244.85779 178.45084 243.51465 180.1077 243.51465C181.76454 243.51465 183.1077 244.85779 183.1077 246.51465Z" fill-rule="nonzero"/><path fill="#000000" fill-opacity="0.0" clip-path="url(#id_0)" d="M202.21924 236.87358C202.21924 238.53044 200.87608 239.87358 199.21924 239.87358C197.56238 239.87358 196.21924 238.53044 196.21924 236.87358C196.21924 235.21674 197.56238 233.87358 199.21924 233.87358C200.87608 233.87358 202.21924 235.21674 202.21924 236.87358Z" fill-rule="nonzero"/><path fill="#000000" fill-opacity="0.0" clip-path="url(#id_0)" d="M221.33076 227.10876C221.33076 228.76561 219.98763 230.10876 218.33076 230.10876C216.67392 230.10876 215.33076 228.76561 215.33076 227.10876C215.33076 225.4519 216.67392 224.10876 218.33076 224.10876C219.98763 224.10876 221.33076 225.4519 221.33076 227.10876Z" fill-rule="nonzero"/><path fill="#000000" fill-opacity="0.0" clip-path="url(#id_0)" d="M240.4423 217.24796C240.4423 218.9048 239.09917 220.24796 237.4423 220.24796C235.78545 220.24796 234.4423 218.9048 234.4423 217.24796C234.4423 215.5911 235.78545 214.24796 237.4423 214.24796C239.09917 214.24796 240.4423 215.5911 240.4423 217.24796Z" fill-rule="nonzero"/><path fill="#000000" fill-opacity="0.0" clip-path="url(#id_0)" d="M259.55383 209.03427C259.55383 210.69113 258.2107 212.03427 256.55383 212.03427C254.89699 212.03427 253.55385 210.69113 253.55385 209.03427C253.55385 207.37741 254.89699 206.03427 256.55383 206.03427C258.2107 206.03427 259.55383 207.37741 259.55383 209.03427Z" fill-rule="nonzero"/><path fill="#000000" fill-opacity="0.0" clip-path="url(#id_0)" d="M278.66537 200.37166C278.66537 202.02852 277.32224 203.37166 275.66537 203.37166C274.00854 203.37166 272.66537 202.02852 272.66537 200.37166C272.66537 198.71481 274.00854 197.37166 275.66537 197.37166C277.32224 197.37166 278.66537 198.71481 278.66537 200.37166Z" fill-rule="nonzero"/><path fill="#000000" fill-opacity="0.0" clip-path="url(#id_0)" d="M297.77692 191.99854C297.77692 193.6554 296.43378 194.99854 294.77692 194.99854C293.12006 194.99854 291.77692 193.6554 291.77692 191.99854C291.77692 190.34169 293.12006 188.99854 294.77692 188.99854C296.43378 188.99854 297.77692 190.34169 297.77692 191.99854Z" fill-rule="nonzero"/><path fill="#000000" fill-opacity="0.0" clip-path="url(#id_0)" d="M316.88846 183.3497C316.88846 185.00655 315.54532 186.3497 313.88846 186.3497C312.2316 186.3497 310.88846 185.00655 310.88846 183.3497C310.88846 181.69284 312.2316 180.3497 313.88846 180.3497C315.54532 180.3497 316.88846 181.69284 316.88846 183.3497Z" fill-rule="nonzero"/><path fill="#000000" fill-opacity="0.0" clip-path="url(#id_0)" d="M336.0 173.33752C336.0 174.99438 334.65686 176.33752 333.0 176.33752C331.34314 176.33752 330.0 174.99438 330.0 173.33752C330.0 171.68068 331.34314 170.33752 333.0 170.33752C334.65686 170.33752 336.0 171.68068 336.0 173.33752Z" fill-rule="nonzero"/><path fill="#000000" fill-opacity="0.0" clip-path="url(#id_0)" d="M355.11154 163.70018C355.11154 165.35704 353.7684 166.70018 352.11154 166.70018C350.45468 166.70018 349.11154 165.35704 349.11154 163.70018C349.11154 162.04333 350.45468 160.70018 352.11154 160.70018C353.7684 160.70018 355.11154 162.04333 355.11154 163.70018Z" fill-rule="nonzero"/><path fill="#000000" fill-opacity="0.0" clip-path="url(#id_0)" d="M374.22308 152.10547C374.22308 153.76233 372.87994 155.10547 371.22308 155.10547C369.56622 155.10547 368.22308 153.76233 368.22308 152.10547C368.22308 150.44861 369.56622 149.10547 371.22308 149.10547C372.87994 149.10547 374.22308 150.44861 374.22308 152.10547Z" fill-rule="nonzero"/><path fill="#000000" fill-opacity="0.0" clip-path="url(#id_0)" d="M393.33463 143.4209C393.33463 145.07774 391.99146 146.4209 390.33463 146.4209C388.67776 146.4209 387.33463 145.07774 387.33463 143.4209C387.33463 141.76404 388.67776 140.4209 390.33463 140.4209C391.99146 140.4209 393.33463 141.76404 393.33463 143.4209Z" fill-rule="nonzero"/><path fill="#000000" fill-opacity="0.0" clip-path="url(#id_0)" d="M412.44617 137.06099C412.44617 138.71783 411.103 140.06099 409.44617 140.06099C407.7893 140.06099 406.44617 138.71783 406.44617 137.06099C406.44617 135.40413 407.7893 134.06099 409.44617 134.06099C411.103 134.06099 412.44617 135.40413 412.44617 137.06099Z" fill-rule="nonzero"/><path fill="#000000" fill-opacity="0.0" clip-path="url(#id_0)" d="M431.55768 129.02194C431.55768 130.67879 430.21454 132.02194 428.55768 132.02194C426.90085 132.02194 425.55768 130.67879 425.55768 129.02194C425.55768 127.36508 426.90085 126.02194 428.55768 126.02194C430.21454 126.02194 431.55768 127.36508 431.55768 129.02194Z" fill-rule="nonzero"/><path fill="#000000" fill-opacity="0.0" clip-path="url(#id_0)" d="M450.66922 119.57962C450.66922 121.23647 449.32608 122.57962 447.66922 122.57962C446.0124 122.57962 444.66922 121.23647 444.66922 119.57962C444.66922 117.92277 446.0124 116.57962 447.66922 116.57962C449.32608 116.57962 450.66922 117.92277 450.66922 119.57962Z" fill-rule="nonzero"/><path fill="#000000" fill-opacity="0.0" clip-path="url(#id_0)" d="M469.78076 108.43546C469.78076 110.09232 468.43762 111.43546 466.78076 111.43546C465.1239 111.43546 463.78076 110.09232 463.78076 108.43546C463.78076 106.77861 465.1239 105.43546 466.78076 105.43546C468.43762 105.43546 469.78076 106.77861 469.78076 108.43546Z" fill-rule="nonzero"/><path fill="#000000" fill-opacity="0.0" clip-path="url(#id_0)" d="M488.8923 98.65476C488.8923 100.311615 487.54916 101.65476 485.8923 101.65476C484.23544 101.65476 482.8923 100.311615 482.8923 98.65476C482.8923 96.99791 484.23544 95.65476 485.8923 95.65476C487.54916 95.65476 488.8923 96.99791 488.8923 98.65476Z" fill-rule="nonzero"/><path fill="#000000" fill-opacity="0.0" clip-path="url(#id_0)" d="M508.00385 92.0201C508.00385 93.676956 506.6607 95.0201 505.00385 95.0201C503.347 95.0201 502.00385 93.676956 502.00385 92.0201C502.00385 90.36325 503.347 89.0201 505.00385 89.0201C506.6607 89.0201 508.00385 90.36325 508.00385 92.0201Z" fill-rule="nonzero"/><path fill="#000000" fill-opacity="0.0" clip-path="url(#id_0)" d="M527.11536 82.564545C527.11536 84.2214 525.7722 85.564545 524.11536 85.564545C522.45856 85.564545 521.11536 84.2214 521.11536 82.564545C521.11536 80.90769 522.45856 79.564545 524.11536 79.564545C525.7722 79.564545 527.11536 80.90769 527.11536 82.564545Z" fill-rule="nonzero"/><path fill="#000000" fill-opacity="0.0" clip-path="url(#id_0)" d="M546.2269 71.39997C546.2269 73.05683 544.8838 74.39997 543.2269 74.39997C541.57007 74.39997 540.2269 73.05683 540.2269 71.39997C540.2269 69.74312 541.57007 68.39997 543.2269 68.39997C544.8838 68.39997 546.2269 69.74312 546.2269 71.39997Z" fill-rule="nonzero"/><path fill="#000000" fill-opacity="0.0" clip-path="url(#id_0)" d="M565.33844 59.75322C565.33844 61.410076 563.9953 62.75322 562.33844 62.75322C560.6816 62.75322 559.33844 61.410076 559.33844 59.75322C559.33844 58.096367 560.6816 56.75322 562.33844 56.75322C563.9953 56.75322 565.33844 58.096367 565.33844 59.75322Z" fill-rule="nonzero"/><path fill="#000000" fill-opacity="0.0" clip-path="url(#id_0)" d="M584.45 53.821682C584.45 55.478535 583.1069 56.821682 581.45 56.821682C579.79315 56.821682 578.45 55.478535 578.45 53.821682C578.45 52.164825 579.79315 50.821682 581.45 50.821682C583.1069 50.821682 584.45 52.164825 584.45 53.821682Z" fill-rule="nonzero"/><path fill="#000000" fill-opacity="0.0" clip-path="url(#id_0)" d="M87.55 298.9703C87.55 300.62717 86.206856 301.9703 84.55 301.9703C82.89314 301.9703 81.55 300.62717 81.55 298.9703C81.55 297.31345 82.89314 295.9703 84.55 295.9703C86.206856 295.9703 87.55 297.31345 87.55 298.9703Z" fill-rule="nonzero"/><path fill="#000000" fill-opacity="0.0" clip-path="url(#id_0)" d="M106.66154 297.48007C106.66154 299.1369 105.31839 300.48007 103.66154 300.48007C102.004684 300.48007 100.66154 299.1369 100.66154 297.48007C100.66154 295.8232 102.004684 294.48007 103.66154 294.48007C105.31839 294.48007 106.66154 295.8232 106.66154 297.48007Z" fill-rule="nonzero"/><path fill="#000000" fill-opacity="0.0" clip-path="url(#id_0)" d="M125.77308 295.97546C125.77308 297.63232 124.42993 298.97546 122.77308 298.97546C121.11623 298.97546 119.77308 297.63232 119.77308 295.97546C119.77308 294.31863 121.11623 292.97546 122.77308 292.97546C124.42993 292.97546 125.77308 294.31863 125.77308 295.97546Z" fill-rule="nonzero"/><path fill="#000000" fill-opacity="0.0" clip-path="url(#id_0)" d="M144.88461 294.45462C144.88461 296.11148 143.54147 297.45462 141.88461 297.45462C140.22777 297.45462 138.88461 296.11148 138.88461 294.45462C138.88461 292.79776 140.22777 291.45462 141.88461 291.45462C143.54147 291.45462 144.88461 292.79776 144.88461 294.45462Z" fill-rule="nonzero"/><path fill="#000000" fill-opacity="0.0" clip-path="url(#id_0)" d="M163.99615 293.00784C163.99615 294.6647 162.65302 296.00784 160.99615 296.00784C159.3393 296.00784 157.99615 294.6647 157.99615 293.00784C157.99615 291.35098 159.3393 290.00784 160.99615 290.00784C162.65302 290.00784 163.99615 291.35098 163.99615 293.00784Z" fill-rule="nonzero"/><path fill="#000000" fill-opacity="0.0" clip-path="url(#id_0)" d="M183.1077 290.88748C183.1077 292.54434 181.76454 293.88748 180.1077 293.88748C178.45084 293.88748 177.1077 292.54434 177.1077 290.88748C177.1077 289.23065 178.45084 287.88748 180.1077 287.88748C181.76454 287.88748 183.1077 289.23065 183.1077 290.88748Z" fill-rule="nonzero"/><path fill="#000000" fill-opacity="0.0" clip-path="url(#id_0)" d="M202.21924 289.2702C202.21924 290.92706 200.87608 292.2702 199.21924 292.2702C197.56238 292.2702 196.21924 290.92706 196.21924 289.2702C196.21924 287.61334 197.56238 286.2702 199.21924 286.2702C200.87608 286.2702 202.21924 287.61334 202.21924 289.2702Z" fill-rule="nonzero"/><path fill="#000000" fill-opacity="0.0" clip-path="url(#id_0)" d="M221.33076 288.04294C221.33076 289.6998 219.98763 291.04294 218.33076 291.04294C216.67392 291.04294 215.33076 289.6998 215.33076 288.04294C215.33076 286.3861 216.67392 285.04294 218.33076 285.04294C219.98763 285.04294 221.33076 286.3861 221.33076 288.04294Z" fill-rule="nonzero"/><path fill="#000000" fill-opacity="0.0" clip-path="url(#id_0)" d="M240.4423 286.42395C240.4423 288.0808 239.09917 289.42395 237.4423 289.42395C235.78545 289.42395 234.4423 288.0808 234.4423 286.42395C234.4423 284.7671 235.78545 283.42395 237.4423 283.42395C239.09917 283.42395 240.4423 284.7671 240.4423 286.42395Z" fill-rule="nonzero"/><path fill="#000000" fill-opacity="0.0" clip-path="url(#id_0)" d="M259.55383 284.93954C259.55383 286.5964 258.2107 287.93954 256.55383 287.93954C254.89699 287.93954 253.55385 286.5964 253.55385 284.93954C253.55385 283.28268 254.89699 281.93954 256.55383 281.93954C258.2107 281.93954 259.55383 283.28268 259.55383 284.93954Z" fill-rule="nonzero"/><path fill="#000000" fill-opacity="0.0" clip-path="url(#id_0)" d="M278.66537 283.3287C278.66537 284.98557 277.32224 286.3287 275.66537 286.3287C274.00854 286.3287 272.66537 284.98557 272.66537 283.3287C272.66537 281.67184 274.00854 280.3287 275.66537 280.3287C277.32224 280.3287 278.66537 281.67184 278.66537 283.3287Z" fill-rule="nonzero"/><path fill="#000000" fill-opacity="0.0" clip-path="url(#id_0)" d="M297.77692 280.83246C297.77692 282.48932 296.43378 283.83246 294.77692 283.83246C293.12006 283.83246 291.77692 282.48932 291.77692 280.83246C291.77692 279.17563 293.12006 277.83246 294.77692 277.83246C296.43378 277.83246 297.77692 279.17563 297.77692 280.83246Z" fill-rule="nonzero"/><path fill="#000000" fill-opacity="0.0" clip-path="url(#id_0)" d="M316.88846 275.66998C316.88846 277.32684 315.54532 278.66998 313.88846 278.66998C312.2316 278.66998 310.88846 277.32684 310.88846 275.66998C310.88846 274.01312 312.2316 272.66998 313.88846 272.66998C315.54532 272.66998 316.88846 274.01312 316.88846 275.66998Z" fill-rule="nonzero"/><path fill="#000000" fill-opacity="0.0" clip-path="url(#id_0)" d="M336.0 270.70248C336.0 272.35934 334.65686 273.70248 333.0 273.70248C331.34314 273.70248 330.0 272.35934 330.0 270.70248C330.0 269.04562 331.34314 267.70248 333.0 267.70248C334.65686 267.70248 336.0 269.04562 336.0 270.70248Z" fill-rule="nonzero"/><path fill="#000000" fill-opacity="0.0" clip-path="url(#id_0)" d="M355.11154 264.66504C355.11154 266.3219 353.7684 267.66504 352.11154 267.66504C350.45468 267.66504 349.11154 266.3219 349.11154 264.66504C349.11154 263.00818 350.45468 261.66504 352.11154 261.66504C353.7684 261.66504 355.11154 263.00818 355.11154 264.66504Z" fill-rule="nonzero"/><path fill="#000000" fill-opacity="0.0" clip-path="url(#id_0)" d="M374.22308 262.1576C374.22308 263.81445 372.87994 265.1576 371.22308 265.1576C369.56622 265.1576 368.22308 263.81445 368.22308 262.1576C368.22308 260.50076 369.56622 259.1576 371.22308 259.1576C372.87994 259.1576 374.22308 260.50076 374.22308 262.1576Z" fill-rule="nonzero"/><path fill="#000000" fill-opacity="0.0" clip-path="url(#id_0)" d="M393.33463 259.74466C393.33463 261.40152 391.99146 262.74466 390.33463 262.74466C388.67776 262.74466 387.33463 261.40152 387.33463 259.74466C387.33463 258.0878 388.67776 256.74466 390.33463 256.74466C391.99146 256.74466 393.33463 258.0878 393.33463 259.74466Z" fill-rule="nonzero"/><path fill="#000000" fill-opacity="0.0" clip-path="url(#id_0)" d="M412.44617 264.54483C412.44617 266.2017 411.103 267.54483 409.44617 267.54483C407.7893 267.54483 406.44617 266.2017 406.44617 264.54483C406.44617 262.88797 407.7893 261.54483 409.44617 261.54483C411.103 261.54483 412.44617 262.88797 412.44617 264.54483Z" fill-rule="nonzero"/><path fill="#000000" fill-opacity="0.0" clip-path="url(#id_0)" d="M431.55768 259.425C431.55768 261.08185 430.21454 262.425 428.55768 262.425C426.90085 262.425 425.55768 261.08185 425.55768 259.425C425.55768 257.76816 426.90085 256.425 428.55768 256.425C430.21454 256.425 431.55768 257.76816 431.55768 259.425Z" fill-rule="nonzero"/><path fill="#000000" fill-opacity="0.0" clip-path="url(#id_0)" d="M450.66922 261.08432C450.66922 262.74118 449.32608 264.08432 447.66922 264.08432C446.0124 264.08432 444.66922 262.74118 444.66922 261.08432C444.66922 259.42746 446.0124 258.08432 447.66922 258.08432C449.32608 258.08432 450.66922 259.42746 450.66922 261.08432Z" fill-rule="nonzero"/><path fill="#000000" fill-opacity="0.0" clip-path="url(#id_0)" d="M469.78076 233.89445C469.78076 235.5513 468.43762 236.89445 466.78076 236.89445C465.1239 236.89445 463.78076 235.5513 463.78076 233.89445C463.78076 232.2376 465.1239 230.89445 466.78076 230.89445C468.43762 230.89445 469.78076 232.2376 469.78076 233.89445Z" fill-rule="nonzero"/><path fill="#000000" fill-opacity="0.0" clip-path="url(#id_0)" d="M488.8923 228.54152C488.8923 230.19836 487.54916 231.54152 485.8923 231.54152C484.23544 231.54152 482.8923 230.19836 482.8923 228.54152C482.8923 226.88466 484.23544 225.54152 485.8923 225.54152C487.54916 225.54152 488.8923 226.88466 488.8923 228.54152Z" fill-rule="nonzero"/><path fill="#000000" fill-opacity="0.0" clip-path="url(#id_0)" d="M508.00385 209.06668C508.00385 210.72354 506.6607 212.06668 505.00385 212.06668C503.347 212.06668 502.00385 210.72354 502.00385 209.06668C502.00385 207.40982 503.347 206.06668 505.00385 206.06668C506.6607 206.06668 508.00385 207.40982 508.00385 209.06668Z" fill-rule="nonzero"/><path fill="#000000" fill-opacity="0.0" clip-path="url(#id_0)" d="M527.11536 202.60725C527.11536 204.26411 525.7722 205.60725 524.11536 205.60725C522.45856 205.60725 521.11536 204.26411 521.11536 202.60725C521.11536 200.95041 522.45856 199.60725 524.11536 199.60725C525.7722 199.60725 527.11536 200.95041 527.11536 202.60725Z" fill-rule="nonzero"/><path fill="#000000" fill-opacity="0.0" clip-path="url(#id_0)" d="M546.2269 198.14958C546.2269 199.80643 544.8838 201.14958 543.2269 201.14958C541.57007 201.14958 540.2269 199.80643 540.2269 198.14958C540.2269 196.49272 541.57007 195.14958 543.2269 195.14958C544.8838 195.14958 546.2269 196.49272 546.2269 198.14958Z" fill-rule="nonzero"/><path fill="#000000" fill-opacity="0.0" clip-path="url(#id_0)" d="M565.33844 182.5028C565.33844 184.15967 563.9953 185.5028 562.33844 185.5028C560.6816 185.5028 559.33844 184.15967 559.33844 182.5028C559.33844 180.84595 560.6816 179.5028 562.33844 179.5028C563.9953 179.5028 565.33844 180.84595 565.33844 182.5028Z" fill-rule="nonzero"/><path fill="#000000" fill-opacity="0.0" clip-path="url(#id_0)" d="M584.45 206.66682C584.45 208.32367 583.1069 209.66682 581.45 209.66682C579.79315 209.66682 578.45 208.32367 578.45 206.66682C578.45 205.00996 579.79315 203.66682 581.45 203.66682C583.1069 203.66682 584.45 205.00996 584.45 206.66682Z" fill-rule="nonzero"/><path fill="#000000" d="M314.125 349.45L314.125 340.85626L315.25 340.85626L315.25 349.45L314.125 349.45ZM316.79688 349.45L316.79688 343.23126L317.73438 343.23126L317.73438 344.10626Q318.03125 343.6375 318.51562 343.3719Q319.0 343.09064 319.625 343.09064Q320.3125 343.09064 320.75 343.3719Q321.20312 343.65314 321.375 344.16876Q322.125 343.09064 323.29688 343.09064Q324.23438 343.09064 324.71875 343.60626Q325.21875 344.10626 325.21875 345.1844L325.21875 349.45L324.17188 349.45L324.17188 345.52814Q324.17188 344.90314 324.0625 344.6219Q323.96875 344.34064 323.70312 344.16876Q323.4375 343.9969 323.0625 343.9969Q322.40625 343.9969 321.96875 344.4344Q321.54688 344.8719 321.54688 345.84064L321.54688 349.45L320.48438 349.45L320.48438 345.40314Q320.48438 344.7 320.21875 344.35626Q319.96875 343.9969 319.39062 343.9969Q318.9375 343.9969 318.5625 344.23126Q318.1875 344.46564 318.01562 344.91876Q317.84375 345.3719 317.84375 346.21564L317.84375 349.45L316.79688 349.45ZM330.85938 348.6844Q330.26562 349.1844 329.71875 349.3875Q329.1875 349.59064 328.5625 349.59064Q327.53125 349.59064 326.98438 349.09064Q326.4375 348.59064 326.4375 347.8094Q326.4375 347.35626 326.64062 346.98126Q326.84375 346.59064 327.1875 346.3719Q327.53125 346.1375 327.95312 346.02814Q328.25 345.9344 328.89062 345.85626Q330.15625 345.71564 330.76562 345.4969Q330.76562 345.27814 330.76562 345.23126Q330.76562 344.575 330.46875 344.3094Q330.0625 343.96564 329.26562 343.96564Q328.53125 343.96564 328.17188 344.23126Q327.8125 344.48126 327.64062 345.1375L326.60938 344.9969Q326.75 344.34064 327.07812 343.9344Q327.40625 343.52814 328.01562 343.3094Q328.625 343.09064 329.42188 343.09064Q330.21875 343.09064 330.71875 343.27814Q331.21875 343.46564 331.45312 343.7469Q331.6875 344.02814 331.78125 344.46564Q331.82812 344.73126 331.82812 345.4344L331.82812 346.84064Q331.82812 348.3094 331.89062 348.7Q331.96875 349.09064 332.17188 349.45L331.0625 349.45Q330.90625 349.1219 330.85938 348.6844ZM330.76562 346.325Q330.1875 346.5594 329.04688 346.73126Q328.39062 346.825 328.125 346.95Q327.85938 347.0594 327.70312 347.27814Q327.5625 347.4969 327.5625 347.77814Q327.5625 348.2 327.875 348.48126Q328.20312 348.7625 328.8125 348.7625Q329.42188 348.7625 329.89062 348.4969Q330.375 348.23126 330.59375 347.7625Q330.76562 347.40314 330.76562 346.71564L330.76562 346.325ZM333.59375 349.96564L334.625 350.1219Q334.6875 350.59064 334.98438 350.8094Q335.375 351.10626 336.04688 351.10626Q336.78125 351.10626 337.17188 350.8094Q337.57812 350.5125 337.71875 349.9969Q337.8125 349.66876 337.79688 348.6375Q337.10938 349.45 336.07812 349.45Q334.79688 349.45 334.09375 348.52814Q333.39062 347.59064 333.39062 346.3094Q333.39062 345.41876 333.70312 344.66876Q334.03125 343.90314 334.64062 343.4969Q335.25 343.09064 336.07812 343.09064Q337.1875 343.09064 337.90625 343.98126L337.90625 343.23126L338.875 343.23126L338.875 348.60626Q338.875 350.0594 338.57812 350.66876Q338.28125 351.27814 337.64062 351.6219Q337.0 351.98126 336.0625 351.98126Q334.95312 351.98126 334.26562 351.48126Q333.57812 350.98126 333.59375 349.96564ZM334.46875 346.23126Q334.46875 347.45 334.95312 348.0125Q335.4375 348.575 336.17188 348.575Q336.90625 348.575 337.39062 348.0125Q337.89062 347.45 337.89062 346.2625Q337.89062 345.1219 337.375 344.54376Q336.875 343.96564 336.15625 343.96564Q335.45312 343.96564 334.95312 344.54376Q334.46875 345.10626 334.46875 346.23126ZM345.04688 347.45L346.14062 347.575Q345.89062 348.52814 345.1875 349.0594Q344.48438 349.59064 343.40625 349.59064Q342.04688 349.59064 341.23438 348.7469Q340.4375 347.90314 340.4375 346.3875Q340.4375 344.825 341.25 343.96564Q342.0625 343.09064 343.34375 343.09064Q344.59375 343.09064 345.375 343.9344Q346.17188 344.77814 346.17188 346.325Q346.17188 346.41876 346.17188 346.60626L341.53125 346.60626Q341.59375 347.6375 342.10938 348.1844Q342.625 348.71564 343.40625 348.71564Q343.98438 348.71564 344.39062 348.41876Q344.8125 348.10626 345.04688 347.45ZM341.59375 345.7469L345.0625 345.7469Q345.0 344.95 344.67188 344.5594Q344.15625 343.95 343.35938 343.95Q342.625 343.95 342.125 344.4344Q341.64062 344.91876 341.59375 345.7469ZM347.375 347.59064L348.40625 347.4344Q348.5 348.0594 348.89062 348.3875Q349.29688 348.71564 350.03125 348.71564Q350.75 348.71564 351.09375 348.4344Q351.45312 348.1375 351.45312 347.73126Q351.45312 347.3719 351.14062 347.16876Q350.92188 347.02814 350.0625 346.8094Q348.90625 346.5125 348.45312 346.3094Q348.01562 346.09064 347.78125 345.71564Q347.54688 345.34064 347.54688 344.8719Q347.54688 344.46564 347.73438 344.10626Q347.92188 343.7469 348.25 343.5125Q348.5 343.34064 348.92188 343.21564Q349.34375 343.09064 349.84375 343.09064Q350.5625 343.09064 351.10938 343.3094Q351.67188 343.5125 351.9375 343.8719Q352.20312 344.23126 352.29688 344.825L351.26562 344.96564Q351.20312 344.4969 350.85938 344.23126Q350.53125 343.95 349.90625 343.95Q349.1875 343.95 348.875 344.2Q348.5625 344.4344 348.5625 344.7625Q348.5625 344.96564 348.6875 345.1219Q348.82812 345.29376 349.09375 345.40314Q349.25 345.46564 350.03125 345.66876Q351.15625 345.98126 351.59375 346.16876Q352.03125 346.35626 352.28125 346.71564Q352.53125 347.075 352.53125 347.6219Q352.53125 348.15314 352.21875 348.6219Q351.92188 349.075 351.34375 349.34064Q350.76562 349.59064 350.03125 349.59064Q348.8125 349.59064 348.17188 349.09064Q347.54688 348.575 347.375 347.59064Z" fill-rule="nonzero"/><path fill="#000000" d="M29.550013 221.57396L21.971888 221.57396L21.971888 224.40208L20.956263 224.40208L20.956263 217.58958L21.971888 217.58958L21.971888 220.43333L29.550013 220.43333L29.550013 221.57396ZM22.175013 216.88646L20.956263 216.88646L20.956263 215.82396L22.175013 215.82396L22.175013 216.88646ZM29.550013 216.88646L23.331263 216.88646L23.331263 215.82396L29.550013 215.82396L29.550013 216.88646ZM29.550013 213.88646L23.331263 213.88646L23.331263 212.94896L24.206263 212.94896Q23.737513 212.65208 23.471888 212.16771Q23.190638 211.68333 23.190638 211.05833Q23.190638 210.37083 23.471888 209.93333Q23.753138 209.48021 24.268763 209.30833Q23.190638 208.55833 23.190638 207.38646Q23.190638 206.44896 23.706263 205.96458Q24.206263 205.46458 25.284388 205.46458L29.550013 205.46458L29.550013 206.51146L25.628138 206.51146Q25.003138 206.51146 24.721888 206.62083Q24.440638 206.71458 24.268763 206.98021Q24.096888 207.24583 24.096888 207.62083Q24.096888 208.27708 24.534388 208.71458Q24.971888 209.13646 25.940638 209.13646L29.550013 209.13646L29.550013 210.19896L25.503138 210.19896Q24.800013 210.19896 24.456263 210.46458Q24.096888 210.71458 24.096888 211.29271Q24.096888 211.74583 24.331263 212.12083Q24.565638 212.49583 25.018763 212.66771Q25.471888 212.83958 26.315638 212.83958L29.550013 212.83958L29.550013 213.88646ZM27.550013 199.63646L27.675013 198.54271Q28.628138 198.79271 29.159388 199.49583Q29.690638 200.19896 29.690638 201.27708Q29.690638 202.63646 28.846888 203.44896Q28.003138 204.24583 26.487513 204.24583Q24.925013 204.24583 24.065638 203.43333Q23.190638 202.62083 23.190638 201.33958Q23.190638 200.08958 24.034388 199.30833Q24.878138 198.51146 26.425013 198.51146Q26.518763 198.51146 26.706263 198.51146L26.706263 203.15208Q27.737513 203.08958 28.284388 202.57396Q28.815638 202.05833 28.815638 201.27708Q28.815638 200.69896 28.518763 200.29271Q28.206263 199.87083 27.550013 199.63646ZM25.846888 203.08958L25.846888 199.62083Q25.050013 199.68333 24.659388 200.01146Q24.050013 200.52708 24.050013 201.32396Q24.050013 202.05833 24.534388 202.55833Q25.018763 203.04271 25.846888 203.08958ZM32.08126 191.87083Q30.971888 192.74583 29.503138 193.35521Q28.018763 193.94896 26.440638 193.94896Q25.050013 193.94896 23.768763 193.51146Q22.284388 192.98021 20.815638 191.87083L20.815638 191.12083Q22.034388 191.82396 22.550013 192.05833Q23.362513 192.41771 24.237513 192.62083Q25.331263 192.87083 26.440638 192.87083Q29.268763 192.87083 32.08126 191.12083L32.08126 191.87083ZM27.690638 190.30833L27.534388 189.27708Q28.159388 189.18333 28.487513 188.79271Q28.815638 188.38646 28.815638 187.65208Q28.815638 186.93333 28.534388 186.58958Q28.237513 186.23021 27.831263 186.23021Q27.471888 186.23021 27.268763 186.54271Q27.128138 186.76146 26.909388 187.62083Q26.612513 188.77708 26.409388 189.23021Q26.190638 189.66771 25.815638 189.90208Q25.440638 190.13646 24.971888 190.13646Q24.565638 190.13646 24.206263 189.94896Q23.846888 189.76146 23.612513 189.43333Q23.440638 189.18333 23.315638 188.76146Q23.190638 188.33958 23.190638 187.83958Q23.190638 187.12083 23.409388 186.57396Q23.612513 186.01146 23.971888 185.74583Q24.331263 185.48021 24.925013 185.38646L25.065638 186.41771Q24.596888 186.48021 24.331263 186.82396Q24.050013 187.15208 24.050013 187.77708Q24.050013 188.49583 24.300013 188.80833Q24.534388 189.12083 24.862513 189.12083Q25.065638 189.12083 25.221888 188.99583Q25.393763 188.85521 25.503138 188.58958Q25.565638 188.43333 25.768763 187.65208Q26.081263 186.52708 26.268763 186.08958Q26.456263 185.65208 26.815638 185.40208Q27.175013 185.15208 27.721888 185.15208Q28.253138 185.15208 28.721888 185.46458Q29.175013 185.76146 29.440638 186.33958Q29.690638 186.91771 29.690638 187.65208Q29.690638 188.87083 29.190638 189.51146Q28.675013 190.13646 27.690638 190.30833ZM27.550013 179.63646L27.675013 178.54271Q28.628138 178.79271 29.159388 179.49583Q29.690638 180.19896 29.690638 181.27708Q29.690638 182.63646 28.846888 183.44896Q28.003138 184.24583 26.487513 184.24583Q24.925013 184.24583 24.065638 183.43333Q23.190638 182.62083 23.190638 181.33958Q23.190638 180.08958 24.034388 179.30833Q24.878138 178.51146 26.425013 178.51146Q26.518763 178.51146 26.706263 178.51146L26.706263 183.15208Q27.737513 183.08958 28.284388 182.57396Q28.815638 182.05833 28.815638 181.27708Q28.815638 180.69896 28.518763 180.29271Q28.206263 179.87083 27.550013 179.63646ZM25.846888 183.08958L25.846888 179.62083Q25.050013 179.68333 24.659388 180.01146Q24.050013 180.52708 24.050013 181.32396Q24.050013 182.05833 24.534388 182.55833Q25.018763 183.04271 25.846888 183.08958ZM27.268763 172.82396L27.409388 171.79271Q28.471888 171.96458 29.081263 172.66771Q29.690638 173.37083 29.690638 174.38646Q29.690638 175.66771 28.862513 176.44896Q28.018763 177.21458 26.456263 177.21458Q25.456263 177.21458 24.706263 176.88646Q23.940638 176.54271 23.565638 175.87083Q23.190638 175.18333 23.190638 174.37083Q23.190638 173.37083 23.706263 172.73021Q24.206263 172.07396 25.159388 171.88646L25.315638 172.91771Q24.690638 173.05833 24.378138 173.43333Q24.050013 173.80833 24.050013 174.33958Q24.050013 175.13646 24.628138 175.63646Q25.190638 176.13646 26.425013 176.13646Q27.690638 176.13646 28.253138 175.65208Q28.815638 175.16771 28.815638 174.40208Q28.815638 173.77708 28.440638 173.37083Q28.065638 172.94896 27.268763 172.82396ZM26.440638 171.27708Q24.706263 171.27708 23.878138 170.32396Q23.190638 169.52708 23.190638 168.37083Q23.190638 167.08958 24.034388 166.27708Q24.862513 165.44896 26.346888 165.44896Q27.550013 165.44896 28.237513 165.80833Q28.925013 166.16771 29.315638 166.87083Q29.690638 167.55833 29.690638 168.37083Q29.690638 169.66771 28.862513 170.48021Q28.018763 171.27708 26.440638 171.27708ZM26.440638 170.19896Q27.628138 170.19896 28.221888 169.68333Q28.815638 169.15208 28.815638 168.37083Q28.815638 167.57396 28.221888 167.05833Q27.628138 166.54271 26.409388 166.54271Q25.253138 166.54271 24.659388 167.07396Q24.065638 167.58958 24.065638 168.37083Q24.065638 169.15208 24.659388 169.68333Q25.237513 170.19896 26.440638 170.19896ZM29.550013 163.88646L23.331263 163.88646L23.331263 162.94896L24.206263 162.94896Q23.190638 162.26146 23.190638 160.96458Q23.190638 160.40208 23.393763 159.93333Q23.596888 159.44896 23.925013 159.21458Q24.253138 158.98021 24.690638 158.88646Q24.987513 158.83958 25.721888 158.83958L29.550013 158.83958L29.550013 159.88646L25.768763 159.88646Q25.112513 159.88646 24.800013 160.01146Q24.487513 160.13646 24.300013 160.44896Q24.096888 160.76146 24.096888 161.18333Q24.096888 161.85521 24.534388 162.35521Q24.956263 162.83958 26.143763 162.83958L29.550013 162.83958L29.550013 163.88646ZM29.550013 152.85521L28.768763 152.85521Q29.690638 153.44896 29.690638 154.58958Q29.690638 155.33958 29.284388 155.96458Q28.862513 156.58958 28.128138 156.93333Q27.393763 157.27708 26.440638 157.27708Q25.518763 157.27708 24.753138 156.96458Q23.987513 156.65208 23.596888 156.02708Q23.190638 155.40208 23.190638 154.63646Q23.190638 154.07396 23.425013 153.63646Q23.659388 153.19896 24.034388 152.91771L20.956263 152.91771L20.956263 151.87083L29.550013 151.87083L29.550013 152.85521ZM26.440638 156.18333Q27.643763 156.18333 28.237513 155.68333Q28.815638 155.18333 28.815638 154.49583Q28.815638 153.80833 28.253138 153.32396Q27.690638 152.83958 26.534388 152.83958Q25.253138 152.83958 24.659388 153.33958Q24.065638 153.82396 24.065638 154.54271Q24.065638 155.24583 24.643763 155.71458Q25.206263 156.18333 26.440638 156.18333ZM27.690638 150.30833L27.534388 149.27708Q28.159388 149.18333 28.487513 148.79271Q28.815638 148.38646 28.815638 147.65208Q28.815638 146.93333 28.534388 146.58958Q28.237513 146.23021 27.831263 146.23021Q27.471888 146.23021 27.268763 146.54271Q27.128138 146.76146 26.909388 147.62083Q26.612513 148.77708 26.409388 149.23021Q26.190638 149.66771 25.815638 149.90208Q25.440638 150.13646 24.971888 150.13646Q24.565638 150.13646 24.206263 149.94896Q23.846888 149.76146 23.612513 149.43333Q23.440638 149.18333 23.315638 148.76146Q23.190638 148.33958 23.190638 147.83958Q23.190638 147.12083 23.409388 146.57396Q23.612513 146.01146 23.971888 145.74583Q24.331263 145.48021 24.925013 145.38646L25.065638 146.41771Q24.596888 146.48021 24.331263 146.82396Q24.050013 147.15208 24.050013 147.77708Q24.050013 148.49583 24.300013 148.80833Q24.534388 149.12083 24.862513 149.12083Q25.065638 149.12083 25.221888 148.99583Q25.393763 148.85521 25.503138 148.58958Q25.565638 148.43333 25.768763 147.65208Q26.081263 146.52708 26.268763 146.08958Q26.456263 145.65208 26.815638 145.40208Q27.175013 145.15208 27.721888 145.15208Q28.253138 145.15208 28.721888 145.46458Q29.175013 145.76146 29.440638 146.33958Q29.690638 146.91771 29.690638 147.65208Q29.690638 148.87083 29.190638 149.51146Q28.675013 150.13646 27.690638 150.30833ZM32.08126 143.19896L32.08126 143.94896Q29.268763 142.19896 26.440638 142.19896Q25.346888 142.19896 24.253138 142.44896Q23.378138 142.65208 22.565638 143.01146Q22.050013 143.24583 20.815638 143.94896L20.815638 143.19896Q22.284388 142.10521 23.768763 141.57396Q25.050013 141.12083 26.440638 141.12083Q28.018763 141.12083 29.503138 141.73021Q30.971888 142.33958 32.08126 143.19896Z" fill-rule="nonzero"/><path fill="#000000" d="M72.05 300.21564Q72.05 298.6844 72.3625 297.7625Q72.675 296.825 73.28438 296.325Q73.90938 295.825 74.84688 295.825Q75.53438 295.825 76.05 296.10626Q76.58125 296.3875 76.925 296.91876Q77.26875 297.4344 77.45625 298.1844Q77.64375 298.9344 77.64375 300.21564Q77.64375 301.73126 77.33125 302.65314Q77.03438 303.575 76.40938 304.09064Q75.8 304.59064 74.84688 304.59064Q73.6125 304.59064 72.89375 303.7Q72.05 302.6375 72.05 300.21564ZM73.12813 300.21564Q73.12813 302.325 73.62813 303.02814Q74.12813 303.73126 74.84688 303.73126Q75.58125 303.73126 76.06563 303.02814Q76.56563 302.325 76.56563 300.21564Q76.56563 298.09064 76.06563 297.40314Q75.58125 296.7 74.83125 296.7Q74.1125 296.7 73.675 297.3094Q73.12813 298.09064 73.12813 300.21564Z" fill-rule="nonzero"/><path fill="#000000" d="M63.596874 253.7277L63.596874 254.74333L57.909374 254.74333Q57.909374 254.36833 58.034374 254.00896Q58.253124 253.43083 58.721874 252.86833Q59.20625 252.30583 60.1125 251.57146Q61.51875 250.4152 62.003124 249.74333Q62.503124 249.07146 62.503124 248.4777Q62.503124 247.8527 62.05 247.43083Q61.596874 246.99333 60.878124 246.99333Q60.1125 246.99333 59.659374 247.44646Q59.20625 247.89958 59.190624 248.71208L58.1125 248.6027Q58.221874 247.38396 58.940624 246.75896Q59.675 246.11833 60.909374 246.11833Q62.14375 246.11833 62.8625 246.80583Q63.58125 247.49333 63.58125 248.50896Q63.58125 249.02458 63.3625 249.52458Q63.159374 250.00896 62.659374 250.57146Q62.175 251.11833 61.05 252.07146Q60.096874 252.86833 59.815624 253.1652Q59.55 253.44646 59.378124 253.7277L63.596874 253.7277ZM65.05 252.49333L66.15938 252.39958Q66.28438 253.21208 66.72188 253.61833Q67.175 254.02458 67.81563 254.02458Q68.56563 254.02458 69.09688 253.44646Q69.62813 252.86833 69.62813 251.93083Q69.62813 251.02458 69.1125 250.50896Q68.6125 249.9777 67.78438 249.9777Q67.28438 249.9777 66.8625 250.21208Q66.45625 250.44646 66.22188 250.80583L65.2375 250.68083L66.06563 246.27458L70.34688 246.27458L70.34688 247.27458L66.90938 247.27458L66.45625 249.58708Q67.22188 249.0402 68.06563 249.0402Q69.19063 249.0402 69.95625 249.82146Q70.7375 250.6027 70.7375 251.83708Q70.7375 252.99333 70.06563 253.8527Q69.2375 254.88396 67.81563 254.88396Q66.64375 254.88396 65.89375 254.2277Q65.15938 253.57146 65.05 252.49333ZM72.05 250.50896Q72.05 248.9777 72.3625 248.05583Q72.675 247.11833 73.28438 246.61833Q73.90938 246.11833 74.84688 246.11833Q75.53438 246.11833 76.05 246.39958Q76.58125 246.68083 76.925 247.21208Q77.26875 247.7277 77.45625 248.4777Q77.64375 249.2277 77.64375 250.50896Q77.64375 252.02458 77.33125 252.94646Q77.03438 253.86833 76.40938 254.38396Q75.8 254.88396 74.84688 254.88396Q73.6125 254.88396 72.89375 253.99333Q72.05 252.93083 72.05 250.50896ZM73.12813 250.50896Q73.12813 252.61833 73.62813 253.32146Q74.12813 254.02458 74.84688 254.02458Q75.58125 254.02458 76.06563 253.32146Q76.56563 252.61833 76.56563 250.50896Q76.56563 248.38396 76.06563 247.69646Q75.58125 246.99333 74.83125 246.99333Q74.1125 246.99333 73.675 247.6027Q73.12813 248.38396 73.12813 250.50896Z" fill-rule="nonzero"/><path fill="#000000" d="M58.05 202.78667L59.159374 202.69292Q59.284374 203.50542 59.721874 203.91167Q60.175 204.31792 60.815624 204.31792Q61.565624 204.31792 62.096874 203.73979Q62.628124 203.16167 62.628124 202.22417Q62.628124 201.31792 62.1125 200.80229Q61.6125 200.27104 60.784374 200.27104Q60.284374 200.27104 59.8625 200.50542Q59.45625 200.73979 59.221874 201.09917L58.2375 200.97417L59.065624 196.56792L63.346874 196.56792L63.346874 197.56792L59.909374 197.56792L59.45625 199.88042Q60.221874 199.33354 61.065624 199.33354Q62.190624 199.33354 62.95625 200.11479Q63.7375 200.89604 63.7375 202.13042Q63.7375 203.28667 63.065624 204.14604Q62.2375 205.17729 60.815624 205.17729Q59.64375 205.17729 58.89375 204.52104Q58.159374 203.86479 58.05 202.78667ZM65.05 200.80229Q65.05 199.27104 65.3625 198.34917Q65.675 197.41167 66.28438 196.91167Q66.90938 196.41167 67.84688 196.41167Q68.53438 196.41167 69.05 196.69292Q69.58125 196.97417 69.925 197.50542Q70.26875 198.02104 70.45625 198.77104Q70.64375 199.52104 70.64375 200.80229Q70.64375 202.31792 70.33125 203.23979Q70.03438 204.16167 69.40938 204.67729Q68.8 205.17729 67.84688 205.17729Q66.6125 205.17729 65.89375 204.28667Q65.05 203.22417 65.05 200.80229ZM66.12813 200.80229Q66.12813 202.91167 66.62813 203.61479Q67.12813 204.31792 67.84688 204.31792Q68.58125 204.31792 69.06563 203.61479Q69.56563 202.91167 69.56563 200.80229Q69.56563 198.67729 69.06563 197.98979Q68.58125 197.28667 67.83125 197.28667Q67.1125 197.28667 66.675 197.89604Q66.12813 198.67729 66.12813 200.80229ZM72.05 200.80229Q72.05 199.27104 72.3625 198.34917Q72.675 197.41167 73.28438 196.91167Q73.90938 196.41167 74.84688 196.41167Q75.53438 196.41167 76.05 196.69292Q76.58125 196.97417 76.925 197.50542Q77.26875 198.02104 77.45625 198.77104Q77.64375 199.52104 77.64375 200.80229Q77.64375 202.31792 77.33125 203.23979Q77.03438 204.16167 76.40938 204.67729Q75.8 205.17729 74.84688 205.17729Q73.6125 205.17729 72.89375 204.28667Q72.05 203.22417 72.05 200.80229ZM73.12813 200.80229Q73.12813 202.91167 73.62813 203.61479Q74.12813 204.31792 74.84688 204.31792Q75.58125 204.31792 76.06563 203.61479Q76.56563 202.91167 76.56563 200.80229Q76.56563 198.67729 76.06563 197.98979Q75.58125 197.28667 74.83125 197.28667Q74.1125 197.28667 73.675 197.89604Q73.12813 198.67729 73.12813 200.80229Z" fill-rule="nonzero"/><path fill="#000000" d="M58.1125 147.86125L58.1125 146.84563L63.675 146.84563L63.675 147.67375Q62.8625 148.54875 62.05 150.00188Q61.253124 151.43938 60.815624 152.97063Q60.4875 154.04875 60.409374 155.33L59.315624 155.33Q59.33125 154.31438 59.70625 152.87688Q60.096874 151.43938 60.8 150.11125Q61.51875 148.78313 62.33125 147.86125L58.1125 147.86125ZM65.05 153.08L66.15938 152.98625Q66.28438 153.79875 66.72188 154.205Q67.175 154.61125 67.81563 154.61125Q68.56563 154.61125 69.09688 154.03313Q69.62813 153.455 69.62813 152.5175Q69.62813 151.61125 69.1125 151.09563Q68.6125 150.56438 67.78438 150.56438Q67.28438 150.56438 66.8625 150.79875Q66.45625 151.03313 66.22188 151.3925L65.2375 151.2675L66.06563 146.86125L70.34688 146.86125L70.34688 147.86125L66.90938 147.86125L66.45625 150.17375Q67.22188 149.62688 68.06563 149.62688Q69.19063 149.62688 69.95625 150.40813Q70.7375 151.18938 70.7375 152.42375Q70.7375 153.58 70.06563 154.43938Q69.2375 155.47063 67.81563 155.47063Q66.64375 155.47063 65.89375 154.81438Q65.15938 154.15813 65.05 153.08ZM72.05 151.09563Q72.05 149.56438 72.3625 148.6425Q72.675 147.705 73.28438 147.205Q73.90938 146.705 74.84688 146.705Q75.53438 146.705 76.05 146.98625Q76.58125 147.2675 76.925 147.79875Q77.26875 148.31438 77.45625 149.06438Q77.64375 149.81438 77.64375 151.09563Q77.64375 152.61125 77.33125 153.53313Q77.03438 154.455 76.40938 154.97063Q75.8 155.47063 74.84688 155.47063Q73.6125 155.47063 72.89375 154.58Q72.05 153.5175 72.05 151.09563ZM73.12813 151.09563Q73.12813 153.205 73.62813 153.90813Q74.12813 154.61125 74.84688 154.61125Q75.58125 154.61125 76.06563 153.90813Q76.56563 153.205 76.56563 151.09563Q76.56563 148.97063 76.06563 148.28313Q75.58125 147.58 74.83125 147.58Q74.1125 147.58 73.675 148.18938Q73.12813 148.97063 73.12813 151.09563Z" fill-rule="nonzero"/><path fill="#000000" d="M55.01875 105.62334L53.971874 105.62334L53.971874 98.90459Q53.58125 99.26396 52.95625 99.63896Q52.346874 99.99834 51.8625 100.17021L51.8625 99.15459Q52.7375 98.73271 53.39375 98.15459Q54.065624 97.56084 54.346874 96.99834L55.01875 96.99834L55.01875 105.62334ZM58.05 101.38896Q58.05 99.85771 58.3625 98.93584Q58.675 97.99834 59.284374 97.49834Q59.909374 96.99834 60.846874 96.99834Q61.534374 96.99834 62.05 97.27959Q62.58125 97.56084 62.925 98.09209Q63.26875 98.60771 63.45625 99.35771Q63.64375 100.10771 63.64375 101.38896Q63.64375 102.90459 63.33125 103.82646Q63.034374 104.74834 62.409374 105.26396Q61.8 105.76396 60.846874 105.76396Q59.6125 105.76396 58.89375 104.87334Q58.05 103.81084 58.05 101.38896ZM59.128124 101.38896Q59.128124 103.49834 59.628124 104.20146Q60.128124 104.90459 60.846874 104.90459Q61.58125 104.90459 62.065624 104.20146Q62.565624 103.49834 62.565624 101.38896Q62.565624 99.26396 62.065624 98.57646Q61.58125 97.87334 60.83125 97.87334Q60.1125 97.87334 59.675 98.48271Q59.128124 99.26396 59.128124 101.38896ZM65.05 101.38896Q65.05 99.85771 65.3625 98.93584Q65.675 97.99834 66.28438 97.49834Q66.90938 96.99834 67.84688 96.99834Q68.53438 96.99834 69.05 97.27959Q69.58125 97.56084 69.925 98.09209Q70.26875 98.60771 70.45625 99.35771Q70.64375 100.10771 70.64375 101.38896Q70.64375 102.90459 70.33125 103.82646Q70.03438 104.74834 69.40938 105.26396Q68.8 105.76396 67.84688 105.76396Q66.6125 105.76396 65.89375 104.87334Q65.05 103.81084 65.05 101.38896ZM66.12813 101.38896Q66.12813 103.49834 66.62813 104.20146Q67.12813 104.90459 67.84688 104.90459Q68.58125 104.90459 69.06563 104.20146Q69.56563 103.49834 69.56563 101.38896Q69.56563 99.26396 69.06563 98.57646Q68.58125 97.87334 67.83125 97.87334Q67.1125 97.87334 66.675 98.48271Q66.12813 99.26396 66.12813 101.38896ZM72.05 101.38896Q72.05 99.85771 72.3625 98.93584Q72.675 97.99834 73.28438 97.49834Q73.90938 96.99834 74.84688 96.99834Q75.53438 96.99834 76.05 97.27959Q76.58125 97.56084 76.925 98.09209Q77.26875 98.60771 77.45625 99.35771Q77.64375 100.10771 77.64375 101.38896Q77.64375 102.90459 77.33125 103.82646Q77.03438 104.74834 76.40938 105.26396Q75.8 105.76396 74.84688 105.76396Q73.6125 105.76396 72.89375 104.87334Q72.05 103.81084 72.05 101.38896ZM73.12813 101.38896Q73.12813 103.49834 73.62813 104.20146Q74.12813 104.90459 74.84688 104.90459Q75.58125 104.90459 76.06563 104.20146Q76.56563 103.49834 76.56563 101.38896Q76.56563 99.26396 76.06563 98.57646Q75.58125 97.87334 74.83125 97.87334Q74.1125 97.87334 73.675 98.48271Q73.12813 99.26396 73.12813 101.38896Z" fill-rule="nonzero"/><path fill="#000000" d="M55.01875 55.916668L53.971874 55.916668L53.971874 49.197918Q53.58125 49.557293 52.95625 49.932293Q52.346874 50.291668 51.8625 50.463543L51.8625 49.447918Q52.7375 49.026043 53.39375 48.447918Q54.065624 47.854168 54.346874 47.291668L55.01875 47.291668L55.01875 55.916668ZM63.596874 54.901043L63.596874 55.916668L57.909374 55.916668Q57.909374 55.541668 58.034374 55.182293Q58.253124 54.604168 58.721874 54.041668Q59.20625 53.479168 60.1125 52.744793Q61.51875 51.588543 62.003124 50.916668Q62.503124 50.244793 62.503124 49.651043Q62.503124 49.026043 62.05 48.604168Q61.596874 48.166668 60.878124 48.166668Q60.1125 48.166668 59.659374 48.619793Q59.20625 49.072918 59.190624 49.885418L58.1125 49.776043Q58.221874 48.557293 58.940624 47.932293Q59.675 47.291668 60.909374 47.291668Q62.14375 47.291668 62.8625 47.979168Q63.58125 48.666668 63.58125 49.682293Q63.58125 50.197918 63.3625 50.697918Q63.159374 51.182293 62.659374 51.744793Q62.175 52.291668 61.05 53.244793Q60.096874 54.041668 59.815624 54.338543Q59.55 54.619793 59.378124 54.901043L63.596874 54.901043ZM65.05 53.666668L66.15938 53.572918Q66.28438 54.385418 66.72188 54.791668Q67.175 55.197918 67.81563 55.197918Q68.56563 55.197918 69.09688 54.619793Q69.62813 54.041668 69.62813 53.104168Q69.62813 52.197918 69.1125 51.682293Q68.6125 51.151043 67.78438 51.151043Q67.28438 51.151043 66.8625 51.385418Q66.45625 51.619793 66.22188 51.979168L65.2375 51.854168L66.06563 47.447918L70.34688 47.447918L70.34688 48.447918L66.90938 48.447918L66.45625 50.760418Q67.22188 50.213543 68.06563 50.213543Q69.19063 50.213543 69.95625 50.994793Q70.7375 51.776043 70.7375 53.010418Q70.7375 54.166668 70.06563 55.026043Q69.2375 56.057293 67.81563 56.057293Q66.64375 56.057293 65.89375 55.401043Q65.15938 54.744793 65.05 53.666668ZM72.05 51.682293Q72.05 50.151043 72.3625 49.229168Q72.675 48.291668 73.28438 47.791668Q73.90938 47.291668 74.84688 47.291668Q75.53438 47.291668 76.05 47.572918Q76.58125 47.854168 76.925 48.385418Q77.26875 48.901043 77.45625 49.651043Q77.64375 50.401043 77.64375 51.682293Q77.64375 53.197918 77.33125 54.119793Q77.03438 55.041668 76.40938 55.557293Q75.8 56.057293 74.84688 56.057293Q73.6125 56.057293 72.89375 55.166668Q72.05 54.104168 72.05 51.682293ZM73.12813 51.682293Q73.12813 53.791668 73.62813 54.494793Q74.12813 55.197918 74.84688 55.197918Q75.58125 55.197918 76.06563 54.494793Q76.56563 53.791668 76.56563 51.682293Q76.56563 49.557293 76.06563 48.869793Q75.58125 48.166668 74.83125 48.166668Q74.1125 48.166668 73.675 48.776043Q73.12813 49.557293 73.12813 51.682293Z" fill-rule="nonzero"/><path fill="#000000" d="M147.49615 315.2L148.60553 315.10626Q148.73053 315.91876 149.16803 316.325Q149.62115 316.73126 150.26178 316.73126Q151.01178 316.73126 151.54303 316.15314Q152.07428 315.575 152.07428 314.6375Q152.07428 313.73126 151.55865 313.21564Q151.05865 312.6844 150.23053 312.6844Q149.73053 312.6844 149.30865 312.91876Q148.9024 313.15314 148.66803 313.5125L147.68365 313.3875L148.51178 308.98126L152.79303 308.98126L152.79303 309.98126L149.35553 309.98126L148.9024 312.29376Q149.66803 311.7469 150.51178 311.7469Q151.63678 311.7469 152.4024 312.52814Q153.18365 313.3094 153.18365 314.54376Q153.18365 315.7 152.51178 316.5594Q151.68365 317.59064 150.26178 317.59064Q149.0899 317.59064 148.3399 316.9344Q147.60553 316.27814 147.49615 315.2ZM154.49615 313.21564Q154.49615 311.6844 154.80865 310.7625Q155.12115 309.825 155.73053 309.325Q156.35553 308.825 157.29303 308.825Q157.98053 308.825 158.49615 309.10626Q159.0274 309.3875 159.37115 309.91876Q159.7149 310.4344 159.9024 311.1844Q160.0899 311.9344 160.0899 313.21564Q160.0899 314.73126 159.7774 315.65314Q159.48053 316.575 158.85553 317.09064Q158.24615 317.59064 157.29303 317.59064Q156.05865 317.59064 155.3399 316.7Q154.49615 315.6375 154.49615 313.21564ZM155.57428 313.21564Q155.57428 315.325 156.07428 316.02814Q156.57428 316.73126 157.29303 316.73126Q158.0274 316.73126 158.51178 316.02814Q159.01178 315.325 159.01178 313.21564Q159.01178 311.09064 158.51178 310.40314Q158.0274 309.7 157.2774 309.7Q156.55865 309.7 156.12115 310.3094Q155.57428 311.09064 155.57428 313.21564ZM161.49615 313.21564Q161.49615 311.6844 161.80865 310.7625Q162.12115 309.825 162.73053 309.325Q163.35553 308.825 164.29303 308.825Q164.98053 308.825 165.49615 309.10626Q166.0274 309.3875 166.37115 309.91876Q166.7149 310.4344 166.9024 311.1844Q167.0899 311.9344 167.0899 313.21564Q167.0899 314.73126 166.7774 315.65314Q166.48053 316.575 165.85553 317.09064Q165.24615 317.59064 164.29303 317.59064Q163.05865 317.59064 162.3399 316.7Q161.49615 315.6375 161.49615 313.21564ZM162.57428 313.21564Q162.57428 315.325 163.07428 316.02814Q163.57428 316.73126 164.29303 316.73126Q165.0274 316.73126 165.51178 316.02814Q166.01178 315.325 166.01178 313.21564Q166.01178 311.09064 165.51178 310.40314Q165.0274 309.7 164.2774 309.7Q163.55865 309.7 163.12115 310.3094Q162.57428 311.09064 162.57428 313.21564ZM168.49615 313.21564Q168.49615 311.6844 168.80865 310.7625Q169.12115 309.825 169.73053 309.325Q170.35553 308.825 171.29303 308.825Q171.98053 308.825 172.49615 309.10626Q173.0274 309.3875 173.37115 309.91876Q173.7149 310.4344 173.9024 311.1844Q174.0899 311.9344 174.0899 313.21564Q174.0899 314.73126 173.7774 315.65314Q173.48053 316.575 172.85553 317.09064Q172.24615 317.59064 171.29303 317.59064Q170.05865 317.59064 169.3399 316.7Q168.49615 315.6375 168.49615 313.21564ZM169.57428 313.21564Q169.57428 315.325 170.07428 316.02814Q170.57428 316.73126 171.29303 316.73126Q172.0274 316.73126 172.51178 316.02814Q173.01178 315.325 173.01178 313.21564Q173.01178 311.09064 172.51178 310.40314Q172.0274 309.7 171.2774 309.7Q170.55865 309.7 170.12115 310.3094Q169.57428 311.09064 169.57428 313.21564Z" fill-rule="nonzero"/><path fill="#000000" d="M243.5226 317.45L242.47572 317.45L242.47572 310.73126Q242.0851 311.09064 241.4601 311.46564Q240.85072 311.825 240.36635 311.9969L240.36635 310.98126Q241.24135 310.5594 241.8976 309.98126Q242.56947 309.3875 242.85072 308.825L243.5226 308.825L243.5226 317.45ZM246.55385 313.21564Q246.55385 311.6844 246.86635 310.7625Q247.17885 309.825 247.78822 309.325Q248.41322 308.825 249.35072 308.825Q250.03822 308.825 250.55385 309.10626Q251.0851 309.3875 251.42885 309.91876Q251.7726 310.4344 251.9601 311.1844Q252.1476 311.9344 252.1476 313.21564Q252.1476 314.73126 251.8351 315.65314Q251.53822 316.575 250.91322 317.09064Q250.30385 317.59064 249.35072 317.59064Q248.11635 317.59064 247.3976 316.7Q246.55385 315.6375 246.55385 313.21564ZM247.63197 313.21564Q247.63197 315.325 248.13197 316.02814Q248.63197 316.73126 249.35072 316.73126Q250.0851 316.73126 250.56947 316.02814Q251.06947 315.325 251.06947 313.21564Q251.06947 311.09064 250.56947 310.40314Q250.0851 309.7 249.3351 309.7Q248.61635 309.7 248.17885 310.3094Q247.63197 311.09064 247.63197 313.21564ZM253.55385 313.21564Q253.55385 311.6844 253.86635 310.7625Q254.17885 309.825 254.78822 309.325Q255.41322 308.825 256.3507 308.825Q257.0382 308.825 257.55383 309.10626Q258.08508 309.3875 258.42883 309.91876Q258.77258 310.4344 258.96008 311.1844Q259.14758 311.9344 259.14758 313.21564Q259.14758 314.73126 258.83508 315.65314Q258.5382 316.575 257.9132 317.09064Q257.30383 317.59064 256.3507 317.59064Q255.11635 317.59064 254.3976 316.7Q253.55385 315.6375 253.55385 313.21564ZM254.63197 313.21564Q254.63197 315.325 255.13197 316.02814Q255.63197 316.73126 256.3507 316.73126Q257.08508 316.73126 257.56946 316.02814Q258.06946 315.325 258.06946 313.21564Q258.06946 311.09064 257.56946 310.40314Q257.08508 309.7 256.33508 309.7Q255.61635 309.7 255.17885 310.3094Q254.63197 311.09064 254.63197 313.21564ZM260.55383 313.21564Q260.55383 311.6844 260.86633 310.7625Q261.17883 309.825 261.7882 309.325Q262.4132 308.825 263.3507 308.825Q264.0382 308.825 264.55383 309.10626Q265.08508 309.3875 265.42883 309.91876Q265.77258 310.4344 265.96008 311.1844Q266.14758 311.9344 266.14758 313.21564Q266.14758 314.73126 265.83508 315.65314Q265.5382 316.575 264.9132 317.09064Q264.30383 317.59064 263.3507 317.59064Q262.11633 317.59064 261.39758 316.7Q260.55383 315.6375 260.55383 313.21564ZM261.63196 313.21564Q261.63196 315.325 262.13196 316.02814Q262.63196 316.73126 263.3507 316.73126Q264.08508 316.73126 264.56946 316.02814Q265.06946 315.325 265.06946 313.21564Q265.06946 311.09064 264.56946 310.40314Q264.08508 309.7 263.33508 309.7Q262.61633 309.7 262.17883 310.3094Q261.63196 311.09064 261.63196 313.21564ZM267.55383 313.21564Q267.55383 311.6844 267.86633 310.7625Q268.17883 309.825 268.7882 309.325Q269.4132 308.825 270.3507 308.825Q271.0382 308.825 271.55383 309.10626Q272.08508 309.3875 272.42883 309.91876Q272.77258 310.4344 272.96008 311.1844Q273.14758 311.9344 273.14758 313.21564Q273.14758 314.73126 272.83508 315.65314Q272.5382 316.575 271.9132 317.09064Q271.30383 317.59064 270.3507 317.59064Q269.11633 317.59064 268.39758 316.7Q267.55383 315.6375 267.55383 313.21564ZM268.63196 313.21564Q268.63196 315.325 269.13196 316.02814Q269.63196 316.73126 270.3507 316.73126Q271.08508 316.73126 271.56946 316.02814Q272.06946 315.325 272.06946 313.21564Q272.06946 311.09064 271.56946 310.40314Q271.08508 309.7 270.33508 309.7Q269.61633 309.7 269.17883 310.3094Q268.63196 311.09064 268.63196 313.21564Z" fill-rule="nonzero"/><path fill="#000000" d="M339.0803 317.45L338.03342 317.45L338.03342 310.73126Q337.6428 311.09064 337.0178 311.46564Q336.40842 311.825 335.92404 311.9969L335.92404 310.98126Q336.79904 310.5594 337.4553 309.98126Q338.12717 309.3875 338.40842 308.825L339.0803 308.825L339.0803 317.45ZM342.11154 315.2L343.22092 315.10626Q343.34592 315.91876 343.78342 316.325Q344.23654 316.73126 344.87717 316.73126Q345.62717 316.73126 346.15842 316.15314Q346.68967 315.575 346.68967 314.6375Q346.68967 313.73126 346.17404 313.21564Q345.67404 312.6844 344.84592 312.6844Q344.34592 312.6844 343.92404 312.91876Q343.5178 313.15314 343.28342 313.5125L342.29904 313.3875L343.12717 308.98126L347.40842 308.98126L347.40842 309.98126L343.97092 309.98126L343.5178 312.29376Q344.28342 311.7469 345.12717 311.7469Q346.25217 311.7469 347.0178 312.52814Q347.79904 313.3094 347.79904 314.54376Q347.79904 315.7 347.12717 316.5594Q346.29904 317.59064 344.87717 317.59064Q343.7053 317.59064 342.9553 316.9344Q342.22092 316.27814 342.11154 315.2ZM349.11154 313.21564Q349.11154 311.6844 349.42404 310.7625Q349.73654 309.825 350.34592 309.325Q350.97092 308.825 351.90842 308.825Q352.59592 308.825 353.11154 309.10626Q353.6428 309.3875 353.98654 309.91876Q354.3303 310.4344 354.5178 311.1844Q354.7053 311.9344 354.7053 313.21564Q354.7053 314.73126 354.3928 315.65314Q354.09592 316.575 353.47092 317.09064Q352.86154 317.59064 351.90842 317.59064Q350.67404 317.59064 349.9553 316.7Q349.11154 315.6375 349.11154 313.21564ZM350.18967 313.21564Q350.18967 315.325 350.68967 316.02814Q351.18967 316.73126 351.90842 316.73126Q352.6428 316.73126 353.12717 316.02814Q353.62717 315.325 353.62717 313.21564Q353.62717 311.09064 353.12717 310.40314Q352.6428 309.7 351.8928 309.7Q351.17404 309.7 350.73654 310.3094Q350.18967 311.09064 350.18967 313.21564ZM356.11154 313.21564Q356.11154 311.6844 356.42404 310.7625Q356.73654 309.825 357.34592 309.325Q357.97092 308.825 358.90842 308.825Q359.59592 308.825 360.11154 309.10626Q360.6428 309.3875 360.98654 309.91876Q361.3303 310.4344 361.5178 311.1844Q361.7053 311.9344 361.7053 313.21564Q361.7053 314.73126 361.3928 315.65314Q361.09592 316.575 360.47092 317.09064Q359.86154 317.59064 358.90842 317.59064Q357.67404 317.59064 356.9553 316.7Q356.11154 315.6375 356.11154 313.21564ZM357.18967 313.21564Q357.18967 315.325 357.68967 316.02814Q358.18967 316.73126 358.90842 316.73126Q359.6428 316.73126 360.12717 316.02814Q360.62717 315.325 360.62717 313.21564Q360.62717 311.09064 360.12717 310.40314Q359.6428 309.7 358.8928 309.7Q358.17404 309.7 357.73654 310.3094Q357.18967 311.09064 357.18967 313.21564ZM363.11154 313.21564Q363.11154 311.6844 363.42404 310.7625Q363.73654 309.825 364.34592 309.325Q364.97092 308.825 365.90842 308.825Q366.59592 308.825 367.11154 309.10626Q367.6428 309.3875 367.98654 309.91876Q368.3303 310.4344 368.5178 311.1844Q368.7053 311.9344 368.7053 313.21564Q368.7053 314.73126 368.3928 315.65314Q368.09592 316.575 367.47092 317.09064Q366.86154 317.59064 365.90842 317.59064Q364.67404 317.59064 363.9553 316.7Q363.11154 315.6375 363.11154 313.21564ZM364.18967 313.21564Q364.18967 315.325 364.68967 316.02814Q365.18967 316.73126 365.90842 316.73126Q366.6428 316.73126 367.12717 316.02814Q367.62717 315.325 367.62717 313.21564Q367.62717 311.09064 367.12717 310.40314Q366.6428 309.7 365.8928 309.7Q365.17404 309.7 364.73654 310.3094Q364.18967 311.09064 364.18967 313.21564Z" fill-rule="nonzero"/><path fill="#000000" d="M436.2161 316.4344L436.2161 317.45L430.5286 317.45Q430.5286 317.075 430.6536 316.71564Q430.87234 316.1375 431.3411 315.575Q431.82547 315.0125 432.73172 314.27814Q434.13797 313.1219 434.62234 312.45Q435.12234 311.77814 435.12234 311.1844Q435.12234 310.5594 434.66922 310.1375Q434.2161 309.7 433.49734 309.7Q432.73172 309.7 432.2786 310.15314Q431.82547 310.60626 431.80984 311.41876L430.73172 311.3094Q430.8411 310.09064 431.55984 309.46564Q432.29422 308.825 433.5286 308.825Q434.76297 308.825 435.48172 309.5125Q436.20047 310.2 436.20047 311.21564Q436.20047 311.73126 435.98172 312.23126Q435.7786 312.71564 435.2786 313.27814Q434.79422 313.825 433.66922 314.77814Q432.7161 315.575 432.43484 315.8719Q432.16922 316.15314 431.99734 316.4344L436.2161 316.4344ZM437.66922 313.21564Q437.66922 311.6844 437.98172 310.7625Q438.29422 309.825 438.9036 309.325Q439.5286 308.825 440.4661 308.825Q441.1536 308.825 441.66922 309.10626Q442.20047 309.3875 442.54422 309.91876Q442.88797 310.4344 443.07547 311.1844Q443.26297 311.9344 443.26297 313.21564Q443.26297 314.73126 442.95047 315.65314Q442.6536 316.575 442.0286 317.09064Q441.41922 317.59064 440.4661 317.59064Q439.23172 317.59064 438.51297 316.7Q437.66922 315.6375 437.66922 313.21564ZM438.74734 313.21564Q438.74734 315.325 439.24734 316.02814Q439.74734 316.73126 440.4661 316.73126Q441.20047 316.73126 441.68484 316.02814Q442.18484 315.325 442.18484 313.21564Q442.18484 311.09064 441.68484 310.40314Q441.20047 309.7 440.45047 309.7Q439.73172 309.7 439.29422 310.3094Q438.74734 311.09064 438.74734 313.21564ZM444.66922 313.21564Q444.66922 311.6844 444.98172 310.7625Q445.29422 309.825 445.9036 309.325Q446.5286 308.825 447.4661 308.825Q448.1536 308.825 448.66922 309.10626Q449.20047 309.3875 449.54422 309.91876Q449.88797 310.4344 450.07547 311.1844Q450.26297 311.9344 450.26297 313.21564Q450.26297 314.73126 449.95047 315.65314Q449.6536 316.575 449.0286 317.09064Q448.41922 317.59064 447.4661 317.59064Q446.23172 317.59064 445.51297 316.7Q444.66922 315.6375 444.66922 313.21564ZM445.74734 313.21564Q445.74734 315.325 446.24734 316.02814Q446.74734 316.73126 447.4661 316.73126Q448.20047 316.73126 448.68484 316.02814Q449.18484 315.325 449.18484 313.21564Q449.18484 311.09064 448.68484 310.40314Q448.20047 309.7 447.45047 309.7Q446.73172 309.7 446.29422 310.3094Q445.74734 311.09064 445.74734 313.21564ZM451.66922 313.21564Q451.66922 311.6844 451.98172 310.7625Q452.29422 309.825 452.9036 309.325Q453.5286 308.825 454.4661 308.825Q455.1536 308.825 455.66922 309.10626Q456.20047 309.3875 456.54422 309.91876Q456.88797 310.4344 457.07547 311.1844Q457.26297 311.9344 457.26297 313.21564Q457.26297 314.73126 456.95047 315.65314Q456.6536 316.575 456.0286 317.09064Q455.41922 317.59064 454.4661 317.59064Q453.23172 317.59064 452.51297 316.7Q451.66922 315.6375 451.66922 313.21564ZM452.74734 313.21564Q452.74734 315.325 453.24734 316.02814Q453.74734 316.73126 454.4661 316.73126Q455.20047 316.73126 455.68484 316.02814Q456.18484 315.325 456.18484 313.21564Q456.18484 311.09064 455.68484 310.40314Q455.20047 309.7 454.45047 309.7Q453.73172 309.7 453.29422 310.3094Q452.74734 311.09064 452.74734 313.21564ZM458.66922 313.21564Q458.66922 311.6844 458.98172 310.7625Q459.29422 309.825 459.9036 309.325Q460.5286 308.825 461.4661 308.825Q462.1536 308.825 462.66922 309.10626Q463.20047 309.3875 463.54422 309.91876Q463.88797 310.4344 464.07547 311.1844Q464.26297 311.9344 464.26297 313.21564Q464.26297 314.73126 463.95047 315.65314Q463.6536 316.575 463.0286 317.09064Q462.41922 317.59064 461.4661 317.59064Q460.23172 317.59064 459.51297 316.7Q458.66922 315.6375 458.66922 313.21564ZM459.74734 313.21564Q459.74734 315.325 460.24734 316.02814Q460.74734 316.73126 461.4661 316.73126Q462.20047 316.73126 462.68484 316.02814Q463.18484 315.325 463.18484 313.21564Q463.18484 311.09064 462.68484 310.40314Q462.20047 309.7 461.45047 309.7Q460.73172 309.7 460.29422 310.3094Q459.74734 311.09064 459.74734 313.21564Z" fill-rule="nonzero"/><path fill="#000000" d="M531.7738 316.4344L531.7738 317.45L526.0863 317.45Q526.0863 317.075 526.2113 316.71564Q526.43005 316.1375 526.8988 315.575Q527.3832 315.0125 528.2894 314.27814Q529.6957 313.1219 530.18005 312.45Q530.68005 311.77814 530.68005 311.1844Q530.68005 310.5594 530.2269 310.1375Q529.7738 309.7 529.05505 309.7Q528.2894 309.7 527.8363 310.15314Q527.3832 310.60626 527.36755 311.41876L526.2894 311.3094Q526.3988 310.09064 527.11755 309.46564Q527.8519 308.825 529.0863 308.825Q530.3207 308.825 531.0394 309.5125Q531.7582 310.2 531.7582 311.21564Q531.7582 311.73126 531.5394 312.23126Q531.3363 312.71564 530.8363 313.27814Q530.3519 313.825 529.2269 314.77814Q528.2738 315.575 527.99255 315.8719Q527.7269 316.15314 527.55505 316.4344L531.7738 316.4344ZM533.2269 315.2L534.3363 315.10626Q534.4613 315.91876 534.8988 316.325Q535.3519 316.73126 535.99255 316.73126Q536.74255 316.73126 537.2738 316.15314Q537.80505 315.575 537.80505 314.6375Q537.80505 313.73126 537.2894 313.21564Q536.7894 312.6844 535.9613 312.6844Q535.4613 312.6844 535.0394 312.91876Q534.6332 313.15314 534.3988 313.5125L533.4144 313.3875L534.24255 308.98126L538.5238 308.98126L538.5238 309.98126L535.0863 309.98126L534.6332 312.29376Q535.3988 311.7469 536.24255 311.7469Q537.36755 311.7469 538.1332 312.52814Q538.9144 313.3094 538.9144 314.54376Q538.9144 315.7 538.24255 316.5594Q537.4144 317.59064 535.99255 317.59064Q534.8207 317.59064 534.0707 316.9344Q533.3363 316.27814 533.2269 315.2ZM540.2269 313.21564Q540.2269 311.6844 540.5394 310.7625Q540.8519 309.825 541.4613 309.325Q542.0863 308.825 543.0238 308.825Q543.7113 308.825 544.2269 309.10626Q544.7582 309.3875 545.1019 309.91876Q545.4457 310.4344 545.6332 311.1844Q545.8207 311.9344 545.8207 313.21564Q545.8207 314.73126 545.5082 315.65314Q545.2113 316.575 544.5863 317.09064Q543.9769 317.59064 543.0238 317.59064Q541.7894 317.59064 541.0707 316.7Q540.2269 315.6375 540.2269 313.21564ZM541.30505 313.21564Q541.30505 315.325 541.80505 316.02814Q542.30505 316.73126 543.0238 316.73126Q543.7582 316.73126 544.24255 316.02814Q544.74255 315.325 544.74255 313.21564Q544.74255 311.09064 544.24255 310.40314Q543.7582 309.7 543.0082 309.7Q542.2894 309.7 541.8519 310.3094Q541.30505 311.09064 541.30505 313.21564ZM547.2269 313.21564Q547.2269 311.6844 547.5394 310.7625Q547.8519 309.825 548.4613 309.325Q549.0863 308.825 550.0238 308.825Q550.7113 308.825 551.2269 309.10626Q551.7582 309.3875 552.1019 309.91876Q552.4457 310.4344 552.6332 311.1844Q552.8207 311.9344 552.8207 313.21564Q552.8207 314.73126 552.5082 315.65314Q552.2113 316.575 551.5863 317.09064Q550.9769 317.59064 550.0238 317.59064Q548.7894 317.59064 548.0707 316.7Q547.2269 315.6375 547.2269 313.21564ZM548.30505 313.21564Q548.30505 315.325 548.80505 316.02814Q549.30505 316.73126 550.0238 316.73126Q550.7582 316.73126 551.24255 316.02814Q551.74255 315.325 551.74255 313.21564Q551.74255 311.09064 551.24255 310.40314Q550.7582 309.7 550.0082 309.7Q549.2894 309.7 548.8519 310.3094Q548.30505 311.09064 548.30505 313.21564ZM554.2269 313.21564Q554.2269 311.6844 554.5394 310.7625Q554.8519 309.825 555.4613 309.325Q556.0863 308.825 557.0238 308.825Q557.7113 308.825 558.2269 309.10626Q558.7582 309.3875 559.1019 309.91876Q559.4457 310.4344 559.6332 311.1844Q559.8207 311.9344 559.8207 313.21564Q559.8207 314.73126 559.5082 315.65314Q559.2113 316.575 558.5863 317.09064Q557.9769 317.59064 557.0238 317.59064Q555.7894 317.59064 555.0707 316.7Q554.2269 315.6375 554.2269 313.21564ZM555.30505 313.21564Q555.30505 315.325 555.80505 316.02814Q556.30505 316.73126 557.0238 316.73126Q557.7582 316.73126 558.24255 316.02814Q558.74255 315.325 558.74255 313.21564Q558.74255 311.09064 558.24255 310.40314Q557.7582 309.7 557.0082 309.7Q556.2894 309.7 555.8519 310.3094Q555.30505 311.09064 555.30505 313.21564Z" fill-rule="nonzero"/><path stroke="#4285f4" stroke-width="4.0" stroke-linecap="butt" d="M222.0 25.55L234.0 25.55" fill-rule="nonzero"/><path fill="#1a1a1a" d="M243.125 29.55L243.125 20.95625L244.25 20.95625L244.25 29.55L243.125 29.55ZM248.09375 28.6125L248.25 29.534374Q247.79688 29.628124 247.45312 29.628124Q246.875 29.628124 246.5625 29.45625Q246.25 29.26875 246.10938 28.971874Q245.98438 28.675 245.98438 27.721874L245.98438 24.14375L245.21875 24.14375L245.21875 23.33125L245.98438 23.33125L245.98438 21.784374L247.03125 21.159374L247.03125 23.33125L248.09375 23.33125L248.09375 24.14375L247.03125 24.14375L247.03125 27.784374Q247.03125 28.2375 247.07812 28.3625Q247.14062 28.4875 247.26562 28.565624Q247.39062 28.64375 247.625 28.64375Q247.8125 28.64375 248.09375 28.6125ZM253.04688 27.55L254.14062 27.675Q253.89062 28.628124 253.1875 29.159374Q252.48438 29.690624 251.40625 29.690624Q250.04688 29.690624 249.23438 28.846874Q248.4375 28.003124 248.4375 26.4875Q248.4375 24.925 249.25 24.065624Q250.0625 23.190624 251.34375 23.190624Q252.59375 23.190624 253.375 24.034374Q254.17188 24.878124 254.17188 26.425Q254.17188 26.51875 254.17188 26.70625L249.53125 26.70625Q249.59375 27.7375 250.10938 28.284374Q250.625 28.815624 251.40625 28.815624Q251.98438 28.815624 252.39062 28.51875Q252.8125 28.20625 253.04688 27.55ZM249.59375 25.846874L253.0625 25.846874Q253.0 25.05 252.67188 24.659374Q252.15625 24.05 251.35938 24.05Q250.625 24.05 250.125 24.534374Q249.64062 25.01875 249.59375 25.846874ZM255.78125 29.55L255.78125 23.33125L256.73438 23.33125L256.73438 24.26875Q257.09375 23.6125 257.39062 23.409374Q257.70312 23.190624 258.07812 23.190624Q258.60938 23.190624 259.15625 23.51875L258.79688 24.503124Q258.40625 24.26875 258.03125 24.26875Q257.67188 24.26875 257.39062 24.4875Q257.125 24.690624 257.01562 25.065624Q256.82812 25.628124 256.82812 26.284374L256.82812 29.55L255.78125 29.55ZM263.85938 28.784374Q263.26562 29.284374 262.71875 29.4875Q262.1875 29.690624 261.5625 29.690624Q260.53125 29.690624 259.98438 29.190624Q259.4375 28.690624 259.4375 27.909374Q259.4375 27.45625 259.64062 27.08125Q259.84375 26.690624 260.1875 26.471874Q260.53125 26.2375 260.95312 26.128124Q261.25 26.034374 261.89062 25.95625Q263.15625 25.815624 263.76562 25.596874Q263.76562 25.378124 263.76562 25.33125Q263.76562 24.675 263.46875 24.409374Q263.0625 24.065624 262.26562 24.065624Q261.53125 24.065624 261.17188 24.33125Q260.8125 24.58125 260.64062 25.2375L259.60938 25.096874Q259.75 24.440624 260.07812 24.034374Q260.40625 23.628124 261.01562 23.409374Q261.625 23.190624 262.42188 23.190624Q263.21875 23.190624 263.71875 23.378124Q264.21875 23.565624 264.45312 23.846874Q264.6875 24.128124 264.78125 24.565624Q264.82812 24.83125 264.82812 25.534374L264.82812 26.940624Q264.82812 28.409374 264.89062 28.8Q264.96875 29.190624 265.17188 29.55L264.0625 29.55Q263.90625 29.221874 263.85938 28.784374ZM263.76562 26.425Q263.1875 26.659374 262.04688 26.83125Q261.39062 26.925 261.125 27.05Q260.85938 27.159374 260.70312 27.378124Q260.5625 27.596874 260.5625 27.878124Q260.5625 28.3 260.875 28.58125Q261.20312 28.8625 261.8125 28.8625Q262.42188 28.8625 262.89062 28.596874Q263.375 28.33125 263.59375 27.8625Q263.76562 27.503124 263.76562 26.815624L263.76562 26.425ZM269.09375 28.6125L269.25 29.534374Q268.79688 29.628124 268.45312 29.628124Q267.875 29.628124 267.5625 29.45625Q267.25 29.26875 267.10938 28.971874Q266.98438 28.675 266.98438 27.721874L266.98438 24.14375L266.21875 24.14375L266.21875 23.33125L266.98438 23.33125L266.98438 21.784374L268.03125 21.159374L268.03125 23.33125L269.09375 23.33125L269.09375 24.14375L268.03125 24.14375L268.03125 27.784374Q268.03125 28.2375 268.07812 28.3625Q268.14062 28.4875 268.26562 28.565624Q268.39062 28.64375 268.625 28.64375Q268.8125 28.64375 269.09375 28.6125ZM269.79688 22.175L269.79688 20.95625L270.85938 20.95625L270.85938 22.175L269.79688 22.175ZM269.79688 29.55L269.79688 23.33125L270.85938 23.33125L270.85938 29.55L269.79688 29.55ZM274.51562 29.55L272.15625 23.33125L273.26562 23.33125L274.60938 27.05Q274.8125 27.659374 275.0 28.3Q275.14062 27.815624 275.39062 27.128124L276.78125 23.33125L277.85938 23.33125L275.5 29.55L274.51562 29.55ZM283.04688 27.55L284.14062 27.675Q283.89062 28.628124 283.1875 29.159374Q282.48438 29.690624 281.40625 29.690624Q280.04688 29.690624 279.23438 28.846874Q278.4375 28.003124 278.4375 26.4875Q278.4375 24.925 279.25 24.065624Q280.0625 23.190624 281.34375 23.190624Q282.59375 23.190624 283.375 24.034374Q284.17188 24.878124 284.17188 26.425Q284.17188 26.51875 284.17188 26.70625L279.53125 26.70625Q279.59375 27.7375 280.10938 28.284374Q280.625 28.815624 281.40625 28.815624Q281.98438 28.815624 282.39062 28.51875Q282.8125 28.20625 283.04688 27.55ZM279.59375 25.846874L283.0625 25.846874Q283.0 25.05 282.67188 24.659374Q282.15625 24.05 281.35938 24.05Q280.625 24.05 280.125 24.534374Q279.64062 25.01875 279.59375 25.846874Z" fill-rule="nonzero"/><path stroke="#ea4335" stroke-width="4.0" stroke-linecap="butt" d="M301.0 25.55L313.0 25.55" fill-rule="nonzero"/><path fill="#1a1a1a" d="M328.0625 26.534374L329.1875 26.83125Q328.82812 28.221874 327.90625 28.95625Q326.98438 29.690624 325.64062 29.690624Q324.25 29.690624 323.375 29.128124Q322.5 28.565624 322.04688 27.503124Q321.59375 26.425 321.59375 25.190624Q321.59375 23.846874 322.10938 22.846874Q322.625 21.846874 323.5625 21.33125Q324.51562 20.815624 325.65625 20.815624Q326.9375 20.815624 327.8125 21.471874Q328.70312 22.128124 329.04688 23.315624L327.92188 23.58125Q327.625 22.64375 327.04688 22.221874Q326.48438 21.784374 325.625 21.784374Q324.64062 21.784374 323.96875 22.26875Q323.3125 22.7375 323.03125 23.534374Q322.76562 24.33125 322.76562 25.190624Q322.76562 26.284374 323.07812 27.096874Q323.40625 27.909374 324.07812 28.315624Q324.75 28.721874 325.54688 28.721874Q326.5 28.721874 327.15625 28.175Q327.82812 27.628124 328.0625 26.534374ZM330.40625 26.440624Q330.40625 24.70625 331.35938 23.878124Q332.15625 23.190624 333.3125 23.190624Q334.59375 23.190624 335.40625 24.034374Q336.23438 24.8625 336.23438 26.346874Q336.23438 27.55 335.875 28.2375Q335.51562 28.925 334.8125 29.315624Q334.125 29.690624 333.3125 29.690624Q332.01562 29.690624 331.20312 28.8625Q330.40625 28.01875 330.40625 26.440624ZM331.48438 26.440624Q331.48438 27.628124 332.0 28.221874Q332.53125 28.815624 333.3125 28.815624Q334.10938 28.815624 334.625 28.221874Q335.14062 27.628124 335.14062 26.409374Q335.14062 25.253124 334.60938 24.659374Q334.09375 24.065624 333.3125 24.065624Q332.53125 24.065624 332.0 24.659374Q331.48438 25.2375 331.48438 26.440624ZM337.79688 29.55L337.79688 23.33125L338.73438 23.33125L338.73438 24.20625Q339.03125 23.7375 339.51562 23.471874Q340.0 23.190624 340.625 23.190624Q341.3125 23.190624 341.75 23.471874Q342.20312 23.753124 342.375 24.26875Q343.125 23.190624 344.29688 23.190624Q345.23438 23.190624 345.71875 23.70625Q346.21875 24.20625 346.21875 25.284374L346.21875 29.55L345.17188 29.55L345.17188 25.628124Q345.17188 25.003124 345.0625 24.721874Q344.96875 24.440624 344.70312 24.26875Q344.4375 24.096874 344.0625 24.096874Q343.40625 24.096874 342.96875 24.534374Q342.54688 24.971874 342.54688 25.940624L342.54688 29.55L341.48438 29.55L341.48438 25.503124Q341.48438 24.8 341.21875 24.45625Q340.96875 24.096874 340.39062 24.096874Q339.9375 24.096874 339.5625 24.33125Q339.1875 24.565624 339.01562 25.01875Q338.84375 25.471874 338.84375 26.315624L338.84375 29.55L337.79688 29.55ZM348.76562 29.55L347.78125 29.55L347.78125 20.95625L348.84375 20.95625L348.84375 24.01875Q349.51562 23.190624 350.54688 23.190624Q351.125 23.190624 351.625 23.425Q352.14062 23.64375 352.46875 24.065624Q352.8125 24.4875 353.0 25.08125Q353.1875 25.675 353.1875 26.346874Q353.1875 27.940624 352.39062 28.815624Q351.59375 29.690624 350.5 29.690624Q349.39062 29.690624 348.76562 28.76875L348.76562 29.55ZM348.75 26.39375Q348.75 27.503124 349.0625 28.003124Q349.5625 28.815624 350.40625 28.815624Q351.09375 28.815624 351.59375 28.221874Q352.10938 27.628124 352.10938 26.425Q352.10938 25.20625 351.625 24.628124Q351.14062 24.05 350.45312 24.05Q349.76562 24.05 349.25 24.659374Q348.75 25.253124 348.75 26.39375ZM354.79688 22.175L354.79688 20.95625L355.85938 20.95625L355.85938 22.175L354.79688 22.175ZM354.79688 29.55L354.79688 23.33125L355.85938 23.33125L355.85938 29.55L354.79688 29.55ZM357.79688 29.55L357.79688 23.33125L358.73438 23.33125L358.73438 24.20625Q359.42188 23.190624 360.71875 23.190624Q361.28125 23.190624 361.75 23.39375Q362.23438 23.596874 362.46875 23.925Q362.70312 24.253124 362.79688 24.690624Q362.84375 24.9875 362.84375 25.721874L362.84375 29.55L361.79688 29.55L361.79688 25.76875Q361.79688 25.1125 361.67188 24.8Q361.54688 24.4875 361.23438 24.3Q360.92188 24.096874 360.5 24.096874Q359.82812 24.096874 359.32812 24.534374Q358.84375 24.95625 358.84375 26.14375L358.84375 29.55L357.79688 29.55ZM369.04688 27.55L370.14062 27.675Q369.89062 28.628124 369.1875 29.159374Q368.48438 29.690624 367.40625 29.690624Q366.04688 29.690624 365.23438 28.846874Q364.4375 28.003124 364.4375 26.4875Q364.4375 24.925 365.25 24.065624Q366.0625 23.190624 367.34375 23.190624Q368.59375 23.190624 369.375 24.034374Q370.17188 24.878124 370.17188 26.425Q370.17188 26.51875 370.17188 26.70625L365.53125 26.70625Q365.59375 27.7375 366.10938 28.284374Q366.625 28.815624 367.40625 28.815624Q367.98438 28.815624 368.39062 28.51875Q368.8125 28.20625 369.04688 27.55ZM365.59375 25.846874L369.0625 25.846874Q369.0 25.05 368.67188 24.659374Q368.15625 24.05 367.35938 24.05Q366.625 24.05 366.125 24.534374Q365.64062 25.01875 365.59375 25.846874ZM375.82812 29.55L375.82812 28.76875Q375.23438 29.690624 374.09375 29.690624Q373.34375 29.690624 372.71875 29.284374Q372.09375 28.8625 371.75 28.128124Q371.40625 27.39375 371.40625 26.440624Q371.40625 25.51875 371.71875 24.753124Q372.03125 23.9875 372.65625 23.596874Q373.28125 23.190624 374.04688 23.190624Q374.60938 23.190624 375.04688 23.425Q375.48438 23.659374 375.76562 24.034374L375.76562 20.95625L376.8125 20.95625L376.8125 29.55L375.82812 29.55ZM372.5 26.440624Q372.5 27.64375 373.0 28.2375Q373.5 28.815624 374.1875 28.815624Q374.875 28.815624 375.35938 28.253124Q375.84375 27.690624 375.84375 26.534374Q375.84375 25.253124 375.34375 24.659374Q374.85938 24.065624 374.14062 24.065624Q373.4375 24.065624 372.96875 24.64375Q372.5 25.20625 372.5 26.440624Z" fill-rule="nonzero"/></svg>