<?xml version="1.0" encoding="UTF-8" standalone="no"?>
<!DOCTYPE svg PUBLIC "-//W3C//DTD SVG 1.1//EN" "http://www.w3.org/Graphics/SVG/1.1/DTD/svg11.dtd">
<svg width="100%" height="100%" viewBox="0 0 1200 800" version="1.1" xmlns="http://www.w3.org/2000/svg" xmlns:xlink="http://www.w3.org/1999/xlink" xml:space="preserve" xmlns:serif="http://www.serif.com/" style="fill-rule:evenodd;clip-rule:evenodd;stroke-linecap:round;stroke-linejoin:round;stroke-miterlimit:1.5;">
    <path d="M298.497,699.258C296.486,647.104 298.677,595.543 299.144,543.438C300.155,430.469 302.629,317.392 301.927,204.405" style="fill:none;stroke:black;stroke-width:4px;"/>
    <g transform="matrix(0.646573,0,0,1.06308,142.812,-44.3799)">
        <path d="M397.051,703.573C397.782,636.31 396.289,569.086 397.595,501.814C398.67,446.478 402.075,391.238 403.11,335.905C403.795,299.289 402.382,262.697 404.078,226.079" style="fill:none;stroke:black;stroke-width:4.55px;"/>
    </g>
    <path d="M500.252,704.294C503.272,618.914 499.946,532.966 499.679,447.524C499.417,363.676 502.223,279.774 501.641,195.959" style="fill:none;stroke:black;stroke-width:4px;"/>
    <path d="M599.358,699.181C604.98,532.468 599.624,365.031 599.188,198.373" style="fill:none;stroke:black;stroke-width:4px;"/>
    <path d="M700.246,698.782C701.858,643.065 697.673,587.635 696.178,531.966C694.952,486.323 697.551,440.678 697.642,395.038C697.765,332.701 695.519,271.335 700.607,209.092" style="fill:none;stroke:black;stroke-width:4px;"/>
    <path d="M802.321,700.456C796.767,625.868 798.231,550.637 797.644,475.878C797.257,426.581 793.875,377.353 793.719,328.075C793.593,287.981 797.758,248.049 798.54,208.018" style="fill:none;stroke:black;stroke-width:4px;"/>
    <path d="M901.755,703.496C890.994,602.803 895.931,500.241 898.413,399.248C900.12,329.766 897.569,260.493 902.154,191.042" style="fill:none;stroke:black;stroke-width:4px;"/>
    <path d="M202.83,299.986C312.547,300.812 422.332,295.212 532.114,296.058C605.742,296.626 679.312,301.504 752.912,301.375C792.594,301.305 832.058,297.028 871.757,297.013C916.165,296.996 960.184,300.317 1004.54,297.847" style="fill:none;stroke:black;stroke-width:4px;"/>
    <path d="M199.861,401.417C281.637,400.792 363.498,395.911 445.246,396.083C530.19,396.262 614.756,403.277 699.825,402.043C775.624,400.943 851.458,398.241 927.257,397.967C955.85,397.864 986.544,393.469 1014.98,396.539" style="fill:none;stroke:black;stroke-width:4px;"/>
    <path d="M207.62,500.62C335.603,494.569 464.324,502.922 592.443,501.022C684.664,499.654 776.522,500.007 868.743,500.653C912.158,500.957 955.971,493.974 999.314,498.879" style="fill:none;stroke:black;stroke-width:4px;"/>
    <path d="M198.428,601.022C232.85,601.271 267.241,598.962 301.668,598.829C352.327,598.632 403.033,602.461 453.696,603.037C560.903,604.255 668.454,601.032 775.838,602.113C823.751,602.595 872.172,605.59 920.017,604.953C952.727,604.517 985.439,597.557 1018.15,602.138" style="fill:none;stroke:black;stroke-width:4px;"/>
    <path d="M307.464,62.211C308.232,61.631 307.371,58.466 307.094,59.018C304.728,63.75 307.094,75.838 307.094,80.736C307.094,85.752 305.435,132.164 308.301,135.03C310.199,136.928 321.953,133.22 324.589,133.22C341.018,133.22 359.316,134.068 375.264,131.41C376.691,131.172 392.881,132.73 393.362,130.807C396.922,116.567 394.186,94.946 392.156,80.736C391.41,75.515 393.255,67.852 390.949,63.241C390.205,61.754 390.892,56.662 390.346,57.208C388.959,58.595 373.951,55.038 372.248,54.795C352.179,51.928 328.002,54.192 309.507,54.192C307.554,54.192 305.888,54.76 305.888,56.605" style="fill:none;stroke:black;stroke-width:4px;"/>
    <path d="M407.062,63.086C407.527,63.496 407.133,56.105 406.031,57.208C404.066,59.173 406.031,72.355 406.031,75.306C406.031,77.8 403.854,131.043 406.031,133.22C409.229,136.419 437.202,132.617 441.624,132.617C446.422,132.617 493.934,135.205 494.712,134.427C497.194,131.944 495.315,119.756 495.315,116.329C495.315,109.456 494.91,56.803 492.299,54.192C486.196,48.089 423.381,56.605 409.65,56.605" style="fill:none;stroke:black;stroke-width:4px;"/>
    <path d="M504.96,58.05C505.093,53.381 506.036,75.008 505.57,80.132C505.265,83.496 503.829,134.495 504.967,135.633C508.012,138.678 516.631,134.36 520.652,135.03C538.004,137.922 557.849,136.84 575.55,136.84C576.53,136.84 596.664,136.288 596.664,135.633C596.664,113.809 595.482,91.138 591.838,69.273C591.15,65.144 593.586,54.13 590.632,51.175C586.04,46.584 533.601,50.572 524.272,50.572C521.939,50.572 504.967,55.378 504.967,51.175" style="fill:none;stroke:black;stroke-width:4px;"/>
    <g transform="matrix(1,0,0,1,-93.3889,-4.30789)">
        <path d="M644.889,431.526C646.271,420.759 629.79,429.658 625.621,433.046C608.763,446.743 605.665,473.014 625.51,485.418C656.561,504.824 690.338,445.496 656.991,428.823C649.114,424.884 636.989,424.066 628.638,427.013C610.758,433.323 602.697,462.737 615.381,477.232C625.851,489.198 650.934,486.491 663.627,479.498C699.75,459.596 664.072,416.739 631.051,423.997C591.533,432.682 613.177,487.374 643.719,492.166C673.231,496.797 686.938,430.222 642.513,425.203C637.394,424.625 629.659,424.203 625.018,427.013C609.921,436.155 607.547,469.899 622.39,480.289C640.581,493.023 675.914,470.07 675.693,449.334C675.426,424.316 626.24,410.408 620.192,451.747C619.47,456.678 618.943,462.062 622.329,466.23C653.182,504.205 708.614,457.241 661.214,425.203" style="fill:none;stroke:rgb(0,4,255);stroke-width:4px;"/>
    </g>
    <path d="M446.021,434.167C445.255,434.542 446.51,433.951 447.053,433.046C449.673,428.68 447.968,428.037 442.83,427.616C432.95,426.808 421.094,436.946 419.303,446.318C415.691,465.211 429.179,492.19 451.879,488.547C475.378,484.775 488.311,440.794 466.72,427.3C426.175,401.959 387.568,483.199 443.434,478.894C498.281,474.668 482.013,404.726 432.912,423.82C398.998,437.009 414.013,487.447 449.779,483.682C492.685,479.165 477.739,414.329 436.798,422.79C399.552,430.488 408.668,495.136 447.656,483.117C454.797,480.916 461.601,476.551 467.021,471.45C503.113,437.481 453.804,407.473 431.971,424.6C419.505,434.379 414.216,466.642 431.626,474.474C444.038,480.058 460.061,471.153 470.581,465.622" style="fill:none;stroke:rgb(255,0,2);stroke-width:4px;"/>
    <g transform="matrix(1,0,0,1,-95.6208,-1.02167)">
        <path d="M419.529,121.785C415.638,121.321 428.627,109.365 427.749,108.486C423.629,104.367 413.738,101.382 419.303,95.817C420.014,95.106 420.107,93.404 421.113,93.404C423.39,93.404 429.222,101.583 429.558,101.247C437.774,93.031 440.96,76.573 447.656,69.877C450.327,67.206 462.299,67.61 466.358,66.257C467.211,65.973 468.771,65.051 468.771,65.051C468.771,65.051 469.089,67.113 468.771,68.067C467.573,71.659 469.959,86.183 467.564,88.578C462.743,93.4 456.203,97.761 450.07,101.85C447.624,103.48 444.716,103.622 442.227,104.866C442.006,104.977 439.211,104.783 439.211,104.866C439.211,108.938 449.466,111.502 449.466,111.502C449.466,111.502 447.144,116.264 445.998,117.41C442.354,121.054 440.799,115.011 434.988,112.106C433.381,111.303 419.906,133.596 419.906,122.361" style="fill:none;stroke:rgb(255,0,2);stroke-width:4px;"/>
    </g>
    <path d="M513.939,416.345C509.635,411.493 521.741,426.708 525.809,431.759C537.619,446.419 549.107,456.961 563.077,469.027C566.852,472.287 589.513,490.527 582.428,490.527" style="fill:none;stroke:rgb(255,0,2);stroke-width:4px;"/>
    <path d="M413.565,416.071C412.075,415.643 409.334,407.688 414.006,411.691C416.958,414.222 419.502,417.222 421.889,420.292C435.007,437.157 446.494,454.349 460.59,470.46C464.365,474.774 475.717,488.415 475.641,488.377" style="fill:none;stroke:rgb(0,3,255);stroke-width:4px;"/>
    <path d="M322.335,66.3C311.607,57.596 361.094,106.604 365.987,110.681C368.071,112.418 382.534,125.078 380.321,122.865" style="fill:none;stroke:rgb(132,0,11);stroke-width:4px;"/>
    <path d="M323.941,109.477C321.821,107.44 313.907,112.95 316.536,114.265C324.758,118.376 341.394,90.674 345.203,87.03C353.574,79.024 363.761,72.956 373.154,66.246C374.556,65.245 377.454,63.38 377.454,63.38C377.454,63.38 373.087,65.014 372.437,66.963" style="fill:none;stroke:rgb(132,0,11);stroke-width:4px;"/>
</svg>
