<?xml version="1.0" encoding="UTF-8" standalone="no"?>
<svg
   xmlns:dc="http://purl.org/dc/elements/1.1/"
   xmlns:cc="http://creativecommons.org/ns#"
   xmlns:rdf="http://www.w3.org/1999/02/22-rdf-syntax-ns#"
   xmlns:svg="http://www.w3.org/2000/svg"
   xmlns="http://www.w3.org/2000/svg"
   xmlns:sodipodi="http://sodipodi.sourceforge.net/DTD/sodipodi-0.dtd"
   xmlns:inkscape="http://www.inkscape.org/namespaces/inkscape"
   width="100%"
   height="100%"
   viewBox="0 0 2560 1440"
   version="1.1"
   xml:space="preserve"
   style="fill-rule:evenodd;clip-rule:evenodd;stroke-linecap:round;stroke-linejoin:round;stroke-miterlimit:1.5;"
   id="svg394"
   sodipodi:docname="Guilayout.svg"
   inkscape:version="0.92.4 5da689c313, 2019-01-14"><metadata
   id="metadata400"><rdf:RDF><cc:Work
       rdf:about=""><dc:format>image/svg+xml</dc:format><dc:type
         rdf:resource="http://purl.org/dc/dcmitype/StillImage" /></cc:Work></rdf:RDF></metadata><defs
   id="defs398" /><sodipodi:namedview
   pagecolor="#ffffff"
   bordercolor="#666666"
   borderopacity="1"
   objecttolerance="10"
   gridtolerance="10"
   guidetolerance="10"
   inkscape:pageopacity="0"
   inkscape:pageshadow="2"
   inkscape:window-width="1366"
   inkscape:window-height="768"
   id="namedview396"
   showgrid="false"
   inkscape:zoom="0.5734375"
   inkscape:cx="58.6069"
   inkscape:cy="1047.246"
   inkscape:window-x="0"
   inkscape:window-y="0"
   inkscape:window-maximized="0"
   inkscape:current-layer="svg394" />
    <g
   transform="matrix(2.46156,0,0,2.29763,-1700.96,-1220.66)"
   id="g186">
        <rect
   x="691.009"
   y="531.267"
   width="1039.99"
   height="626.733"
   style="fill-opacity:0.2;"
   id="rect2" />
        <g
   transform="matrix(0.325564,0,0,0.365241,693.43,533.367)"
   id="g18">
            <rect
   x="30"
   y="30"
   width="424.259"
   height="262.158"
   style="fill-opacity:0.2;"
   id="rect4" />
            <g
   transform="matrix(1.44772,0,0,1.30992,-25.008,-24.4308)"
   id="g8">
                <rect
   x="46.616"
   y="50.65"
   width="172.384"
   height="181.939"
   style="fill-opacity:0.2;"
   id="rect6" />
            </g>
            <g
   transform="matrix(1.97611,0,0,1.28085,-148.83,-15.1083)"
   id="g12">
                <rect
   x="229.415"
   y="44.521"
   width="31.573"
   height="186.068"
   style="fill-opacity:0.2;"
   id="rect10" />
            </g>
            <g
   transform="matrix(1.83931,0,0,1.29449,-141.736,-17.5325)"
   id="g16">
                <rect
   x="283.327"
   y="45.924"
   width="33.921"
   height="184.107"
   style="fill-opacity:0.2;"
   id="rect14" />
            </g>
        </g>
        
        <g
   transform="matrix(0.406246,0,0,0.435231,1100.51,587.847)"
   id="g148">
            <rect
   x="0"
   y="0"
   width="540"
   height="120"
   style="fill-opacity:0.2;"
   id="rect109" />
            <clipPath
   id="_clip2">
                <rect
   x="0"
   y="0"
   width="540"
   height="120"
   id="rect111" />
            </clipPath>
            <g
   clip-path="url(#_clip2)"
   id="g146">
                <g
   transform="matrix(1.09339,0,0,0.984169,-439.401,-307.061)"
   id="g120">
                    <rect
   x="786"
   y="312"
   width="109.751"
   height="121.93"
   style="fill-opacity:0.2;"
   id="rect114" />
                    <g
   transform="matrix(1.09413,0,0,1.16815,-105.211,152.071)"
   id="g118">
                        <rect
   x="822.898"
   y="145.607"
   width="83.591"
   height="86.983"
   style="fill-opacity:0.2;"
   id="rect116" />
                    </g>
                </g>
                <g
   transform="matrix(1.09339,0,0,0.984169,-719.401,-307.061)"
   id="g128">
                    <rect
   x="786"
   y="312"
   width="109.751"
   height="121.93"
   style="fill-opacity:0.2;"
   id="rect122" />
                    <g
   transform="matrix(1.09413,0,0,1.16815,-105.211,152.071)"
   id="g126">
                        <rect
   x="822.898"
   y="145.607"
   width="83.591"
   height="86.983"
   style="fill-opacity:0.2;"
   id="rect124" />
                    </g>
                </g>
                <g
   transform="matrix(1.09339,0,0,0.984169,-579.401,-307.061)"
   id="g136">
                    <rect
   x="786"
   y="312"
   width="109.751"
   height="121.93"
   style="fill-opacity:0.2;"
   id="rect130" />
                    <g
   transform="matrix(1.09413,0,0,1.16815,-105.211,152.071)"
   id="g134">
                        <rect
   x="822.898"
   y="145.607"
   width="83.591"
   height="86.983"
   style="fill-opacity:0.2;"
   id="rect132" />
                    </g>
                </g>
                <g
   transform="matrix(1.09339,0,0,0.984169,-859.401,-307.061)"
   id="g144">
                    <rect
   x="786"
   y="312"
   width="109.751"
   height="121.93"
   style="fill-opacity:0.2;"
   id="rect138" />
                    <g
   transform="matrix(1.09413,0,0,1.16815,-105.211,152.071)"
   id="g142">
                        <rect
   x="822.898"
   y="145.607"
   width="83.591"
   height="86.983"
   style="fill-opacity:0.2;"
   id="rect140" />
                    </g>
                </g>
            </g>
        </g>
        <g
   transform="matrix(0.404163,0,0,0.398937,784.815,582.441)"
   id="g176">
            <rect
   x="567"
   y="1224.53"
   width="975"
   height="185.466"
   style="fill-opacity:0.2;"
   id="rect150" />
            <g
   transform="matrix(1.14019,0,0,1.22491,556.412,1198.7)"
   id="g154">
                <rect
   x="18.102"
   y="30"
   width="132.235"
   height="133.599"
   style="fill-opacity:0.2;"
   id="rect152" />
            </g>
            <g
   transform="matrix(1.14019,0,0,1.22491,1038.89,1198.7)"
   id="g158">
                <rect
   x="18.102"
   y="30"
   width="132.235"
   height="133.599"
   style="fill-opacity:0.2;"
   id="rect156" />
            </g>
            <g
   transform="matrix(1.14019,0,0,1.22491,717.236,1198.7)"
   id="g162">
                <rect
   x="18.102"
   y="30"
   width="132.235"
   height="133.599"
   style="fill-opacity:0.2;"
   id="rect160" />
            </g>
            <g
   transform="matrix(1.14019,0,0,1.22491,1199.71,1198.7)"
   id="g166">
                <rect
   x="18.102"
   y="30"
   width="132.235"
   height="133.599"
   style="fill-opacity:0.2;"
   id="rect164" />
            </g>
            <g
   transform="matrix(1.14019,0,0,1.22491,878.061,1198.7)"
   id="g170">
                <rect
   x="18.102"
   y="30"
   width="132.235"
   height="133.599"
   style="fill-opacity:0.2;"
   id="rect168" />
            </g>
            <g
   transform="matrix(1.14019,0,0,1.22491,1360.54,1198.7)"
   id="g174">
                <rect
   x="18.102"
   y="30"
   width="132.235"
   height="133.599"
   style="fill-opacity:0.2;"
   id="rect172" />
            </g>
        </g>
        <g
   transform="matrix(0.543108,0,0,0.416176,894.726,384.162)"
   id="g180">
            <rect
   x="1090.99"
   y="405.759"
   width="398.935"
   height="188.241"
   style="fill-opacity:0.2;"
   id="rect178" />
        </g>
        <g
   transform="matrix(0.356779,0,0,0.630999,754.108,382.271)"
   id="g184">
            <rect
   x="1195.22"
   y="256.82"
   width="170.798"
   height="55.18"
   style="fill-opacity:0.2;"
   id="rect182" />
        </g>
    </g>
    <path
   d="M354.402,288.859C347.161,274.723 387.599,342.861 392.745,350.58C394.078,352.579 408.35,372.795 405.579,364.483"
   style="fill:none;stroke:rgb(0,20,144);stroke-width:4px;"
   id="path188" />
    <path
   d="M348.014,306.416C341.53,317.256 351.3,298.973 347.826,288.549C346.693,285.15 344.223,275.321 346.756,277.854C359.447,290.544 393.104,302.452 385.258,302.452"
   style="fill:none;stroke:rgb(0,20,144);stroke-width:4px;"
   id="path190" />
    
    
    
    
    
    
    
    
    
    
    
    
    
    
    
    
    
    
    
    
    
    
    
    <path
   d="M437.079,345.777C432.869,350.332 425.762,405.58 449.45,405.58C485.822,405.58 465.471,321.736 465.471,347.371"
   style="fill:none;stroke:rgb(0,20,144);stroke-width:4px;"
   id="path238" />
    <path
   d="M496.239,380.184C497.292,381.64 496.298,375.745 496.486,375.178C498.507,369.116 481.038,375.06 478.305,380.526C473.699,389.738 498.064,391.676 500.764,399.777C503.407,407.705 483.311,414.645 484.722,405.124"
   style="fill:none;stroke:rgb(0,20,144);stroke-width:4px;"
   id="path240" />
    <path
   d="M519.903,388.404C520.154,387.531 515.349,388.353 514.668,388.012C513.416,387.386 526.396,390.166 531.78,388.012C536.655,386.062 537.937,377.324 533.038,374.874C514.334,365.522 494.693,394.264 509.652,404.237C513.728,406.954 517.447,407.263 522.154,407.263C532.015,407.263 541.405,401.582 541.405,389.082C541.405,387.997 535.766,381.887 536.058,381.595C537.085,380.568 552.799,377.317 555.309,377.317"
   style="fill:none;stroke:rgb(0,20,144);stroke-width:4px;"
   id="path242" />
    <path
   d="M577.755,385.301C577.936,378.399 575.629,369.978 575.629,362.344C575.629,361.275 575.629,358.066 575.629,359.136"
   style="fill:none;stroke:rgb(0,20,144);stroke-width:4px;"
   id="path244" />
    <path
   d="M603.597,382.035C598.852,369.033 587.994,391.977 588.463,392.29C591.938,394.607 624.847,409.612 604.506,413.68C600.798,414.422 594.068,414.344 590.602,412.611"
   style="fill:none;stroke:rgb(0,20,144);stroke-width:4px;"
   id="path246" />
    <path
   d="M655.062,399.32C649.133,408.686 669.399,387.407 657.981,385.873C656.192,385.633 653.139,385.9 651.564,386.943C632.133,399.813 651.097,426.153 671.884,413.68"
   style="fill:none;stroke:rgb(0,20,144);stroke-width:4px;"
   id="path248" />
    <path
   d="M682.863,407.677C679.891,403.347 679.447,404.359 678.301,399.777C678.296,399.758 672.954,387.587 672.954,388.012C672.954,390.912 675.602,401.026 676.162,402.985C677.494,407.648 677.751,420.923 680.44,416.889C681.306,415.591 684.112,382.74 693.274,390.151C697.659,393.698 697.194,413.68 699.691,413.68"
   style="fill:none;stroke:rgb(0,20,144);stroke-width:4px;"
   id="path250" />
    <path
   d="M710.083,366.029C711.38,363.991 708.247,370.624 708.247,373.039C708.247,386.404 713.595,399.482 713.595,412.611"
   style="fill:none;stroke:rgb(0,20,144);stroke-width:4px;"
   id="path252" />
    <path
   d="M695.638,385.301C694.495,382.775 709.657,385.873 712.525,385.873"
   style="fill:none;stroke:rgb(0,20,144);stroke-width:4px;"
   id="path254" />
    <path
   d="M728.956,412.195C725.155,416.262 730.328,400.78 728.568,395.499"
   style="fill:none;stroke:rgb(0,20,144);stroke-width:4px;"
   id="path256" />
    <path
   d="M727.25,383.015C727.788,382.255 726.114,380.526 725.359,380.526"
   style="fill:none;stroke:rgb(0,20,144);stroke-width:4px;"
   id="path258" />
    <path
   d="M741.986,391.671C742.887,390.835 751.787,400.543 761.722,396.568C762.916,396.091 764.931,395.715 764.931,394.429C764.931,391.645 759.759,397.287 758.514,399.777C752.651,411.503 749.954,425.465 747.819,438.279C747.288,441.463 746.749,451.133 746.749,447.904"
   style="fill:none;stroke:rgb(0,20,144);stroke-width:4px;"
   id="path260" />
    <path
   d="M736.469,367.581C734.695,368.056 737.722,373.493 738.193,384.804C738.285,387.007 739.263,427.746 739.263,409.402"
   style="fill:none;stroke:rgb(0,20,144);stroke-width:4px;"
   id="path262" />
    <path
   d="M728.666,381.327C726.091,388.365 743,376.892 749.958,374.109"
   style="fill:none;stroke:rgb(0,20,144);stroke-width:4px;"
   id="path264" />
    <path
   d="M817.732,389.384C797.5,373.907 793.28,423.374 815.197,411.541C835.727,400.457 819.475,332.924 819.475,367.692"
   style="fill:none;stroke:rgb(0,20,144);stroke-width:4px;"
   id="path266" />
    <path
   d="M852.066,388.677C851.951,388.769 819.017,382.489 829.101,408.333C834.478,422.115 856.018,395.686 854.769,386.943C854.714,386.563 851.438,383.419 850.491,383.734C845.164,385.51 859.594,427.915 867.603,404.055"
   style="fill:none;stroke:rgb(0,20,144);stroke-width:4px;"
   id="path268" />
    <path
   d="M873.878,362.055C874.414,363.152 869.776,361.618 870.811,371.97C871.946,383.318 875.832,393.45 879.367,404.055"
   style="fill:none;stroke:rgb(0,20,144);stroke-width:4px;"
   id="path270" />
    <path
   d="M862.845,378.496C871.423,376.543 877.844,375.515 886.854,377.317"
   style="fill:none;stroke:rgb(0,20,144);stroke-width:4px;"
   id="path272" />
    <path
   d="M904.365,388.677C903.982,389.065 898.501,386.269 896.479,386.943C887.972,389.779 883.596,404.958 892.44,410.265C901.314,415.589 916.035,407.874 916.035,397.545C916.035,394.214 910.121,386.92 909.313,390.151C907.457,397.576 926.065,415.111 932.842,408.333"
   style="fill:none;stroke:rgb(0,20,144);stroke-width:4px;"
   id="path274" />
    <path
   d="M912.75,1081.59C913.192,1079.84 914.129,1073.06 911.949,1071.97C910.048,1071.02 909.01,1091.93 908.74,1101.92C908.227,1120.89 908.558,1133.36 913.018,1152.19C915.266,1161.67 917.855,1169.64 922.644,1177.85C924.092,1180.34 929.796,1185.34 926.922,1185.34C921.19,1185.34 909.513,1169 905.532,1165.02C903.036,1162.52 895.55,1155.04 898.045,1157.53C919.557,1179.04 935.478,1178.47 935.478,1147.91"
   style="fill:none;stroke:rgb(0,20,144);stroke-width:4px;"
   id="path276" />
    <path
   d="M856.567,992.793C853.526,993.275 856.007,1002.66 856.335,1013.15C856.36,1013.96 855.406,1053.13 857.404,1053.79C863.998,1055.99 881.571,1043.1 890.559,1043.1"
   style="fill:none;stroke:rgb(0,20,144);stroke-width:4px;"
   id="path278" />
    <path
   d="M904.366,1049.71C904.598,1049.23 902.323,1031.07 902.323,1025.99"
   style="fill:none;stroke:rgb(0,20,144);stroke-width:4px;"
   id="path280" />
    <path
   d="M900.664,1010.79C898.925,1011.6 897.461,1010.53 899.115,1008.87"
   style="fill:none;stroke:rgb(0,20,144);stroke-width:4px;"
   id="path282" />
    <path
   d="M928.465,1017.43C927.026,1017.43 930.5,1013.15 929.061,1013.15C905.939,1013.15 947.233,1047.38 923.713,1047.38"
   style="fill:none;stroke:rgb(0,20,144);stroke-width:4px;"
   id="path284" />
    <path
   d="M946.068,985.008C946.847,987.502 946.9,1022.82 951.52,1036.68"
   style="fill:none;stroke:rgb(0,20,144);stroke-width:4px;"
   id="path286" />
    <path
   d="M940.116,1011.9C935.277,1014.31 950.672,1009.51 955.798,1007.8"
   style="fill:none;stroke:rgb(0,20,144);stroke-width:4px;"
   id="path288" />
    <path
   d="M1013.28,1032.59C1023.51,1025.37 995.779,1026.88 999.781,1046.89C1000.35,1049.75 1002.17,1051.88 1005,1052.72C1017.86,1056.55 1038.75,1024.79 1016.76,1029.19"
   style="fill:none;stroke:rgb(0,20,144);stroke-width:4px;"
   id="path290" />
    <path
   d="M1039.96,1049.14C1042.55,1052.09 1044.39,1042.54 1045.64,1038.82C1049.48,1027.29 1049.31,1015.26 1043.5,1004.6C1041.81,1001.5 1036.87,993.684 1036.01,997.108C1032.28,1012.05 1047.26,1038.23 1050.98,1051.65C1053.6,1061.06 1059.72,1077.57 1057.4,1088.02C1054.91,1099.2 1015.45,1081.42 1042.43,1063.42C1047.43,1060.08 1060.85,1049.51 1065.96,1049.51"
   style="fill:none;stroke:rgb(0,20,144);stroke-width:4px;"
   id="path292" />
    <path
   d="M1114.4,1031.17C1111.9,1032.42 1127.46,1074.11 1121.57,1074.11C1114.29,1074.11 1102.17,1025.94 1124.23,1022.8C1141.84,1020.28 1146.17,1047.38 1123.71,1047.38C1121.89,1047.38 1127.29,1046.75 1129.06,1046.31"
   style="fill:none;stroke:rgb(0,20,144);stroke-width:4px;"
   id="path294" />
    <path
   d="M1151.71,1037.95C1147.36,1033.39 1166.68,1031.09 1165.42,1024.91C1164.59,1020.83 1156.88,1021.5 1154.11,1022.3C1135.2,1027.7 1147,1057.75 1163.28,1047.38C1186.62,1032.49 1154.73,1014.28 1154.73,1029.19"
   style="fill:none;stroke:rgb(0,20,144);stroke-width:4px;"
   id="path296" />
    <path
   d="M1182.63,1026.93C1181.17,1028.76 1187.04,1022.58 1185.74,1020.64C1182.19,1015.32 1171.24,1019.55 1169.9,1024.9C1168.59,1030.15 1209.11,1047.38 1178.25,1047.38"
   style="fill:none;stroke:rgb(0,20,144);stroke-width:4px;"
   id="path298" />
    <path
   d="M1202.34,1029.76C1207.39,1034.72 1193.44,1020.2 1190.02,1027.05C1187.79,1031.51 1231.43,1046.11 1204.99,1052.72C1199.83,1054.01 1200.44,1053.79 1195.37,1053.79"
   style="fill:none;stroke:rgb(0,20,144);stroke-width:4px;"
   id="path300" />
    <path
   d="M1224.73,1050.01C1223.99,1049.26 1225.64,1035.94 1222.1,1032.4"
   style="fill:none;stroke:rgb(0,20,144);stroke-width:4px;"
   id="path302" />
    <path
   d="M1220.78,1017.16C1221.91,1018.36 1217.83,1014.81 1217.83,1013.15"
   style="fill:none;stroke:rgb(0,20,144);stroke-width:4px;"
   id="path304" />
    <path
   d="M1232.68,990.235C1236.75,1006.19 1234.7,1034.3 1244.56,1044.17C1247.64,1047.25 1243.84,1035.25 1245.22,1031.11C1246.39,1027.58 1253.35,1021.62 1257.4,1024.91C1279.81,1043.16 1239.56,1052.03 1242.42,1046.31"
   style="fill:none;stroke:rgb(0,20,144);stroke-width:4px;"
   id="path306" />
    <path
   d="M1268,995.352C1270.58,985.046 1266.23,1023.72 1274.51,1045.24C1275.26,1047.18 1276.25,1052.05 1277.72,1050.58C1280.22,1048.08 1271.37,1038.25 1276.65,1035.61C1283.56,1032.16 1295.02,1039.28 1300.18,1030.26C1302.14,1026.83 1302.95,1021.01 1298.04,1020.64C1280.27,1019.3 1276.8,1059.06 1306.59,1044.17"
   style="fill:none;stroke:rgb(0,20,144);stroke-width:4px;"
   id="path308" />
    <path
   d="M1375.64,1021.97C1386.61,1015.7 1332.35,1025.03 1356.88,1044.65C1372.64,1057.26 1386.3,1018.24 1376.11,1013.15C1372.19,1011.19 1373.96,1032.4 1393.22,1032.4"
   style="fill:none;stroke:rgb(0,20,144);stroke-width:4px;"
   id="path310" />
    <path
   d="M1409.69,1017.56C1407.01,1016.7 1408.84,1009.54 1406.06,1009.94C1389.22,1012.35 1388.97,1059.12 1417.82,1030.26"
   style="fill:none;stroke:rgb(0,20,144);stroke-width:4px;"
   id="path312" />
    <path
   d="M1424.57,970.146C1418.54,974.253 1425.4,1017.95 1426.38,1023.85C1427.09,1028.1 1431.73,1039.92 1431.73,1035.61"
   style="fill:none;stroke:rgb(0,20,144);stroke-width:4px;"
   id="path314" />
    <path
   d="M1410.38,1001.99C1409.72,1009.18 1425.02,1002.98 1431.73,1005.66"
   style="fill:none;stroke:rgb(0,20,144);stroke-width:4px;"
   id="path316" />
    <path
   d="M1448.96,1038.12C1447.65,1034.16 1449.88,1023.69 1448.84,1018.5"
   style="fill:none;stroke:rgb(0,20,144);stroke-width:4px;"
   id="path318" />
    <path
   d="M1448.67,998.755C1449.06,999.904 1448.24,997.108 1446.7,997.108"
   style="fill:none;stroke:rgb(0,20,144);stroke-width:4px;"
   id="path320" />
    <path
   d="M1477.3,1018.44C1483.76,1019.43 1470.3,1003.39 1461.67,1020.64C1455.59,1032.8 1468.73,1042.48 1480.01,1041.06C1495.01,1039.19 1496.04,1009.37 1476.64,1014.22"
   style="fill:none;stroke:rgb(0,20,144);stroke-width:4px;"
   id="path322" />
    <path
   d="M1501,1033.3C1506.89,1037.57 1495.9,1004.81 1495.9,1012.08C1495.9,1018.64 1496.73,1017.98 1498.04,1024.91C1500.82,1039.79 1496.05,1014.53 1508.73,1009.94C1524.63,1004.2 1526.89,1036.68 1521.56,1036.68"
   style="fill:none;stroke:rgb(0,20,144);stroke-width:4px;"
   id="path324" />
    <path
   d="M1547.1,1014.46C1552.25,1005.2 1524.89,1008.17 1526.91,1014.22C1528.99,1020.46 1545.24,1020.62 1548.3,1031.33C1550.45,1038.86 1532.89,1041.72 1529.05,1036.68"
   style="fill:none;stroke:rgb(0,20,144);stroke-width:4px;"
   id="path326" />
    <path
   d="M2063.42,395.689C2057.4,396.668 2053.3,349.082 2052.82,330.998C2052.51,319.158 2049.61,274.241 2063,265.315C2068.66,261.543 2064.33,269.739 2062.08,270.865C2056.49,273.66 2043.57,264.318 2043.57,278.266C2043.57,280.181 2063.83,263.446 2064.85,262.539C2066.09,261.436 2069.07,259.078 2069.48,260.689C2070.9,266.373 2068.92,272.434 2069.48,278.266C2070.24,286.228 2079.3,294.277 2075.03,292.143"
   style="fill:none;stroke:rgb(0,20,144);stroke-width:4px;"
   id="path328" />
    <path
   d="M2036.67,428.512C2044.69,421.484 2023.57,418.752 2017.67,436.462C2016.7,439.375 2034.82,438.335 2040.8,450.338C2045.21,459.191 2033.6,467.603 2026.58,460.59C2025.56,459.567 2069.79,444.317 2057.45,433.686C2039.84,418.509 2045.33,470.787 2062.08,454.039"
   style="fill:none;stroke:rgb(0,20,144);stroke-width:4px;"
   id="path330" />
    <path
   d="M2070.04,453.117C2076.3,453.059 2063.48,429.468 2063,430.911C2061.06,436.726 2064.87,443.347 2066.7,448.488C2067.78,451.52 2069.48,460.959 2069.48,457.739C2069.48,452.505 2068.41,430.078 2079.86,432.94C2085.97,434.47 2087.89,457.924 2090.76,452.189"
   style="fill:none;stroke:rgb(0,20,144);stroke-width:4px;"
   id="path332" />
    <path
   d="M2098.36,443.322C2097.23,441.177 2099.24,442.272 2102.78,439.237C2109.64,433.358 2087.94,439.432 2092.61,452.189C2094.58,457.574 2102.72,456.996 2106.48,454.039C2117.48,445.396 2112.68,421.105 2107.41,410.558C2106.05,407.836 2106.48,411.122 2106.48,411.483"
   style="fill:none;stroke:rgb(0,20,144);stroke-width:4px;"
   id="path334" />
    <path
   d="M2171.1,409.392C2171.17,409.51 2170.12,405.933 2168.47,405.933C2166.31,405.933 2168.14,410.274 2168.47,412.408C2170.32,424.761 2173.41,437.148 2175.87,449.413C2176.23,451.253 2176.79,454.964 2176.79,454.964C2176.79,454.964 2175.55,445.183 2177.72,441.087C2180.33,436.146 2186.13,435.867 2189.42,439.815C2205.2,458.759 2178.64,458.029 2178.64,455.889"
   style="fill:none;stroke:rgb(0,20,144);stroke-width:4px;"
   id="path336" />
    <path
   d="M2204.72,433.762C2202.93,432.998 2202.93,437.306 2202.69,439.237C2201.83,446.136 2202.16,452.452 2210.18,452.452C2218.8,452.452 2215.65,430.966 2215.65,433.686"
   style="fill:none;stroke:rgb(0,20,144);stroke-width:4px;"
   id="path338" />
    <path
   d="M2231.94,400.092C2235.62,403.089 2230.1,409.523 2230.45,414.259C2231.17,424.067 2233.34,434.111 2234.15,443.863C2234.59,449.113 2236.62,455.428 2233.22,450.338"
   style="fill:none;stroke:rgb(0,20,144);stroke-width:4px;"
   id="path340" />
    <path
   d="M2221.52,423.473C2221.5,423.475 2230.51,427.21 2240.62,427.21"
   style="fill:none;stroke:rgb(0,20,144);stroke-width:4px;"
   id="path342" />
    <path
   d="M2253.54,404.989C2257.41,407.007 2251.56,413.597 2251.72,417.959C2252.16,429.757 2251.34,447.446 2258.2,457.739"
   style="fill:none;stroke:rgb(0,20,144);stroke-width:4px;"
   id="path344" />
    <path
   d="M2246.32,429.854C2244.32,431.672 2254.9,432.761 2259.13,432.761"
   style="fill:none;stroke:rgb(0,20,144);stroke-width:4px;"
   id="path346" />
    <path
   d="M2282.49,430.466C2282.41,430.604 2268.01,428.475 2264.68,438.312C2262.08,445.973 2264.82,456.376 2273,459.59C2289.33,466.002 2293.67,437.523 2280.4,430.911C2277.17,429.297 2277.29,430.524 2277.63,433.686"
   style="fill:none;stroke:rgb(0,20,144);stroke-width:4px;"
   id="path348" />
    <path
   d="M2304.71,453.117C2296.46,453.01 2294.11,428.638 2293.36,430.911C2291.9,435.279 2293.43,452.529 2300.39,452.529C2304.56,452.529 2306.04,424.168 2313.71,430.911C2318.33,434.974 2324.54,461.174 2316.48,453.114"
   style="fill:none;stroke:rgb(0,20,144);stroke-width:4px;"
   id="path350" />
    <path
   d="M1405.43,54.151C1403.62,54.623 1407.96,47.695 1406.34,48.622C1399.57,52.49 1381.5,66.624 1378.42,74.302C1377.73,76.03 1376.76,79.053 1378.42,79.885C1382.57,81.958 1439.27,91.05 1428.67,91.05"
   style="fill:none;stroke:rgb(0,20,144);stroke-width:4px;"
   id="path352" />
    <path
   d="M1392.39,74.129C1395.09,74.984 1381.48,76.684 1384.01,75.419C1405.82,64.515 1440.62,68.72 1464.4,68.72C1478.89,68.72 1492.58,72.069 1506.83,72.069C1507.74,72.069 1513.94,72.069 1511.29,72.069"
   style="fill:none;stroke:rgb(0,20,144);stroke-width:4px;"
   id="path354" />
    <path
   d="M1541.64,52.673C1537.61,60.9 1541.97,69.883 1542.56,83.235C1542.77,88.125 1541.33,101.211 1544.79,97.75C1546.1,96.434 1544.79,94.028 1544.79,92.167"
   style="fill:none;stroke:rgb(0,20,144);stroke-width:4px;"
   id="path356" />
    <path
   d="M1531.11,63.33C1533.33,61.81 1526.92,59.125 1526.92,56.438C1526.92,51.668 1544.67,54.205 1545.9,54.205C1550.34,54.205 1575.04,50.747 1570.47,55.321"
   style="fill:none;stroke:rgb(0,20,144);stroke-width:4px;"
   id="path358" />
    <path
   d="M1567.41,104.877C1571.4,102.816 1576.05,80.742 1576.05,76.535"
   style="fill:none;stroke:rgb(0,20,144);stroke-width:4px;"
   id="path360" />
    <path
   d="M1574.95,69.838C1572.95,69.598 1573.82,65.38 1573.82,64.253"
   style="fill:none;stroke:rgb(0,20,144);stroke-width:4px;"
   id="path362" />
    <path
   d="M1590.94,98.369C1588.36,101.827 1582.42,71.09 1583.87,75.419C1586.96,84.707 1588.33,104.449 1588.33,104.449C1588.33,104.449 1589.12,74.871 1599.68,74.871C1607.52,74.871 1603.96,96.587 1603.96,101.099C1603.96,101.471 1604.23,102.479 1603.96,102.216C1596.25,94.503 1604.9,75.449 1615.13,74.302C1636.11,71.951 1616.65,115.514 1620.71,103.332"
   style="fill:none;stroke:rgb(0,20,144);stroke-width:4px;"
   id="path364" />
    <path
   d="M1638.15,94.078C1644.83,99.092 1662.63,84.318 1653.09,78.768C1639.43,70.818 1630.77,102.573 1644.16,106.682C1652.99,109.39 1673.37,102.915 1672.07,91.05C1671.88,89.332 1665.37,79.706 1665.37,82.118C1665.37,91.619 1703.12,76.535 1689.94,76.535"
   style="fill:none;stroke:rgb(0,20,144);stroke-width:4px;"
   id="path366" />
    <path
   d="M1211.31,295.275C1202.65,297.642 1210.24,313.203 1209.83,322.173C1209,340.411 1200.63,383.32 1216.53,399.214"
   style="fill:none;stroke:rgb(0,20,144);stroke-width:4px;"
   id="path368" />
    <path
   d="M1196.65,304.568C1196.07,303.89 1196.92,305.267 1197.55,304.309C1199.63,301.092 1201.34,297.646 1203.13,294.26C1205.85,289.111 1209.1,273.102 1210.94,278.628C1212.43,283.083 1223.23,325.543 1223.23,319.94"
   style="fill:none;stroke:rgb(0,20,144);stroke-width:4px;"
   id="path370" />
    <path
   d="M1136.71,473.397C1140.74,469.759 1141.57,439.362 1142.84,430.477C1146.07,407.847 1141.39,387.415 1147.3,403.68C1149.91,410.844 1154.01,434.989 1155.12,439.41C1158.43,452.684 1183.96,488.229 1160.7,462.857C1154.48,456.076 1149.37,451.692 1158.47,451.692"
   style="fill:none;stroke:rgb(0,20,144);stroke-width:4px;"
   id="path372" />
    <path
   d="M1193.69,444.582C1195.74,446.261 1193.13,440.558 1193.08,440.526C1184.08,434.524 1174.77,450.629 1174.77,457.211C1174.77,471.226 1190.74,469.22 1199.78,466.207"
   style="fill:none;stroke:rgb(0,20,144);stroke-width:4px;"
   id="path374" />
    <path
   d="M1210.71,413.237C1211.84,415.593 1207.45,417.82 1207.59,420.429C1207.79,424.022 1207.94,456.158 1213.18,456.158"
   style="fill:none;stroke:rgb(0,20,144);stroke-width:4px;"
   id="path376" />
    <path
   d="M1201.08,435.261C1199.33,432.309 1211.81,436.01 1217.64,437.177"
   style="fill:none;stroke:rgb(0,20,144);stroke-width:4px;"
   id="path378" />
    <path
   d="M1229.39,458.62C1233.99,456.655 1232.16,448.877 1232.16,443.876"
   style="fill:none;stroke:rgb(0,20,144);stroke-width:4px;"
   id="path380" />
    <path
   d="M1228.48,426.821C1229.03,427.33 1225.38,423.778 1227.69,423.778"
   style="fill:none;stroke:rgb(0,20,144);stroke-width:4px;"
   id="path382" />
    <path
   d="M1255,437.165C1233.88,437.648 1236.47,464.789 1254.49,462.857C1266.74,461.543 1269.36,433.362 1253.37,434.943"
   style="fill:none;stroke:rgb(0,20,144);stroke-width:4px;"
   id="path384" />
    <path
   d="M1277.81,458.023C1277.93,458.384 1270.08,443.403 1267.89,438.293C1267.42,437.211 1266.49,433.802 1266.77,434.943C1268.54,442.027 1268.03,441.543 1270.12,448.342C1274.74,463.344 1273.38,433.401 1289.1,434.943C1293.89,435.414 1301.46,465.172 1293.57,457.274"
   style="fill:none;stroke:rgb(0,20,144);stroke-width:4px;"
   id="path386" />
    <path
   d="M1341.47,407.014C1341.93,407.083 1338.94,408.495 1341.58,428.244C1343.54,442.955 1342.87,442.465 1346.05,457.274C1346.44,459.13 1347.16,464.755 1347.16,462.857C1347.16,456.374 1343.88,428.343 1359.44,432.71C1364.49,434.127 1366.41,439.307 1367.26,443.876C1370.96,463.735 1348.72,461.299 1351.63,458.391"
   style="fill:none;stroke:rgb(0,20,144);stroke-width:4px;"
   id="path388" />
    <path
   d="M1377.58,436.284C1375.92,434.905 1374.48,439.552 1373.96,441.643C1372.09,449.099 1376.44,459.957 1385.27,459.957C1393,459.957 1392.74,433.827 1390.71,433.827"
   style="fill:none;stroke:rgb(0,20,144);stroke-width:4px;"
   id="path390" />
    <path
   d="M1408.23,457.427C1418.27,452.934 1414.48,412.468 1410.8,401.447C1409.86,398.601 1407.29,390.785 1406.34,393.632C1402.99,403.681 1439.43,529.919 1401.87,504.169C1382.94,491.192 1429.55,451.496 1432.02,437.177C1433.58,428.148 1433.45,415.28 1429.79,407.03C1428.69,404.578 1426.17,397.785 1425.32,400.331C1418.16,421.795 1466.3,517.085 1434.25,506.402C1420.44,501.8 1455.09,455.411 1440.95,448.342C1439.32,447.525 1465.01,450.676 1457.7,436.06C1454.21,429.077 1429.28,457.271 1455.46,460.624C1462.09,461.472 1475.6,449.673 1474.45,442.759C1473.88,439.375 1464.2,438.486 1466.63,436.06C1471.4,431.294 1493.47,438.293 1486.73,438.293"
   style="fill:none;stroke:rgb(0,20,144);stroke-width:4px;"
   id="path392" />
</svg>