<svg id="mermaid-1586432551823" width="1228.689453125" xmlns="http://www.w3.org/2000/svg" height="723" viewBox="-10 -10 825.79296875 703"><style>



#mermaid-1586432551823 .label {
  font-family: 'trebuchet ms', verdana, arial;
  font-family: var(--mermaid-font-family);
  color: #333; }

#mermaid-1586432551823 .label text {
  fill: #333; }

#mermaid-1586432551823 .node rect,
#mermaid-1586432551823 .node circle,
#mermaid-1586432551823 .node ellipse,
#mermaid-1586432551823 .node polygon,
#mermaid-1586432551823 .node path {
  fill: #ECECFF;
  stroke: #9370DB;
  stroke-width: 1px; }

#mermaid-1586432551823 .node .label {
  text-align: center; }

#mermaid-1586432551823 .node.clickable {
  cursor: pointer; }

#mermaid-1586432551823 .arrowheadPath {
  fill: #333333; }

#mermaid-1586432551823 .edgePath .path {
  stroke: #333333;
  stroke-width: 1.5px; }

#mermaid-1586432551823 .edgeLabel {
  background-color: #e8e8e8;
  text-align: center; }

#mermaid-1586432551823 .cluster rect {
  fill: #ffffde;
  stroke: #aaaa33;
  stroke-width: 1px; }

#mermaid-1586432551823 .cluster text {
  fill: #333; }

#mermaid-1586432551823 div.mermaidTooltip {
  position: absolute;
  text-align: center;
  max-width: 200px;
  padding: 2px;
  font-family: 'trebuchet ms', verdana, arial;
  font-family: var(--mermaid-font-family);
  font-size: 12px;
  background: #ffffde;
  border: 1px solid #aaaa33;
  border-radius: 2px;
  pointer-events: none;
  z-index: 100; }

#mermaid-1586432551823 .actor {
  stroke: #CCCCFF;
  fill: #ECECFF; }

#mermaid-1586432551823 text.actor {
  fill: black;
  stroke: none; }

#mermaid-1586432551823 .actor-line {
  stroke: grey; }

#mermaid-1586432551823 .messageLine0 {
  stroke-width: 1.5;
  stroke-dasharray: '2 2';
  stroke: #333; }

#mermaid-1586432551823 .messageLine1 {
  stroke-width: 1.5;
  stroke-dasharray: '2 2';
  stroke: #333; }

#mermaid-1586432551823 #arrowhead {
  fill: #333; }

#mermaid-1586432551823 .sequenceNumber {
  fill: white; }

#mermaid-1586432551823 #sequencenumber {
  fill: #333; }

#mermaid-1586432551823 #crosshead path {
  fill: #333 !important;
  stroke: #333 !important; }

#mermaid-1586432551823 .messageText {
  fill: #333;
  stroke: none; }

#mermaid-1586432551823 .labelBox {
  stroke: #CCCCFF;
  fill: #ECECFF; }

#mermaid-1586432551823 .labelText {
  fill: black;
  stroke: none; }

#mermaid-1586432551823 .loopText {
  fill: black;
  stroke: none; }

#mermaid-1586432551823 .loopLine {
  stroke-width: 2;
  stroke-dasharray: '2 2';
  stroke: #CCCCFF; }

#mermaid-1586432551823 .note {
  stroke: #aaaa33;
  fill: #fff5ad; }

#mermaid-1586432551823 .noteText {
  fill: black;
  stroke: none;
  font-family: 'trebuchet ms', verdana, arial;
  font-family: var(--mermaid-font-family);
  font-size: 14px; }

#mermaid-1586432551823 .activation0 {
  fill: #f4f4f4;
  stroke: #666; }

#mermaid-1586432551823 .activation1 {
  fill: #f4f4f4;
  stroke: #666; }

#mermaid-1586432551823 .activation2 {
  fill: #f4f4f4;
  stroke: #666; }


#mermaid-1586432551823 .mermaid-main-font {
  font-family: "trebuchet ms", verdana, arial;
  font-family: var(--mermaid-font-family); }

#mermaid-1586432551823 .section {
  stroke: none;
  opacity: 0.2; }

#mermaid-1586432551823 .section0 {
  fill: rgba(102, 102, 255, 0.49); }

#mermaid-1586432551823 .section2 {
  fill: #fff400; }

#mermaid-1586432551823 .section1,
#mermaid-1586432551823 .section3 {
  fill: white;
  opacity: 0.2; }

#mermaid-1586432551823 .sectionTitle0 {
  fill: #333; }

#mermaid-1586432551823 .sectionTitle1 {
  fill: #333; }

#mermaid-1586432551823 .sectionTitle2 {
  fill: #333; }

#mermaid-1586432551823 .sectionTitle3 {
  fill: #333; }

#mermaid-1586432551823 .sectionTitle {
  text-anchor: start;
  font-size: 11px;
  text-height: 14px;
  font-family: 'trebuchet ms', verdana, arial;
  font-family: var(--mermaid-font-family); }


#mermaid-1586432551823 .grid .tick {
  stroke: lightgrey;
  opacity: 0.8;
  shape-rendering: crispEdges; }
#mermaid-1586432551823   .grid .tick text {
    font-family: 'trebuchet ms', verdana, arial;
    font-family: var(--mermaid-font-family); }

#mermaid-1586432551823 .grid path {
  stroke-width: 0; }


#mermaid-1586432551823 .today {
  fill: none;
  stroke: red;
  stroke-width: 2px; }



#mermaid-1586432551823 .task {
  stroke-width: 2; }

#mermaid-1586432551823 .taskText {
  text-anchor: middle;
  font-family: 'trebuchet ms', verdana, arial;
  font-family: var(--mermaid-font-family); }

#mermaid-1586432551823 .taskText:not([font-size]) {
  font-size: 11px; }

#mermaid-1586432551823 .taskTextOutsideRight {
  fill: black;
  text-anchor: start;
  font-size: 11px;
  font-family: 'trebuchet ms', verdana, arial;
  font-family: var(--mermaid-font-family); }

#mermaid-1586432551823 .taskTextOutsideLeft {
  fill: black;
  text-anchor: end;
  font-size: 11px; }


#mermaid-1586432551823 .task.clickable {
  cursor: pointer; }

#mermaid-1586432551823 .taskText.clickable {
  cursor: pointer;
  fill: #003163 !important;
  font-weight: bold; }

#mermaid-1586432551823 .taskTextOutsideLeft.clickable {
  cursor: pointer;
  fill: #003163 !important;
  font-weight: bold; }

#mermaid-1586432551823 .taskTextOutsideRight.clickable {
  cursor: pointer;
  fill: #003163 !important;
  font-weight: bold; }


#mermaid-1586432551823 .taskText0,
#mermaid-1586432551823 .taskText1,
#mermaid-1586432551823 .taskText2,
#mermaid-1586432551823 .taskText3 {
  fill: white; }

#mermaid-1586432551823 .task0,
#mermaid-1586432551823 .task1,
#mermaid-1586432551823 .task2,
#mermaid-1586432551823 .task3 {
  fill: #8a90dd;
  stroke: #534fbc; }

#mermaid-1586432551823 .taskTextOutside0,
#mermaid-1586432551823 .taskTextOutside2 {
  fill: black; }

#mermaid-1586432551823 .taskTextOutside1,
#mermaid-1586432551823 .taskTextOutside3 {
  fill: black; }


#mermaid-1586432551823 .active0,
#mermaid-1586432551823 .active1,
#mermaid-1586432551823 .active2,
#mermaid-1586432551823 .active3 {
  fill: #bfc7ff;
  stroke: #534fbc; }

#mermaid-1586432551823 .activeText0,
#mermaid-1586432551823 .activeText1,
#mermaid-1586432551823 .activeText2,
#mermaid-1586432551823 .activeText3 {
  fill: black !important; }


#mermaid-1586432551823 .done0,
#mermaid-1586432551823 .done1,
#mermaid-1586432551823 .done2,
#mermaid-1586432551823 .done3 {
  stroke: grey;
  fill: lightgrey;
  stroke-width: 2; }

#mermaid-1586432551823 .doneText0,
#mermaid-1586432551823 .doneText1,
#mermaid-1586432551823 .doneText2,
#mermaid-1586432551823 .doneText3 {
  fill: black !important; }


#mermaid-1586432551823 .crit0,
#mermaid-1586432551823 .crit1,
#mermaid-1586432551823 .crit2,
#mermaid-1586432551823 .crit3 {
  stroke: #ff8888;
  fill: red;
  stroke-width: 2; }

#mermaid-1586432551823 .activeCrit0,
#mermaid-1586432551823 .activeCrit1,
#mermaid-1586432551823 .activeCrit2,
#mermaid-1586432551823 .activeCrit3 {
  stroke: #ff8888;
  fill: #bfc7ff;
  stroke-width: 2; }

#mermaid-1586432551823 .doneCrit0,
#mermaid-1586432551823 .doneCrit1,
#mermaid-1586432551823 .doneCrit2,
#mermaid-1586432551823 .doneCrit3 {
  stroke: #ff8888;
  fill: lightgrey;
  stroke-width: 2;
  cursor: pointer;
  shape-rendering: crispEdges; }

#mermaid-1586432551823 .milestone {
  transform: rotate(45deg) scale(0.8, 0.8); }

#mermaid-1586432551823 .milestoneText {
  font-style: italic; }

#mermaid-1586432551823 .doneCritText0,
#mermaid-1586432551823 .doneCritText1,
#mermaid-1586432551823 .doneCritText2,
#mermaid-1586432551823 .doneCritText3 {
  fill: black !important; }

#mermaid-1586432551823 .activeCritText0,
#mermaid-1586432551823 .activeCritText1,
#mermaid-1586432551823 .activeCritText2,
#mermaid-1586432551823 .activeCritText3 {
  fill: black !important; }

#mermaid-1586432551823 .titleText {
  text-anchor: middle;
  font-size: 18px;
  fill: black;
  font-family: 'trebuchet ms', verdana, arial;
  font-family: var(--mermaid-font-family); }

#mermaid-1586432551823 g.classGroup text {
  fill: #9370DB;
  stroke: none;
  font-family: 'trebuchet ms', verdana, arial;
  font-family: var(--mermaid-font-family);
  font-size: 10px; }
#mermaid-1586432551823   g.classGroup text .title {
    font-weight: bolder; }

#mermaid-1586432551823 g.clickable {
  cursor: pointer; }

#mermaid-1586432551823 g.classGroup rect {
  fill: #ECECFF;
  stroke: #9370DB; }

#mermaid-1586432551823 g.classGroup line {
  stroke: #9370DB;
  stroke-width: 1; }

#mermaid-1586432551823 .classLabel .box {
  stroke: none;
  stroke-width: 0;
  fill: #ECECFF;
  opacity: 0.5; }

#mermaid-1586432551823 .classLabel .label {
  fill: #9370DB;
  font-size: 10px; }

#mermaid-1586432551823 .relation {
  stroke: #9370DB;
  stroke-width: 1;
  fill: none; }

#mermaid-1586432551823 .dashed-line {
  stroke-dasharray: 3; }

#mermaid-1586432551823 #compositionStart {
  fill: #9370DB;
  stroke: #9370DB;
  stroke-width: 1; }

#mermaid-1586432551823 #compositionEnd {
  fill: #9370DB;
  stroke: #9370DB;
  stroke-width: 1; }

#mermaid-1586432551823 #aggregationStart {
  fill: #ECECFF;
  stroke: #9370DB;
  stroke-width: 1; }

#mermaid-1586432551823 #aggregationEnd {
  fill: #ECECFF;
  stroke: #9370DB;
  stroke-width: 1; }

#mermaid-1586432551823 #dependencyStart {
  fill: #9370DB;
  stroke: #9370DB;
  stroke-width: 1; }

#mermaid-1586432551823 #dependencyEnd {
  fill: #9370DB;
  stroke: #9370DB;
  stroke-width: 1; }

#mermaid-1586432551823 #extensionStart {
  fill: #9370DB;
  stroke: #9370DB;
  stroke-width: 1; }

#mermaid-1586432551823 #extensionEnd {
  fill: #9370DB;
  stroke: #9370DB;
  stroke-width: 1; }

#mermaid-1586432551823 .commit-id,
#mermaid-1586432551823 .commit-msg,
#mermaid-1586432551823 .branch-label {
  fill: lightgrey;
  color: lightgrey;
  font-family: 'trebuchet ms', verdana, arial;
  font-family: var(--mermaid-font-family); }

#mermaid-1586432551823 .pieTitleText {
  text-anchor: middle;
  font-size: 25px;
  fill: black;
  font-family: 'trebuchet ms', verdana, arial;
  font-family: var(--mermaid-font-family); }

#mermaid-1586432551823 .slice {
  font-family: 'trebuchet ms', verdana, arial;
  font-family: var(--mermaid-font-family); }

#mermaid-1586432551823 g.stateGroup text {
  fill: #9370DB;
  stroke: none;
  font-size: 10px;
  font-family: 'trebuchet ms', verdana, arial;
  font-family: var(--mermaid-font-family); }

#mermaid-1586432551823 g.stateGroup text {
  fill: #9370DB;
  stroke: none;
  font-size: 10px; }

#mermaid-1586432551823 g.stateGroup .state-title {
  font-weight: bolder;
  fill: black; }

#mermaid-1586432551823 g.stateGroup rect {
  fill: #ECECFF;
  stroke: #9370DB; }

#mermaid-1586432551823 g.stateGroup line {
  stroke: #9370DB;
  stroke-width: 1; }

#mermaid-1586432551823 .transition {
  stroke: #9370DB;
  stroke-width: 1;
  fill: none; }

#mermaid-1586432551823 .stateGroup .composit {
  fill: white;
  border-bottom: 1px; }

#mermaid-1586432551823 .stateGroup .alt-composit {
  fill: #e0e0e0;
  border-bottom: 1px; }

#mermaid-1586432551823 .state-note {
  stroke: #aaaa33;
  fill: #fff5ad; }
#mermaid-1586432551823   .state-note text {
    fill: black;
    stroke: none;
    font-size: 10px; }

#mermaid-1586432551823 .stateLabel .box {
  stroke: none;
  stroke-width: 0;
  fill: #ECECFF;
  opacity: 0.5; }

#mermaid-1586432551823 .stateLabel text {
  fill: black;
  font-size: 10px;
  font-weight: bold;
  font-family: 'trebuchet ms', verdana, arial;
  font-family: var(--mermaid-font-family); }

:root {
  --mermaid-font-family: '"trebuchet ms", verdana, arial';
  --mermaid-font-family: "Comic Sans MS", "Comic Sans", cursive; }

:root { --mermaid-font-family: "trebuchet ms", verdana, arial;}</style><style>#mermaid-1586432551823 {
    color: rgb(0, 0, 0);
    font: 16px "trebuchet ms", verdana, arial;
  }</style><g></g><defs><marker id="extensionStart" class="extension" refX="0" refY="7" markerWidth="190" markerHeight="240" orient="auto"><path d="M 1,7 L18,13 V 1 Z"></path></marker></defs><defs><marker id="extensionEnd" refX="19" refY="7" markerWidth="20" markerHeight="28" orient="auto"><path d="M 1,1 V 13 L18,7 Z"></path></marker></defs><defs><marker id="compositionStart" class="extension" refX="0" refY="7" markerWidth="190" markerHeight="240" orient="auto"><path d="M 18,7 L9,13 L1,7 L9,1 Z"></path></marker></defs><defs><marker id="compositionEnd" refX="19" refY="7" markerWidth="20" markerHeight="28" orient="auto"><path d="M 18,7 L9,13 L1,7 L9,1 Z"></path></marker></defs><defs><marker id="aggregationStart" class="extension" refX="0" refY="7" markerWidth="190" markerHeight="240" orient="auto"><path d="M 18,7 L9,13 L1,7 L9,1 Z"></path></marker></defs><defs><marker id="aggregationEnd" refX="19" refY="7" markerWidth="20" markerHeight="28" orient="auto"><path d="M 18,7 L9,13 L1,7 L9,1 Z"></path></marker></defs><defs><marker id="dependencyStart" class="extension" refX="0" refY="7" markerWidth="190" markerHeight="240" orient="auto"><path d="M 5,7 L9,13 L1,7 L9,1 Z"></path></marker></defs><defs><marker id="dependencyEnd" refX="19" refY="7" markerWidth="20" markerHeight="28" orient="auto"><path d="M 18,7 L9,13 L14,7 L9,1 Z"></path></marker></defs><g id="classid-Game-117" class="classGroup " transform="translate(112.43359375,0 )"><rect x="0" y="0" width="144.78125" height="108"></rect><text y="15" x="0"><tspan class="title" x="59.0703125">Game</tspan></text><line x1="0" y1="21" y2="21" x2="144.78125"></line><text x="5" y="31" fill="white" class="classText"><tspan x="5">+String IP</tspan><tspan x="5" dy="10">+Int Port</tspan><tspan x="5" dy="10">+ActionType[] ActionTypeList</tspan></text><line x1="0" y1="57" y2="57" x2="144.78125"></line><text x="5" y="72" fill="white" class="classText"><tspan x="5">+add_entity()</tspan><tspan x="5" dy="10">+add_action_type()</tspan><tspan x="5" dy="10">+load_map()</tspan><tspan x="5" dy="10">+merge_map()</tspan></text></g><g id="classid-Map-118" class="classGroup " transform="translate(0,326 )"><rect x="0" y="0" width="167.921875" height="108"></rect><text y="15" x="0"><tspan class="title" x="74.5703125">Map</tspan></text><line x1="0" y1="21" y2="21" x2="167.921875"></line><text x="5" y="31" fill="white" class="classText"><tspan x="5">+int width</tspan><tspan x="5" dy="10">+int height</tspan><tspan x="5" dy="10">+Int[][] ground_matrix</tspan><tspan x="5" dy="10">+Int[][] entity_matrix</tspan><tspan x="5" dy="10">+Entity[] EntityList</tspan></text><line x1="0" y1="77" y2="77" x2="167.921875"></line><text x="5" y="92" fill="white" class="classText"><tspan x="5">+update(Entity, Position, Position)</tspan><tspan x="5" dy="10">+load_map()</tspan></text></g><g id="classid-Entity-119" class="classGroup " transform="translate(239.015625,158 )"><rect x="0" y="0" width="167.1875" height="118"></rect><text y="15" x="0"><tspan class="title" x="69.3359375">Entity</tspan></text><line x1="0" y1="21" y2="21" x2="167.1875"></line><text x="5" y="31" fill="white" class="classText"><tspan x="5">+Int id</tspan><tspan x="5" dy="10">+Str name</tspan><tspan x="5" dy="10">+Int health</tspan><tspan x="5" dy="10">+List&lt;Action&gt; actionBuffer</tspan><tspan x="5" dy="10">+List&lt;ActionType&gt; possibleActions</tspan><tspan x="5" dy="10">+Map observer</tspan></text><line x1="0" y1="87" y2="87" x2="167.1875"></line><text x="5" y="102" fill="white" class="classText"><tspan x="5">+executeAction()</tspan><tspan x="5" dy="10">+update()</tspan></text></g><g id="classid-ActionType-120" class="classGroup " transform="translate(352.73046875,484 )"><rect x="0" y="0" width="167.78125" height="88"></rect><text y="15" x="0"><tspan x="5">«interface»</tspan><tspan dy="10" x="5">«Flyweight»</tspan><tspan class="title" dy="10" x="30.734375">ActionType</tspan></text><line x1="0" y1="41" y2="41" x2="167.78125"></line><text x="5" y="51" fill="white" class="classText"><tspan x="5">+Area emitingArea</tspan><tspan x="5" dy="10">+Area receivingArea</tspan></text><line x1="0" y1="67" y2="67" x2="167.78125"></line><text x="5" y="82" fill="white" class="classText"><tspan x="5">+execute()</tspan></text></g><g id="classid-Client-121" class="classGroup " transform="translate(217.921875,354.5 )"><rect x="0" y="0" width="53.90625" height="51"></rect><text y="15" x="0"><tspan class="title" x="13.1015625">Client</tspan></text><line x1="0" y1="21" y2="21" x2="53.90625"></line><text x="5" y="31" fill="white" class="classText"><tspan x="5">+int IP</tspan><tspan x="5" dy="10">+int Port</tspan></text><line x1="0" y1="47" y2="47" x2="53.90625"></line><text x="5" y="62" fill="white" class="classText"></text></g><g id="classid-Position-122" class="classGroup " transform="translate(321.828125,346 )"><rect x="0" y="0" width="75.40625" height="68"></rect><text y="15" x="0"><tspan class="title" x="19.21875">Position</tspan></text><line x1="0" y1="21" y2="21" x2="75.40625"></line><text x="5" y="31" fill="white" class="classText"><tspan x="5">+int x</tspan><tspan x="5" dy="10">+int y</tspan></text><line x1="0" y1="47" y2="47" x2="75.40625"></line><text x="5" y="62" fill="white" class="classText"><tspan x="5">+distanceTo()</tspan></text></g><g id="classid-Action-123" class="classGroup " transform="translate(467.234375,341 )"><rect x="0" y="0" width="95.234375" height="78"></rect><text y="15" x="0"><tspan x="10.25">«context»</tspan><tspan class="title" dy="10" x="10.25">Action</tspan></text><line x1="0" y1="31" y2="31" x2="95.234375"></line><text x="5" y="41" fill="white" class="classText"><tspan x="5">+Entity emiter</tspan><tspan x="5" dy="10">+Position receiver</tspan></text><line x1="0" y1="57" y2="57" x2="95.234375"></line><text x="5" y="72" fill="white" class="classText"><tspan x="5">+execute()</tspan></text></g><g id="classid-Move-124" class="classGroup " transform="translate(112.58984375,629 )"><rect x="0" y="0" width="63.671875" height="47"></rect><text y="15" x="0"><tspan class="title" x="19.640625">Move</tspan></text><line x1="0" y1="21" y2="21" x2="63.671875"></line><text x="5" y="31" fill="white" class="classText"></text><line x1="0" y1="26" y2="26" x2="63.671875"></line><text x="5" y="41" fill="white" class="classText"><tspan x="5">+execute()</tspan></text></g><g id="classid-Throw-125" class="classGroup " transform="translate(226.26171875,629 )"><rect x="0" y="0" width="63.671875" height="47"></rect><text y="15" x="0"><tspan class="title" x="16.84375">Throw</tspan></text><line x1="0" y1="21" y2="21" x2="63.671875"></line><text x="5" y="31" fill="white" class="classText"></text><line x1="0" y1="26" y2="26" x2="63.671875"></line><text x="5" y="41" fill="white" class="classText"><tspan x="5">+execute()</tspan></text></g><g id="classid-Strike-126" class="classGroup " transform="translate(339.93359375,629 )"><rect x="0" y="0" width="63.671875" height="47"></rect><text y="15" x="0"><tspan class="title" x="17.9296875">Strike</tspan></text><line x1="0" y1="21" y2="21" x2="63.671875"></line><text x="5" y="31" fill="white" class="classText"></text><line x1="0" y1="26" y2="26" x2="63.671875"></line><text x="5" y="41" fill="white" class="classText"><tspan x="5">+execute()</tspan></text></g><g id="classid-SummonHealFloor-127" class="classGroup " transform="translate(453.60546875,629 )"><rect x="0" y="0" width="95.734375" height="47"></rect><text y="15" x="0"><tspan class="title" x="5">SummonHealFloor</tspan></text><line x1="0" y1="21" y2="21" x2="95.734375"></line><text x="5" y="31" fill="white" class="classText"></text><line x1="0" y1="26" y2="26" x2="95.734375"></line><text x="5" y="41" fill="white" class="classText"><tspan x="5">+execute()</tspan></text></g><g id="classid-Heal-128" class="classGroup " transform="translate(599.33984375,629 )"><rect x="0" y="0" width="63.671875" height="47"></rect><text y="15" x="0"><tspan class="title" x="21.375">Heal</tspan></text><line x1="0" y1="21" y2="21" x2="63.671875"></line><text x="5" y="31" fill="white" class="classText"></text><line x1="0" y1="26" y2="26" x2="63.671875"></line><text x="5" y="41" fill="white" class="classText"><tspan x="5">+execute()</tspan></text></g><g id="classid-Area-129" class="classGroup " transform="translate(713.01171875,622 )"><rect x="0" y="0" width="92.78125" height="61"></rect><text y="15" x="0"><tspan class="title" x="35.2109375">Area</tspan></text><line x1="0" y1="21" y2="21" x2="92.78125"></line><text x="5" y="31" fill="white" class="classText"><tspan x="5">+int minDistance</tspan><tspan x="5" dy="10">+int maxDistance</tspan><tspan x="5" dy="10">+int areaType</tspan></text><line x1="0" y1="57" y2="57" x2="92.78125"></line><text x="5" y="72" fill="white" class="classText"></text></g><path d="M115.8796973892405,108L110.55990407436708,112.16666666666667C105.24011075949367,116.33333333333333,94.60052412974683,124.66666666666667,89.28073081487342,142.83333333333334C83.9609375,161,83.9609375,189,83.9609375,217C83.9609375,245,83.9609375,273,83.9609375,291.1666666666667C83.9609375,309.3333333333333,83.9609375,317.6666666666667,83.9609375,321.8333333333333L83.9609375,326" id="edge112" class="relation" marker-start="url(#aggregationStart)"></path><path d="M257.21484375,95.50562753380773L268.1139322916667,101.75468961150644C279.0130208333333,108.00375168920516,300.8111979166667,120.50187584460258,311.7102864583333,130.91760458896795C322.609375,141.33333333333334,322.609375,149.66666666666666,322.609375,153.83333333333334L322.609375,158" id="edge113" class="relation" marker-start="url(#aggregationStart)"></path><path d="M399.6078869047619,276L405.04563492063494,280.1666666666667C410.48338293650795,284.3333333333333,421.358878968254,292.6666666666667,426.796626984127,310C432.234375,327.3333333333333,432.234375,353.6666666666667,432.234375,380C432.234375,406.3333333333333,432.234375,432.6666666666667,432.4992734752415,450C432.7641719504831,467.3333333333333,433.29396890096615,475.6666666666667,433.5588673762077,479.8333333333333L433.82376585144925,484" id="edge114" class="relation" marker-start="url(#aggregationStart)"></path><path d="M268.0102306547619,276L264.15435887896825,280.1666666666667C260.29848710317464,284.3333333333333,252.58674355158732,292.6666666666667,248.73087177579364,305.75C244.875,318.8333333333333,244.875,336.6666666666667,244.875,345.5833333333333L244.875,354.5" id="edge115" class="relation" marker-start="url(#aggregationStart)"></path><path d="M348.5425967261905,276L350.37403893849205,280.1666666666667C352.2054811507937,284.3333333333333,355.8683655753968,292.6666666666667,357.6998077876984,304.3333333333333C359.53125,316,359.53125,331,359.53125,338.5L359.53125,346" id="edge116" class="relation" marker-start="url(#aggregationStart)"></path><path d="M406.203125,253.5261917340594L424.3111979166667,261.4384931117162C442.4192708333333,269.35079448937296,478.6354166666667,285.1753972446865,496.7434895833333,299.7543652890099C514.8515625,314.3333333333333,514.8515625,327.6666666666667,514.8515625,334.3333333333333L514.8515625,341" id="edge117" class="relation" marker-start="url(#aggregationStart)"></path><path d="M253.96261160714286,276L249.1146763392857,280.1666666666667C244.26674107142858,284.3333333333333,234.5708705357143,292.6666666666667,220.23074776785714,302.154894568572C205.890625,311.64312247047735,186.90625,322.2862449409547,177.4140625,327.6078061761934L167.921875,332.92936741143205" id="edge118" class="relation" marker-start="url(#aggregationStart)"></path><path d="M352.73046875,547.8102189781022L318.0130208333333,556.0085158150852C283.2955729166667,564.2068126520682,213.86067708333334,580.603406326034,179.14322916666666,594.1350364963504C144.42578125,607.6666666666666,144.42578125,618.3333333333334,144.42578125,623.6666666666666L144.42578125,629" id="edge119" class="relation" marker-start="url(#extensionStart)"></path><path d="M352.73046875,560.4240514638309L336.9583333333333,566.5200428865257C321.1861979166667,572.6160343092206,289.6419270833333,584.8080171546103,273.8697916666667,596.2373419106385C258.09765625,607.6666666666666,258.09765625,618.3333333333334,258.09765625,623.6666666666666L258.09765625,629" id="edge120" class="relation" marker-start="url(#extensionStart)"></path><path d="M395.2664741847826,572L391.3503170289855,576.1666666666666C387.43415987318843,580.3333333333334,379.6018455615942,588.6666666666666,375.68568840579707,598.1666666666666C371.76953125,607.6666666666666,371.76953125,618.3333333333334,371.76953125,623.6666666666666L371.76953125,629" id="edge121" class="relation" marker-start="url(#extensionStart)"></path><path d="M477.9757133152174,572L481.8918704710145,576.1666666666666C485.80802762681157,580.3333333333334,493.6403419384058,588.6666666666666,497.55649909420293,598.1666666666666C501.47265625,607.6666666666666,501.47265625,618.3333333333334,501.47265625,623.6666666666666L501.47265625,629" id="edge122" class="relation" marker-start="url(#extensionStart)"></path><path d="M520.51171875,557.7523189977111L538.9557291666666,564.2935991647593C557.3997395833334,570.8348793318074,594.2877604166666,583.9174396659037,612.7317708333334,595.7920531662852C631.17578125,607.6666666666666,631.17578125,618.3333333333334,631.17578125,623.6666666666666L631.17578125,629" id="edge123" class="relation" marker-start="url(#extensionStart)"></path><path d="M514.8515625,419L514.8515625,425.6666666666667C514.8515625,432.3333333333333,514.8515625,445.6666666666667,510.1275003774155,456.5C505.4034382548309,467.3333333333333,495.95531400966183,475.6666666666667,491.23125188707735,479.8333333333333L486.50718976449275,484" id="edge124" class="relation" marker-start="url(#aggregationStart)"></path><path d="M520.51171875,545.9330525704328L560.3268229166666,554.4442104753606C600.1419270833334,562.9553683802885,679.7721354166666,579.9776841901443,719.5872395833334,592.6555087617388C759.40234375,605.3333333333334,759.40234375,613.6666666666666,759.40234375,617.8333333333334L759.40234375,622" id="edge125" class="relation" marker-start="url(#aggregationStart)"></path></svg>