<?xml version="1.0" encoding="UTF-8" standalone="no"?>
<!DOCTYPE svg PUBLIC "-//W3C//DTD SVG 1.1//EN" "http://www.w3.org/Graphics/SVG/1.1/DTD/svg11.dtd">
<svg width="100%" height="100%" viewBox="0 0 1200 800" version="1.1" xmlns="http://www.w3.org/2000/svg" xmlns:xlink="http://www.w3.org/1999/xlink" xml:space="preserve" xmlns:serif="http://www.serif.com/" style="fill-rule:evenodd;clip-rule:evenodd;stroke-linecap:round;stroke-linejoin:round;stroke-miterlimit:1.5;">
    <g>
        <g>
            <g>
                <g transform="matrix(-0.208723,0,0,0.807194,410.789,36.7695)">
                    <path d="M298.918,701.204L301.859,197.671" style="fill:none;stroke:black;stroke-width:6.78px;"/>
                </g>
                <g transform="matrix(1,0,0,1,49.48,-49.4374)">
                    <path d="M398.267,652.215L401.671,245.766" style="fill:rgb(255,0,0);stroke:black;stroke-width:4px;"/>
                </g>
                <g transform="matrix(2e-06,0,0,0.807194,551.346,37.2166)">
                    <path d="M501.111,701.204L503.067,197.671" style="fill:none;stroke:black;stroke-width:7.01px;"/>
                </g>
                <g transform="matrix(1,0,0,0.807194,49.48,37.2166)">
                    <path d="M600,701.204L600,197.671" style="fill:none;stroke:black;stroke-width:4.4px;"/>
                </g>
                <g transform="matrix(1,0,0,1,49.48,-49.4374)">
                    <path d="M698.077,652.215L699.725,245.766" style="fill:none;stroke:black;stroke-width:4px;"/>
                </g>
                <g transform="matrix(1,0,0,1,49.48,-49.4374)">
                    <path d="M801.303,652.215L804.054,245.766" style="fill:none;stroke:black;stroke-width:4px;"/>
                </g>
                <g transform="matrix(1,0,0,1,49.48,-49.4374)">
                    <path d="M250.543,301.782L854.925,301.327" style="fill:rgb(255,0,0);stroke:black;stroke-width:4px;"/>
                </g>
                <g transform="matrix(1,0,0,1,49.48,-49.4374)">
                    <path d="M255.773,400L854.925,401.993" style="fill:rgb(255,0,0);stroke:black;stroke-width:4px;"/>
                </g>
                <g transform="matrix(1,0,0,1,49.48,-49.4374)">
                    <path d="M250.543,502.894L854.925,501.196" style="fill:rgb(255,0,0);stroke:black;stroke-width:4px;"/>
                </g>
                <g transform="matrix(1,0,0,1,49.48,-49.4374)">
                    <path d="M250.543,603.147L854.925,597.72" style="fill:none;stroke:black;stroke-width:4px;"/>
                </g>
            </g>
            <g transform="matrix(1.07659,0,0,1.00594,168.436,294.951)">
                <rect x="355.52" y="155.52" width="90.688" height="95.505" style="fill:rgb(61,61,61);stroke:rgb(45,45,45);stroke-width:3.84px;"/>
            </g>
            <g transform="matrix(1.07659,0,0,0.529982,168.599,470.186)">
                <rect x="355.52" y="155.52" width="90.688" height="95.505" style="fill:rgb(61,61,61);stroke:rgb(45,45,45);stroke-width:4.71px;"/>
            </g>
            <g transform="matrix(1.07659,0,0,0.529982,168.599,470.186)">
                <rect x="355.52" y="155.52" width="90.688" height="95.505" style="fill:rgb(61,61,61);stroke:rgb(45,45,45);stroke-width:4.71px;"/>
            </g>
            <g transform="matrix(1.07659,0,0,1.00594,168.436,96.0878)">
                <rect x="355.52" y="155.52" width="90.688" height="95.505" style="fill:rgb(61,61,61);stroke:rgb(45,45,45);stroke-width:3.84px;"/>
            </g>
            <g transform="matrix(1.07659,0,0,0.553316,168.273,110.724)">
                <rect x="355.52" y="155.52" width="90.688" height="95.505" style="fill:rgb(61,61,61);stroke:rgb(45,45,45);stroke-width:4.67px;"/>
            </g>
            <g transform="matrix(1.07659,0,0,0.553316,168.273,110.724)">
                <rect x="355.52" y="155.52" width="90.688" height="95.505" style="fill:rgb(61,61,61);stroke:rgb(45,45,45);stroke-width:4.67px;"/>
            </g>
        </g>
        <g transform="matrix(0.866923,0,0,0.870873,-51.1912,-29.2462)">
            <rect x="99.363" y="299.435" width="75.652" height="78.011" style="fill:none;stroke:rgb(67,67,67);stroke-width:4.6px;"/>
        </g>
        <g transform="matrix(0.866923,0,0,0.870873,901.129,-26.1073)">
            <rect x="99.363" y="299.435" width="75.652" height="78.011" style="fill:none;stroke:rgb(67,67,67);stroke-width:4.6px;"/>
        </g>
        <g transform="matrix(0.866923,0,0,0.870873,-51.1912,38.6918)">
            <rect x="99.363" y="299.435" width="75.652" height="78.011" style="fill:none;stroke:rgb(67,67,67);stroke-width:4.6px;"/>
        </g>
        <g transform="matrix(0.866923,0,0,0.870873,901.129,41.8307)">
            <rect x="99.363" y="299.435" width="75.652" height="78.011" style="fill:none;stroke:rgb(67,67,67);stroke-width:4.6px;"/>
        </g>
        <g transform="matrix(0.866923,0,0,0.870873,-51.1912,106.63)">
            <rect x="99.363" y="299.435" width="75.652" height="78.011" style="fill:none;stroke:rgb(67,67,67);stroke-width:4.6px;"/>
        </g>
        <g transform="matrix(0.866923,0,0,0.870873,901.129,109.769)">
            <rect x="99.363" y="299.435" width="75.652" height="78.011" style="fill:none;stroke:rgb(67,67,67);stroke-width:4.6px;"/>
        </g>
        <g transform="matrix(0.866923,0,0,0.870873,64.6011,-29.2462)">
            <rect x="99.363" y="299.435" width="75.652" height="78.011" style="fill:none;stroke:rgb(67,67,67);stroke-width:4.6px;"/>
        </g>
        <g transform="matrix(0.866923,0,0,0.870873,1016.92,-26.1073)">
            <rect x="99.363" y="299.435" width="75.652" height="78.011" style="fill:rgb(17,0,255);fill-opacity:0.23;stroke:rgb(57,57,57);stroke-width:4.6px;"/>
        </g>
        <g transform="matrix(0.866923,0,0,0.870873,64.6011,38.6918)">
            <rect x="99.363" y="299.435" width="75.652" height="78.011" style="fill:none;stroke:rgb(67,67,67);stroke-width:4.6px;"/>
        </g>
        <g transform="matrix(0.866923,0,0,0.870873,1016.92,41.8307)">
            <rect x="99.363" y="299.435" width="75.652" height="78.011" style="fill:rgb(17,0,255);fill-opacity:0.23;stroke:rgb(57,57,57);stroke-width:4.6px;"/>
        </g>
        <g transform="matrix(0.866923,0,0,0.870873,64.6011,106.63)">
            <rect x="99.363" y="299.435" width="75.652" height="78.011" style="fill:none;stroke:rgb(67,67,67);stroke-width:4.6px;"/>
        </g>
        <g transform="matrix(0.866923,0,0,0.870873,1016.92,109.769)">
            <rect x="99.363" y="299.435" width="75.652" height="78.011" style="fill:rgb(17,0,255);fill-opacity:0.23;stroke:rgb(57,57,57);stroke-width:4.6px;"/>
        </g>
        <path d="M358.171,58.6C356.228,60.033 360.158,119.781 360.158,133.277" style="fill:none;stroke:rgb(0,5,190);stroke-width:4px;"/>
        <path d="M361.716,64.461C362.412,63.45 360.934,62.704 364.906,61.259C413.355,43.642 381.058,103.528 368.863,91.333C367.522,89.992 373.987,88.172 374.648,87.983C381.925,85.904 394.372,89.638 394.98,98.455C396.42,119.35 381.521,120.615 364.115,120.615" style="fill:none;stroke:rgb(0,5,190);stroke-width:4px;"/>
        <path d="M407.587,66.254C409.141,59.313 409.225,137.31 409.225,121.406" style="fill:none;stroke:rgb(0,5,190);stroke-width:4px;"/>
        <path d="M424.588,99.147C417.957,101.185 421.283,129.258 435.342,124.572C447.771,120.429 448.004,108.616 448.004,97.664C448.004,97.433 448.838,90.499 446.421,92.916" style="fill:none;stroke:rgb(0,5,190);stroke-width:4px;"/>
        <path d="M468.042,105.754C465.97,104.315 491.895,108.864 485.2,95.29C474.88,74.364 440.799,119.453 472.538,124.572C479.32,125.666 481.887,120.615 487.575,120.615" style="fill:none;stroke:rgb(0,5,190);stroke-width:4px;"/>
        <path d="M566.365,91.291C569.196,91.628 573.861,124.973 584.918,127.738C590.443,129.119 588.326,116.786 588.875,111.118C589.282,106.909 589.354,102.673 589.666,98.455C590.045,93.348 591.249,87.779 591.249,82.627" style="fill:none;stroke:rgb(0,5,190);stroke-width:4px;"/>
        <path d="M582.855,90.868C580.346,88.238 585.666,97.578 587.292,100.83C592.572,111.389 597.055,119.231 606.286,126.155C606.758,126.509 607.452,127.363 607.869,126.946C608.845,125.97 607.869,87.217 607.869,81.836" style="fill:none;stroke:rgb(0,5,190);stroke-width:4px;"/>
        <path d="M628.915,125.876C629.32,126.227 629.645,98.123 628.445,92.124" style="fill:none;stroke:rgb(0,5,190);stroke-width:4px;"/>
        <path d="M628.297,82.166C629.197,80.159 625.28,78.496 625.28,76.296" style="fill:none;stroke:rgb(0,5,190);stroke-width:4px;"/>
        <path d="M646.855,127.971C643.754,124.484 642.856,107.69 641.899,100.038C641.668,98.187 641.108,94.498 641.108,94.498L645.856,123.781L645.856,118.241C645.856,112.82 649.623,90.052 659.92,92.112C673.311,94.79 665.642,122.276 665.642,128.529" style="fill:none;stroke:rgb(0,5,190);stroke-width:4px;"/>
        <path d="M691.572,96.528C692.392,98.047 692.623,93.891 692.549,93.707C688.348,83.203 672.324,94.18 674.426,102.589C676.62,111.365 700.941,104.373 702.849,117.726C704.567,129.754 681.957,140.376 676.721,128.529" style="fill:none;stroke:rgb(0,5,190);stroke-width:4px;"/>
        <path d="M727.99,54.833C731.053,56.517 728.656,81.489 729.746,95.29C729.922,97.529 733.152,115.384 731.328,119.032C730.537,120.615 729.301,116.019 728.954,114.284" style="fill:none;stroke:rgb(0,5,190);stroke-width:4px;"/>
        <path d="M730.3,135.504C730.793,135.811 728.829,123.313 734.494,130.112C736.414,132.416 736.198,133.713 736.077,136.443C735.74,144.062 721.741,141.282 726.58,136.443" style="fill:none;stroke:rgb(0,5,190);stroke-width:4px;"/>
        <g transform="matrix(3.72963,0,0,3.72963,-149.371,-524.632)">
            <text x="51.394px" y="196.499px" style="font-family:'ArialMT', 'Arial', sans-serif;font-size:24px;fill:rgb(255,0,7);">1</text>
        </g>
        <g transform="matrix(3.72963,0,0,3.72963,802.949,-521.493)">
            <text x="51.394px" y="196.499px" style="font-family:'ArialMT', 'Arial', sans-serif;font-size:24px;fill:rgb(0,3,255);">1</text>
        </g>
        <g transform="matrix(3.72963,0,0,3.72963,-492.12,-480.792)">
            <text x="175.189px" y="184.745px" style="font-family:'ArialMT', 'Arial', sans-serif;font-size:24px;fill:rgb(255,0,7);">2</text>
        </g>
        <g transform="matrix(3.72963,0,0,3.72963,460.2,-477.653)">
            <text x="175.189px" y="184.745px" style="font-family:'ArialMT', 'Arial', sans-serif;font-size:24px;fill:rgb(0,6,255);">2</text>
        </g>
    </g>
    <g transform="matrix(1,0,0,1,-213.587,9.65239)">
        <g transform="matrix(1,0,0,1,16.3547,-231.668)">
            <circle cx="382.449" cy="730.133" r="31.11" style="fill:rgb(255,0,0);stroke:rgb(255,0,0);stroke-width:4px;"/>
        </g>
        <g transform="matrix(1.7798,-0.141221,0,1.7798,-133.386,-371.397)">
            <text x="292.405px" y="520.625px" style="font-family:'ArialMT', 'Arial', sans-serif;font-size:24px;fill:white;">2</text>
        </g>
    </g>
    <path d="M1118.38,251.197C1117.8,250.478 1118.8,250.811 1119.3,251.43C1121.82,254.537 1124.44,257.568 1126.92,260.709C1132.7,268.032 1139.39,275.07 1144.82,282.582C1145.65,283.733 1151.42,293.875 1152.11,293.186" style="fill:none;stroke:rgb(67,67,67);stroke-width:4px;"/>
    <path d="M1121.72,288.706C1120.96,287.557 1126.1,281.978 1127.58,279.93C1132.58,273.055 1136.2,265.017 1141.5,258.389C1143.68,255.67 1145.87,254.038 1148.46,252.093C1148.85,251.801 1151.47,248.092 1150.12,249.442" style="fill:none;stroke:rgb(67,67,67);stroke-width:4px;"/>
    <path d="M1119.35,287.568C1116.18,286.664 1116.92,278.402 1120.29,277.279C1123.78,276.117 1127.91,281.323 1127.91,280.593" style="fill:none;stroke:rgb(67,67,67);stroke-width:4px;"/>
    <path d="M1148.14,286.21C1147.04,287.922 1146.67,278.292 1152.44,281.587C1156.09,283.672 1158.62,291.529 1152.44,291.529" style="fill:none;stroke:rgb(67,67,67);stroke-width:4px;"/>
    <path d="M1139.62,280.457C1138.16,282.38 1144,277.432 1145.48,275.954" style="fill:none;stroke:rgb(67,67,67);stroke-width:4px;"/>
    <path d="M1127.13,273.743C1127.38,273.515 1131.5,277.412 1134.54,278.936" style="fill:none;stroke:rgb(67,67,67);stroke-width:4px;"/>
    <g transform="matrix(1,0,0,1,-332.091,201.91)">
        <g transform="matrix(1,0,0,1,15.7011,-426.772)">
            <circle cx="382.449" cy="730.133" r="31.11" style="fill:rgb(255,0,0);stroke:rgb(255,0,0);stroke-width:4px;"/>
        </g>
        <g transform="matrix(2.45329,0,0,2.45329,-603.206,-409.343)">
            <text x="400.896px" y="299.073px" style="font-family:'ArialMT', 'Arial', sans-serif;font-size:24px;fill:white;">1</text>
        </g>
    </g>
    <g transform="matrix(1,0,0,1,-100.266,-198.251)">
        <g transform="matrix(1,0,0,1,249.17,-229.281)">
            <circle cx="551.737" cy="730.133" r="31.11" style="fill:rgb(12,0,255);stroke:rgb(0,2,255);stroke-width:4px;"/>
        </g>
        <g transform="matrix(1.7798,0,0,1.7798,269.286,-411.303)">
            <text x="292.405px" y="520.625px" style="font-family:'ArialMT', 'Arial', sans-serif;font-size:24px;fill:white;">2</text>
        </g>
    </g>
    <g transform="matrix(1,0,0,1,227.1,220.852)">
        <g transform="matrix(1,0,0,1,249.17,-433.111)">
            <circle cx="551.737" cy="730.133" r="31.11" style="fill:rgb(12,0,255);stroke:rgb(0,2,255);stroke-width:4px;"/>
        </g>
        <g transform="matrix(2.45329,0,0,2.45329,-199.08,-417.394)">
            <text x="400.896px" y="299.073px" style="font-family:'ArialMT', 'Arial', sans-serif;font-size:24px;fill:white;">1</text>
        </g>
    </g>
</svg>
