<?xml version="1.0" encoding="UTF-8" standalone="no"?>
<!DOCTYPE svg PUBLIC "-//W3C//DTD SVG 1.1//EN" "http://www.w3.org/Graphics/SVG/1.1/DTD/svg11.dtd">
<svg width="100%" height="100%" viewBox="0 0 1200 800" version="1.1" xmlns="http://www.w3.org/2000/svg" xmlns:xlink="http://www.w3.org/1999/xlink" xml:space="preserve" xmlns:serif="http://www.serif.com/" style="fill-rule:evenodd;clip-rule:evenodd;stroke-linecap:round;stroke-linejoin:round;stroke-miterlimit:1.5;">
    <g>
        <g>
            <g>
                <g transform="matrix(-0.208723,0,0,0.807194,410.789,36.7695)">
                    <path d="M298.918,701.204L301.859,197.671" style="fill:none;stroke:black;stroke-width:6.78px;"/>
                </g>
                <g transform="matrix(1,0,0,1,49.48,-49.4374)">
                    <path d="M398.267,652.215L401.671,245.766" style="fill:rgb(255,0,0);stroke:black;stroke-width:4px;"/>
                </g>
                <g transform="matrix(2e-06,0,0,0.807194,551.346,37.2166)">
                    <path d="M501.111,701.204L503.067,197.671" style="fill:none;stroke:black;stroke-width:7.01px;"/>
                </g>
                <g transform="matrix(1,0,0,0.807194,49.48,37.2166)">
                    <path d="M600,701.204L600,197.671" style="fill:none;stroke:black;stroke-width:4.4px;"/>
                </g>
                <g transform="matrix(1,0,0,1,49.48,-49.4374)">
                    <path d="M698.077,652.215L699.725,245.766" style="fill:none;stroke:black;stroke-width:4px;"/>
                </g>
                <g transform="matrix(1,0,0,1,49.48,-49.4374)">
                    <path d="M801.303,652.215L804.054,245.766" style="fill:none;stroke:black;stroke-width:4px;"/>
                </g>
                <g transform="matrix(1,0,0,1,49.48,-49.4374)">
                    <path d="M250.543,301.782L854.925,301.327" style="fill:rgb(255,0,0);stroke:black;stroke-width:4px;"/>
                </g>
                <g transform="matrix(1,0,0,1,49.48,-49.4374)">
                    <path d="M255.773,400L854.925,401.993" style="fill:rgb(255,0,0);stroke:black;stroke-width:4px;"/>
                </g>
                <g transform="matrix(1,0,0,1,49.48,-49.4374)">
                    <path d="M250.543,502.894L854.925,501.196" style="fill:rgb(255,0,0);stroke:black;stroke-width:4px;"/>
                </g>
                <g transform="matrix(1,0,0,1,49.48,-49.4374)">
                    <path d="M250.543,603.147L854.925,597.72" style="fill:none;stroke:black;stroke-width:4px;"/>
                </g>
            </g>
            <g transform="matrix(1.07659,0,0,1.00594,168.436,294.951)">
                <rect x="355.52" y="155.52" width="90.688" height="95.505" style="fill:rgb(61,61,61);stroke:rgb(45,45,45);stroke-width:3.84px;"/>
            </g>
            <g transform="matrix(1.07659,0,0,0.529982,168.599,470.186)">
                <rect x="355.52" y="155.52" width="90.688" height="95.505" style="fill:rgb(61,61,61);stroke:rgb(45,45,45);stroke-width:4.71px;"/>
            </g>
            <g transform="matrix(1.07659,0,0,0.529982,168.599,470.186)">
                <rect x="355.52" y="155.52" width="90.688" height="95.505" style="fill:rgb(61,61,61);stroke:rgb(45,45,45);stroke-width:4.71px;"/>
            </g>
            <g transform="matrix(1.07659,0,0,1.00594,168.436,96.0878)">
                <rect x="355.52" y="155.52" width="90.688" height="95.505" style="fill:rgb(61,61,61);stroke:rgb(45,45,45);stroke-width:3.84px;"/>
            </g>
            <g transform="matrix(1.07659,0,0,0.553316,168.273,110.724)">
                <rect x="355.52" y="155.52" width="90.688" height="95.505" style="fill:rgb(61,61,61);stroke:rgb(45,45,45);stroke-width:4.67px;"/>
            </g>
            <g transform="matrix(1.07659,0,0,0.553316,168.273,110.724)">
                <rect x="355.52" y="155.52" width="90.688" height="95.505" style="fill:rgb(61,61,61);stroke:rgb(45,45,45);stroke-width:4.67px;"/>
            </g>
        </g>
        <g transform="matrix(0.866923,0,0,0.870873,-51.1912,-29.2462)">
            <rect x="99.363" y="299.435" width="75.652" height="78.011" style="fill:none;stroke:rgb(67,67,67);stroke-width:4.6px;"/>
        </g>
        <g transform="matrix(0.866923,0,0,0.870873,901.129,-26.1073)">
            <rect x="99.363" y="299.435" width="75.652" height="78.011" style="fill:none;stroke:rgb(67,67,67);stroke-width:4.6px;"/>
        </g>
        <g transform="matrix(0.866923,0,0,0.870873,-51.1912,38.6918)">
            <rect x="99.363" y="299.435" width="75.652" height="78.011" style="fill:none;stroke:rgb(67,67,67);stroke-width:4.6px;"/>
        </g>
        <g transform="matrix(0.866923,0,0,0.870873,901.129,41.8307)">
            <rect x="99.363" y="299.435" width="75.652" height="78.011" style="fill:none;stroke:rgb(67,67,67);stroke-width:4.6px;"/>
        </g>
        <g transform="matrix(0.866923,0,0,0.870873,-51.1912,106.63)">
            <rect x="99.363" y="299.435" width="75.652" height="78.011" style="fill:none;stroke:rgb(67,67,67);stroke-width:4.6px;"/>
        </g>
        <g transform="matrix(0.866923,0,0,0.870873,901.129,109.769)">
            <rect x="99.363" y="299.435" width="75.652" height="78.011" style="fill:none;stroke:rgb(67,67,67);stroke-width:4.6px;"/>
        </g>
        <g transform="matrix(0.866923,0,0,0.870873,64.6011,-29.2462)">
            <rect x="99.363" y="299.435" width="75.652" height="78.011" style="fill:none;stroke:rgb(67,67,67);stroke-width:4.6px;"/>
        </g>
        <g transform="matrix(0.866923,0,0,0.870873,1016.92,-26.1073)">
            <rect x="99.363" y="299.435" width="75.652" height="78.011" style="fill:none;stroke:rgb(67,67,67);stroke-width:4.6px;"/>
        </g>
        <g transform="matrix(0.866923,0,0,0.870873,64.6011,38.6918)">
            <rect x="99.363" y="299.435" width="75.652" height="78.011" style="fill:none;stroke:rgb(67,67,67);stroke-width:4.6px;"/>
        </g>
        <g transform="matrix(0.866923,0,0,0.870873,1016.92,41.8307)">
            <rect x="99.363" y="299.435" width="75.652" height="78.011" style="fill:none;stroke:rgb(67,67,67);stroke-width:4.6px;"/>
        </g>
        <g transform="matrix(0.866923,0,0,0.870873,64.6011,106.63)">
            <rect x="99.363" y="299.435" width="75.652" height="78.011" style="fill:none;stroke:rgb(67,67,67);stroke-width:4.6px;"/>
        </g>
        <path d="M1019.15,249.921C1018.34,249.196 1019.39,246.856 1019.42,246.948C1023.55,259.332 1019.89,276.523 1019.89,289.819" style="fill:none;stroke:rgb(67,67,67);stroke-width:4px;"/>
        <path d="M1013.6,283.426C1014.66,282.812 1020.11,297.052 1021.75,295.411C1025.01,292.155 1024.72,283.588 1028.28,280.033" style="fill:none;stroke:rgb(67,67,67);stroke-width:4px;"/>
        <path d="M1129.52,357.884C1128.37,357.601 1129.93,357.026 1129.39,349.466C1128.8,341.153 1128,333.109 1128,324.768C1128,323.526 1127.89,322.279 1128,321.04C1128.1,319.782 1130.27,320.574 1128.93,320.574" style="fill:none;stroke:rgb(67,67,67);stroke-width:4px;"/>
        <path d="M1122.85,326.668C1125.47,323.045 1124.52,315.449 1129.86,315.449C1132.57,315.449 1133.54,325.597 1134.52,327.564C1135.32,329.165 1139.51,331.758 1137.78,331.758" style="fill:none;stroke:rgb(67,67,67);stroke-width:4px;"/>
        <path d="M1032.26,339.691C1034.68,339.566 1027.43,339.68 1025.01,339.68C1020.97,339.68 1002.53,338.748 1005.44,338.748" style="fill:none;stroke:rgb(67,67,67);stroke-width:4px;"/>
        <path d="M1005.57,339.015C1003.76,341.797 1010.07,333.403 1009.63,333.622C1008.55,334.167 1001.86,341.018 1002.64,341.544C1004.57,342.83 1007.51,343.127 1009.63,344.34C1010.8,345.003 1014.23,346.67 1012.9,346.67C1012.18,346.67 1011.49,345.724 1011.03,345.272" style="fill:none;stroke:rgb(67,67,67);stroke-width:4px;"/>
        <path d="M1007.98,403.665C1006.89,402.899 1002.72,403.055 1004.04,403.055C1014.08,403.055 1026.09,402.123 1034.8,402.123" style="fill:none;stroke:rgb(67,67,67);stroke-width:4px;"/>
        <path d="M1003.77,402.562C1000.86,402.974 1009.17,395.599 1009.17,395.599C1009.17,395.599 1008.67,396.92 1008.24,397.463C1006.59,399.524 1000.32,403.91 1000.32,406.317C1000.32,408.779 1013.58,414.239 1010.1,414.239" style="fill:none;stroke:rgb(67,67,67);stroke-width:4px;"/>
        <path d="M1121.86,402.989C1123.36,404.316 1115.88,402.589 1115.88,402.589C1115.88,402.589 1127.06,403.521 1132.66,403.521C1139.8,403.521 1147.02,403.987 1153.63,403.987C1154.32,403.987 1152.34,403.44 1151.76,403.055" style="fill:none;stroke:rgb(67,67,67);stroke-width:4px;"/>
        <path d="M1117.6,401.506C1118.17,402.081 1115.41,403.4 1115.41,402.589C1115.41,401.717 1116.63,400.309 1117.28,399.793C1118.68,398.675 1120.08,397.648 1121.47,396.531C1122.29,395.88 1125.01,394.396 1124.27,395.133C1123.26,396.14 1112.71,403.43 1114.02,405.385C1115.72,407.939 1120.65,408.234 1123.34,409.579C1123.77,409.796 1123.8,410.441 1123.8,410.045" style="fill:none;stroke:rgb(67,67,67);stroke-width:4px;"/>
        <g transform="matrix(0.866923,0,0,0.870873,1016.92,109.769)">
            <rect x="99.363" y="299.435" width="75.652" height="78.011" style="fill:none;stroke:rgb(67,67,67);stroke-width:4.6px;"/>
        </g>
        <g transform="matrix(3.72963,0,0,3.72963,-149.371,-524.632)">
            <text x="51.394px" y="196.499px" style="font-family:'ArialMT', 'Arial', sans-serif;font-size:24px;fill:rgb(255,0,7);">1</text>
        </g>
        <g transform="matrix(3.72963,0,0,3.72963,802.949,-521.493)">
            <text x="51.394px" y="196.499px" style="font-family:'ArialMT', 'Arial', sans-serif;font-size:24px;fill:rgb(0,3,255);">1</text>
        </g>
        <g transform="matrix(3.72963,0,0,3.72963,-492.12,-480.792)">
            <text x="175.189px" y="184.745px" style="font-family:'ArialMT', 'Arial', sans-serif;font-size:24px;fill:rgb(255,0,7);">2</text>
        </g>
        <g transform="matrix(3.72963,0,0,3.72963,460.2,-477.653)">
            <text x="175.189px" y="184.745px" style="font-family:'ArialMT', 'Arial', sans-serif;font-size:24px;fill:rgb(0,6,255);">2</text>
        </g>
    </g>
    <g transform="matrix(1,0,0,1,101.48,4.34934)">
        <g transform="matrix(1,0,0,1,16.3547,-231.668)">
            <circle cx="382.449" cy="730.133" r="31.11" style="fill:rgb(255,0,0);stroke:rgb(255,0,0);stroke-width:4px;"/>
        </g>
        <g transform="matrix(1.7798,-0.141221,0,1.7798,-133.386,-371.397)">
            <text x="292.405px" y="520.625px" style="font-family:'ArialMT', 'Arial', sans-serif;font-size:24px;fill:white;">2</text>
        </g>
    </g>
    <g transform="matrix(1,0,0,1,101.54,-6.41332)">
        <g transform="matrix(1,0,0,1,15.7011,-426.772)">
            <circle cx="382.449" cy="730.133" r="31.11" style="fill:rgb(255,0,0);stroke:rgb(255,0,0);stroke-width:4px;"/>
        </g>
        <g transform="matrix(2.45329,0,0,2.45329,-603.206,-409.343)">
            <text x="400.896px" y="299.073px" style="font-family:'ArialMT', 'Arial', sans-serif;font-size:24px;fill:white;">1</text>
        </g>
    </g>
    <g>
        <g transform="matrix(1,0,0,1,249.17,-229.281)">
            <circle cx="551.737" cy="730.133" r="31.11" style="fill:rgb(12,0,255);stroke:rgb(0,2,255);stroke-width:4px;"/>
        </g>
        <g transform="matrix(1.7798,0,0,1.7798,269.286,-411.303)">
            <text x="292.405px" y="520.625px" style="font-family:'ArialMT', 'Arial', sans-serif;font-size:24px;fill:white;">2</text>
        </g>
    </g>
    <g transform="matrix(1,0,0,1,0,3.35465)">
        <g transform="matrix(1,0,0,1,249.17,-433.111)">
            <circle cx="551.737" cy="730.133" r="31.11" style="fill:rgb(12,0,255);stroke:rgb(0,2,255);stroke-width:4px;"/>
        </g>
        <g transform="matrix(2.45329,0,0,2.45329,-199.08,-417.394)">
            <text x="400.896px" y="299.073px" style="font-family:'ArialMT', 'Arial', sans-serif;font-size:24px;fill:white;">1</text>
        </g>
    </g>
    <path d="M802.271,302.058C802.261,301.169 796.609,295.001 800.565,293.682C804.261,292.45 809.076,298.049 805.531,301.003C803.343,302.826 794.664,301.203 797.609,297.275C801.776,291.719 811.075,299.909 807.29,303.694C803.986,306.999 794.135,301.561 797.143,298.673C799.776,296.146 806.874,296.448 805.065,301.469C803.058,307.041 793.394,298.358 797.609,295.411C802.223,292.186 807.539,301.306 803.201,301.469C801.108,301.548 799.988,300.537 798.075,300.537" style="fill:none;stroke:rgb(67,67,67);stroke-width:4px;"/>
    <path d="M802.144,298.536C802.737,299.186 800.405,300.858 800.405,305.663C800.405,314.937 799.521,323.908 799.007,333.156C798.411,343.887 798.075,354.142 798.075,364.844C798.075,366.142 798.796,375.306 798.075,376.027C796.373,377.729 794.715,373.942 792.95,372.765C791.965,372.109 790.895,368.519 791.552,369.503C792.183,370.451 797.237,380.593 799.007,378.823C800.318,377.512 805.065,370.769 805.065,370.901" style="fill:none;stroke:rgb(67,67,67);stroke-width:4px;"/>
    <path d="M711.738,377.133C712.38,376.27 738.774,375.774 745.885,376.959C752.295,378.028 771.675,372.927 776.174,377.425C778.347,379.598 767.903,381.009 770.582,374.163C771.699,371.31 779.932,375.531 777.572,377.891C773.499,381.964 764.958,378.093 769.65,373.231C771.244,371.58 777.262,374.735 778.038,376.027C779.481,378.432 772.069,381.054 771.514,380.221C771.162,379.693 769.522,375.07 771.98,375.561C772.97,375.759 775.96,379.541 774.776,378.357" style="fill:none;stroke:rgb(67,67,67);stroke-width:4px;"/>
    <path d="M706.361,378.189C704.694,381.464 716.796,373.034 714.197,370.435C712.571,368.809 706.474,379.885 707.207,382.085C707.623,383.331 719.862,385.347 715.595,385.347" style="fill:none;stroke:rgb(67,67,67);stroke-width:4px;"/>
    <path d="M691.291,379.292C692.353,379.253 688.853,380.041 688.102,379.289C686.493,377.681 687.571,374.003 689.5,373.231C696.931,370.259 690.113,384.04 688.102,380.687C684.115,374.043 694.16,372.299 694.16,378.823C694.16,382.501 688.347,381.644 687.17,379.289C684.695,374.34 693.925,372.873 694.626,376.027C695.854,381.557 688.928,384.67 686.238,379.289C684.554,375.922 691.529,373.118 693.6,375.189C698.508,380.096 682.738,381.543 688.102,379.755" style="fill:none;stroke:rgb(67,67,67);stroke-width:4px;"/>
    <path d="M614.911,377.133C615.071,376.22 612.145,377.425 612.145,377.425L614.009,377.425C619.209,377.425 624.659,377.858 629.853,377.425C642.583,376.364 654.976,376.493 667.598,376.493C672.685,376.493 681.232,375.155 685.772,377.425C687.384,378.232 694.082,378.823 691.364,378.823" style="fill:none;stroke:rgb(67,67,67);stroke-width:4px;"/>
    <path d="M610.341,379.233C609.042,380.473 616.698,373.123 618.203,371.367C618.709,370.778 620.378,369.503 619.601,369.503C614.382,369.503 610.281,382.085 610.281,382.085C610.281,382.085 621.444,388.588 619.135,386.279" style="fill:none;stroke:rgb(67,67,67);stroke-width:4px;"/>
    <path d="M807.394,339.869C807.395,339.789 811.986,333.344 812.055,333.622C812.952,337.208 811.589,343.274 811.589,347.136" style="fill-opacity:0;stroke:rgb(67,67,67);stroke-width:4px;"/>
    <path d="M722.035,363.331C718.829,362.171 724.379,355.416 727.48,359.55C729.189,361.829 727.199,366.447 725.15,367.472C721.57,369.262 731.674,367.938 732.605,367.938" style="fill:none;stroke:rgb(67,67,67);stroke-width:4px;"/>
    <path d="M630.016,361.422C632.801,361.114 635.022,354.934 637.415,362.113C638.404,365.08 631.375,365.253 631.486,365.142C634.472,362.155 643.669,373.53 631.952,373.53" style="fill:none;stroke:rgb(67,67,67);stroke-width:4px;"/>
    <path d="M800.076,499.499C800.321,499.12 798.741,500.711 798.31,500.279C797.189,499.159 797.197,494.808 799.172,494.314C801.672,493.689 804.644,498.606 802.97,500.279C801.515,501.734 798.431,502.568 796.912,500.745C794.016,497.27 798.135,494.023 801.572,496.085C805.901,498.683 802.631,504.516 798.31,503.075C793.99,501.635 797.521,493.27 802.038,496.551C809.846,502.222 798.011,502.908 799.242,501.677" style="fill:none;stroke:rgb(67,67,67);stroke-width:4px;"/>
    <path d="M801.246,498.147C797.434,492.767 802.97,461.367 802.97,453.214C802.97,452.054 802.959,435.517 802.038,436.438" style="fill:none;stroke:rgb(67,67,67);stroke-width:4px;"/>
    <path d="M799.586,438.051C800.149,437.064 795.776,440.166 796.912,440.166C799.573,440.166 799.361,430.44 802.038,431.779C804.501,433.01 807.833,442.962 806.232,442.962" style="fill:none;stroke:rgb(67,67,67);stroke-width:4px;"/>
    <path d="M813.486,461C814.15,461.446 811.38,459.937 811.824,459.272C813.096,457.364 816.417,456.908 818.348,457.874C824.521,460.96 814.51,468.592 821.61,468.592L825.338,468.592" style="fill:none;stroke:rgb(67,67,67);stroke-width:4px;"/>
    <path d="M787.219,431.445C786.15,429.924 785.097,436.263 783.398,435.506C779.671,433.847 782.172,426.618 787.126,429.449C792.469,432.501 785.44,437.292 782.595,434.446C779.558,431.41 783.103,428.786 786.194,430.847C788.978,432.702 787.648,436.746 784.33,435.972C782.066,435.445 780.663,431.064 783.398,430.381C786.963,429.489 787.29,433.643 783.398,433.643" style="fill:none;stroke:rgb(67,67,67);stroke-width:4px;"/>
    <path d="M708.989,433.295C707.227,431.897 713.137,435.188 715.364,435.506C719.346,436.075 723.971,435.071 727.946,434.575C738.013,433.316 760.813,429.34 770.351,434.109C772.962,435.414 790.127,433.438 788.99,434.575" style="fill:none;stroke:rgb(67,67,67);stroke-width:4px;"/>
    <path d="M706.032,435.027C706.483,435.553 703.69,435.482 704.18,435.972C705.564,437.356 717.023,428.983 713.966,428.983C711.064,428.983 703.641,435.07 704.18,438.302C704.902,442.635 713.966,440.689 713.966,443.428" style="fill:none;stroke:rgb(67,67,67);stroke-width:4px;"/>
    <path d="M761.585,413.927C760.546,415.615 765.528,408.934 768.021,412.673C769.307,414.602 766.14,420.112 763.827,417.799C762.15,416.122 769.296,419.23 769.885,421.527C770.695,424.69 766.404,425.131 764.293,426.187" style="fill:none;stroke:rgb(67,67,67);stroke-width:4px;"/>
</svg>
