<?xml version="1.0" encoding="UTF-8" standalone="no"?>
<!DOCTYPE svg PUBLIC "-//W3C//DTD SVG 1.1//EN" "http://www.w3.org/Graphics/SVG/1.1/DTD/svg11.dtd">
<svg width="100%" height="100%" viewBox="0 0 1200 800" version="1.1" xmlns="http://www.w3.org/2000/svg" xmlns:xlink="http://www.w3.org/1999/xlink" xml:space="preserve" xmlns:serif="http://www.serif.com/" style="fill-rule:evenodd;clip-rule:evenodd;stroke-linecap:round;stroke-linejoin:round;stroke-miterlimit:1.5;">
    <g>
        <g>
            <g>
                <g transform="matrix(-0.208723,0,0,0.807194,410.789,36.7695)">
                    <path d="M298.918,701.204L301.859,197.671" style="fill:none;stroke:black;stroke-width:6.78px;"/>
                </g>
                <g transform="matrix(1,0,0,1,49.48,-49.4374)">
                    <path d="M398.267,652.215L401.671,245.766" style="fill:rgb(255,0,0);stroke:black;stroke-width:4px;"/>
                </g>
                <g transform="matrix(2e-06,0,0,0.807194,551.346,37.2166)">
                    <path d="M501.111,701.204L503.067,197.671" style="fill:none;stroke:black;stroke-width:7.01px;"/>
                </g>
                <g transform="matrix(1,0,0,0.807194,49.48,37.2166)">
                    <path d="M600,701.204L600,197.671" style="fill:none;stroke:black;stroke-width:4.4px;"/>
                </g>
                <g transform="matrix(1,0,0,1,49.48,-49.4374)">
                    <path d="M698.077,652.215L699.725,245.766" style="fill:none;stroke:black;stroke-width:4px;"/>
                </g>
                <g transform="matrix(1,0,0,1,49.48,-49.4374)">
                    <path d="M801.303,652.215L804.054,245.766" style="fill:none;stroke:black;stroke-width:4px;"/>
                </g>
                <g transform="matrix(1,0,0,1,49.48,-49.4374)">
                    <path d="M250.543,301.782L854.925,301.327" style="fill:rgb(255,0,0);stroke:black;stroke-width:4px;"/>
                </g>
                <g transform="matrix(1,0,0,1,49.48,-49.4374)">
                    <path d="M255.773,400L854.925,401.993" style="fill:rgb(255,0,0);stroke:black;stroke-width:4px;"/>
                </g>
                <g transform="matrix(1,0,0,1,49.48,-49.4374)">
                    <path d="M250.543,502.894L854.925,501.196" style="fill:rgb(255,0,0);stroke:black;stroke-width:4px;"/>
                </g>
                <g transform="matrix(1,0,0,1,49.48,-49.4374)">
                    <path d="M250.543,603.147L854.925,597.72" style="fill:none;stroke:black;stroke-width:4px;"/>
                </g>
            </g>
            <g transform="matrix(1.07659,0,0,1.00594,168.436,294.951)">
                <rect x="355.52" y="155.52" width="90.688" height="95.505" style="fill:rgb(61,61,61);stroke:rgb(45,45,45);stroke-width:3.84px;"/>
            </g>
            <g transform="matrix(1.07659,0,0,0.529982,168.599,470.186)">
                <rect x="355.52" y="155.52" width="90.688" height="95.505" style="fill:rgb(61,61,61);stroke:rgb(45,45,45);stroke-width:4.71px;"/>
            </g>
            <g transform="matrix(1.07659,0,0,0.529982,168.599,470.186)">
                <rect x="355.52" y="155.52" width="90.688" height="95.505" style="fill:rgb(61,61,61);stroke:rgb(45,45,45);stroke-width:4.71px;"/>
            </g>
            <g transform="matrix(1.07659,0,0,1.00594,168.436,96.0878)">
                <rect x="355.52" y="155.52" width="90.688" height="95.505" style="fill:rgb(61,61,61);stroke:rgb(45,45,45);stroke-width:3.84px;"/>
            </g>
            <g transform="matrix(1.07659,0,0,0.553316,168.273,110.724)">
                <rect x="355.52" y="155.52" width="90.688" height="95.505" style="fill:rgb(61,61,61);stroke:rgb(45,45,45);stroke-width:4.67px;"/>
            </g>
            <g transform="matrix(1.07659,0,0,0.553316,168.273,110.724)">
                <rect x="355.52" y="155.52" width="90.688" height="95.505" style="fill:rgb(61,61,61);stroke:rgb(45,45,45);stroke-width:4.67px;"/>
            </g>
        </g>
        <g transform="matrix(0.866923,0,0,0.870873,-51.1912,-29.2462)">
            <rect x="99.363" y="299.435" width="75.652" height="78.011" style="fill:none;stroke:rgb(67,67,67);stroke-width:4.6px;"/>
        </g>
        <g transform="matrix(0.866923,0,0,0.870873,901.129,-26.1073)">
            <rect x="99.363" y="299.435" width="75.652" height="78.011" style="fill:none;stroke:rgb(67,67,67);stroke-width:4.6px;"/>
        </g>
        <g transform="matrix(0.866923,0,0,0.870873,-51.1912,38.6918)">
            <rect x="99.363" y="299.435" width="75.652" height="78.011" style="fill:none;stroke:rgb(67,67,67);stroke-width:4.6px;"/>
        </g>
        <g transform="matrix(0.866923,0,0,0.870873,901.129,41.8307)">
            <rect x="99.363" y="299.435" width="75.652" height="78.011" style="fill:none;stroke:rgb(67,67,67);stroke-width:4.6px;"/>
        </g>
        <g transform="matrix(0.866923,0,0,0.870873,-51.1912,106.63)">
            <rect x="99.363" y="299.435" width="75.652" height="78.011" style="fill:none;stroke:rgb(67,67,67);stroke-width:4.6px;"/>
        </g>
        <g transform="matrix(0.866923,0,0,0.870873,901.129,109.769)">
            <rect x="99.363" y="299.435" width="75.652" height="78.011" style="fill:none;stroke:rgb(67,67,67);stroke-width:4.6px;"/>
        </g>
        <g transform="matrix(0.866923,0,0,0.870873,64.6011,-29.2462)">
            <rect x="99.363" y="299.435" width="75.652" height="78.011" style="fill:none;stroke:rgb(67,67,67);stroke-width:4.6px;"/>
        </g>
        <g transform="matrix(0.866923,0,0,0.870873,1016.92,-26.1073)">
            <rect x="99.363" y="299.435" width="75.652" height="78.011" style="fill:none;stroke:rgb(67,67,67);stroke-width:4.6px;"/>
        </g>
        <g transform="matrix(0.866923,0,0,0.870873,64.6011,38.6918)">
            <rect x="99.363" y="299.435" width="75.652" height="78.011" style="fill:none;stroke:rgb(67,67,67);stroke-width:4.6px;"/>
        </g>
        <g transform="matrix(0.866923,0,0,0.870873,1016.92,41.8307)">
            <rect x="99.363" y="299.435" width="75.652" height="78.011" style="fill:none;stroke:rgb(67,67,67);stroke-width:4.6px;"/>
        </g>
        <g transform="matrix(0.866923,0,0,0.870873,64.6011,106.63)">
            <rect x="99.363" y="299.435" width="75.652" height="78.011" style="fill:none;stroke:rgb(67,67,67);stroke-width:4.6px;"/>
        </g>
        <path d="M61.534,250.946C61.533,251.446 61.15,248.994 61.15,249.495L61.15,271.351C61.15,274.192 60.767,276.955 60.767,279.787C60.767,280.949 61.15,283.36 61.15,283.238" style="fill:none;stroke:rgb(67,67,67);stroke-width:4px;"/>
        <path d="M55.027,277.394C54.966,277.844 54.873,277.819 55.782,279.787C55.869,279.976 60.48,290.044 61.533,288.99C64.584,285.939 64.844,280.694 68.052,277.486" style="fill:none;stroke:rgb(67,67,67);stroke-width:4px;"/>
        <path d="M52.893,316.998C52.062,316.924 51.947,314.681 51.947,314.681C51.947,314.681 55.918,321.404 58.082,324.651C61.952,330.455 65.316,336.05 68.436,342.289C70.002,345.422 77.255,356.234 77.255,356.094" style="fill:none;stroke:rgb(67,67,67);stroke-width:4px;"/>
        <path d="M52.178,353.4C53.729,353.492 62.633,333.573 65.751,327.335C67.701,323.435 71.089,320.495 73.037,316.598C73.616,315.439 76.183,311.997 76.105,311.997" style="fill:none;stroke:rgb(67,67,67);stroke-width:4px;"/>
        <path d="M55.743,341.211C55.867,340.98 55.801,341.158 55.398,340.756C52.548,337.905 46.079,351.876 53.481,351.876" style="fill:none;stroke:rgb(67,67,67);stroke-width:4px;"/>
        <path d="M73.44,348.013C71.636,350.567 74.276,338.741 80.322,344.974C82.253,346.964 81.711,350.944 80.322,353.026C79.901,353.659 78.789,355.634 78.789,354.943" style="fill:none;stroke:rgb(67,67,67);stroke-width:4px;"/>
        <path d="M65.607,344.256C66.042,344.108 63.824,344.974 64.218,344.974C65.907,344.974 67.325,342.494 68.436,341.523C69.705,340.412 76.129,335.722 74.954,338.072" style="fill:none;stroke:rgb(67,67,67);stroke-width:4px;"/>
        <path d="M56.602,335.677C56.338,336.141 55.021,334.243 55.398,334.62C57.514,336.736 59.485,339.653 61.533,341.906C62.117,342.548 66.893,347.078 64.218,345.741" style="fill:none;stroke:rgb(67,67,67);stroke-width:4px;"/>
        <path d="M49.887,400.158C54.157,401.131 75.561,399.807 85.307,399.807" style="fill:none;stroke:rgb(67,67,67);stroke-width:4px;"/>
        <path d="M80.35,395.278C80.059,394.506 77.284,394.07 78.022,394.439C80.693,395.774 87.403,397.095 88.758,399.807C90.015,402.321 84.813,403.79 83.774,405.175C83.268,405.849 84.018,406.326 83.007,406.326" style="fill:none;stroke:rgb(67,67,67);stroke-width:4px;"/>
        <g transform="matrix(0.866923,0,0,0.870873,1016.92,109.769)">
            <rect x="99.363" y="299.435" width="75.652" height="78.011" style="fill:none;stroke:rgb(67,67,67);stroke-width:4.6px;"/>
        </g>
        <g transform="matrix(3.72963,0,0,3.72963,-149.371,-524.632)">
            <text x="51.394px" y="196.499px" style="font-family:'ArialMT', 'Arial', sans-serif;font-size:24px;fill:rgb(255,0,7);">1</text>
        </g>
        <g transform="matrix(3.72963,0,0,3.72963,802.949,-521.493)">
            <text x="51.394px" y="196.499px" style="font-family:'ArialMT', 'Arial', sans-serif;font-size:24px;fill:rgb(0,3,255);">1</text>
        </g>
        <g transform="matrix(3.72963,0,0,3.72963,-492.12,-480.792)">
            <text x="175.189px" y="184.745px" style="font-family:'ArialMT', 'Arial', sans-serif;font-size:24px;fill:rgb(255,0,7);">2</text>
        </g>
        <g transform="matrix(3.72963,0,0,3.72963,460.2,-477.653)">
            <text x="175.189px" y="184.745px" style="font-family:'ArialMT', 'Arial', sans-serif;font-size:24px;fill:rgb(0,6,255);">2</text>
        </g>
    </g>
    <g transform="matrix(1,0,0,1,101.48,4.34934)">
        <g transform="matrix(1,0,0,1,16.3547,-231.668)">
            <circle cx="382.449" cy="730.133" r="31.11" style="fill:rgb(255,0,0);stroke:rgb(255,0,0);stroke-width:4px;"/>
        </g>
        <g transform="matrix(1.7798,-0.141221,0,1.7798,-133.386,-371.397)">
            <text x="292.405px" y="520.625px" style="font-family:'ArialMT', 'Arial', sans-serif;font-size:24px;fill:white;">2</text>
        </g>
    </g>
    <g transform="matrix(1,0,0,1,101.54,-6.41332)">
        <g transform="matrix(1,0,0,1,15.7011,-426.772)">
            <circle cx="382.449" cy="730.133" r="31.11" style="fill:rgb(255,0,0);stroke:rgb(255,0,0);stroke-width:4px;"/>
        </g>
        <g transform="matrix(2.45329,0,0,2.45329,-603.206,-409.343)">
            <text x="400.896px" y="299.073px" style="font-family:'ArialMT', 'Arial', sans-serif;font-size:24px;fill:white;">1</text>
        </g>
    </g>
    <g transform="matrix(1,0,0,1,-99.4692,-99.2031)">
        <g transform="matrix(1,0,0,1,249.17,-229.281)">
            <circle cx="551.737" cy="730.133" r="31.11" style="fill:rgb(12,0,255);stroke:rgb(0,2,255);stroke-width:4px;"/>
        </g>
        <g transform="matrix(1.7798,0,0,1.7798,269.286,-411.303)">
            <text x="292.405px" y="520.625px" style="font-family:'ArialMT', 'Arial', sans-serif;font-size:24px;fill:white;">2</text>
        </g>
    </g>
    <g transform="matrix(1,0,0,1,-200.907,102.978)">
        <g transform="matrix(1,0,0,1,249.17,-433.111)">
            <circle cx="551.737" cy="730.133" r="31.11" style="fill:rgb(12,0,255);stroke:rgb(0,2,255);stroke-width:4px;"/>
        </g>
        <g transform="matrix(2.45329,0,0,2.45329,-199.08,-417.394)">
            <text x="400.896px" y="299.073px" style="font-family:'ArialMT', 'Arial', sans-serif;font-size:24px;fill:white;">1</text>
        </g>
    </g>
    <path d="M498.366,300.348C498.234,300.579 496.083,290.698 502.395,295.748C506.265,298.844 503.387,306.648 498.666,302.794C494.692,299.549 503.463,293.793 504.802,297.809C506.364,302.495 500.67,306.407 497.516,302.027C494.118,297.31 504.229,293.516 505.568,297.809C506.854,301.929 501.348,304.071 498.283,302.027C493.412,298.78 505.798,296.582 503.268,301.644C502.258,303.664 498.666,297.767 498.666,300.493" style="fill:none;stroke:rgb(67,67,67);stroke-width:4px;"/>
    <path d="M500.812,303.188C501.71,303.127 500.967,299.594 500.967,300.493C500.967,314.697 501.351,328.87 501.351,343.056C501.351,346.605 501.158,365.871 500.584,365.296" style="fill:none;stroke:rgb(67,67,67);stroke-width:4px;"/>
    <path d="M496.896,362.838C496.212,363.574 493.55,360.629 494.448,361.079C497.582,362.645 499.028,367.394 502.501,369.131C502.814,369.287 503.459,371.432 503.651,371.048C504.237,369.877 506.335,361.63 506.335,363.379" style="fill:none;stroke:rgb(67,67,67);stroke-width:4px;"/>
    <path d="M567.958,365.956C568.2,365.828 567.607,365.162 567.843,365.044C568.857,364.537 570.224,365.709 570.834,366.276C573.84,369.066 575.663,372.684 578.048,375.953C588.1,389.727 601.747,401.052 613.061,413.781C617.33,418.583 622.321,423.147 626.257,428.208C627.808,430.202 628.767,432.674 630.48,434.542C631.089,435.207 631.946,435.657 632.591,436.302C632.798,436.509 633.363,437.168 633.119,437.005C632.912,436.867 632.767,436.653 632.591,436.478" style="fill:none;stroke:rgb(67,67,67);stroke-width:4px;"/>
    <path d="M572.926,434.278C573.082,433.581 575.755,432.042 576.289,431.375C579.801,426.985 583.744,423.024 587.549,418.883C599.543,405.831 609.165,390.844 620.627,377.36C624.025,373.363 627.447,369.396 630.831,365.396C631.462,364.651 633.56,361.877 634.702,361.877" style="fill:none;stroke:rgb(67,67,67);stroke-width:4px;"/>
    <path d="M499.927,400.853C499.94,401.635 493.443,398.44 496.058,396.89C499.608,394.785 502.183,401.517 499.577,402.168C493.91,403.585 494.999,395.423 500.457,397.242C501.572,397.614 501.31,399.848 500.906,400.554C499.533,402.957 496.797,401.056 495.706,399.529C493.98,397.112 497.826,395.194 499.753,395.658C500.905,395.936 502.857,399.507 500.984,399.881C499.688,400.14 498.971,400.037 497.641,400.057C496.736,400.071 495.019,400.329 494.804,399.039C493.854,393.335 504.903,400.198 499.929,401.289C498.862,401.523 498.547,401.465 497.465,401.465" style="fill:none;stroke:rgb(67,67,67);stroke-width:4px;"/>
    <path d="M501.468,399.895C501.738,399.809 500.157,400.109 500.632,400.585C502.232,402.184 505.657,400.355 507.494,400.585C513.138,401.29 518.623,400.585 524.209,400.585C526.527,400.585 528.422,401.335 530.719,400.761C533.012,400.187 538.637,401.235 538.637,398.473" style="fill:none;stroke:rgb(67,67,67);stroke-width:4px;"/>
    <path d="M536.534,395.027C536.514,394.861 535.64,395.471 535.997,396.186C536.294,396.78 536.895,397.169 537.405,397.594C539.197,399.087 543.508,400.277 543.739,402.696C543.864,404.006 534.263,411.971 537.405,405.687" style="fill:none;stroke:rgb(67,67,67);stroke-width:4px;"/>
    <path d="M507.105,338.771C505.801,337.826 509.552,336.65 510.558,335.393C511.541,334.164 512.868,329.923 513.176,331.466C513.88,334.984 513.503,339.279 513.503,342.919" style="fill:none;stroke:rgb(67,67,67);stroke-width:4px;"/>
    <path d="M616.588,361.867C616.378,363.042 616.043,359.12 616.91,358.299C617.866,357.395 619.873,357.259 620.91,358.038C622.497,359.227 622.382,361.517 621.818,363.208C621.253,364.905 617.564,366.48 617.564,366.48C617.564,366.48 623.541,367.048 625.418,365.171" style="fill:none;stroke:rgb(67,67,67);stroke-width:4px;"/>
    <path d="M519.52,409.873C518.284,411.135 521.1,408.189 522.339,409.675C522.951,410.41 523.124,412.588 522.666,413.275C522.167,414.023 520.048,413.929 520.048,413.929C520.048,413.929 523.63,415.864 524.629,417.529C526.455,420.572 522.294,424.048 519.394,423.092" style="fill:none;stroke:rgb(67,67,67);stroke-width:4px;"/>
</svg>
