<?xml version="1.0" encoding="UTF-8" standalone="no"?>
<!DOCTYPE svg PUBLIC "-//W3C//DTD SVG 1.1//EN" "http://www.w3.org/Graphics/SVG/1.1/DTD/svg11.dtd">
<svg width="100%" height="100%" viewBox="0 0 1200 800" version="1.1" xmlns="http://www.w3.org/2000/svg" xmlns:xlink="http://www.w3.org/1999/xlink" xml:space="preserve" xmlns:serif="http://www.serif.com/" style="fill-rule:evenodd;clip-rule:evenodd;stroke-linecap:round;stroke-linejoin:round;stroke-miterlimit:1.5;">
    <g>
        <g>
            <g>
                <g transform="matrix(-0.208723,0,0,0.807194,410.789,36.7695)">
                    <path d="M298.918,701.204L301.859,197.671" style="fill:none;stroke:black;stroke-width:6.78px;"/>
                </g>
                <g transform="matrix(1,0,0,1,49.48,-49.4374)">
                    <path d="M398.267,652.215L401.671,245.766" style="fill:rgb(255,0,0);stroke:black;stroke-width:4px;"/>
                </g>
                <g transform="matrix(2e-06,0,0,0.807194,551.346,37.2166)">
                    <path d="M501.111,701.204L503.067,197.671" style="fill:none;stroke:black;stroke-width:7.01px;"/>
                </g>
                <g transform="matrix(1,0,0,0.807194,49.48,37.2166)">
                    <path d="M600,701.204L600,197.671" style="fill:none;stroke:black;stroke-width:4.4px;"/>
                </g>
                <g transform="matrix(1,0,0,1,49.48,-49.4374)">
                    <path d="M698.077,652.215L699.725,245.766" style="fill:none;stroke:black;stroke-width:4px;"/>
                </g>
                <g transform="matrix(1,0,0,1,49.48,-49.4374)">
                    <path d="M801.303,652.215L804.054,245.766" style="fill:none;stroke:black;stroke-width:4px;"/>
                </g>
                <g transform="matrix(1,0,0,1,49.48,-49.4374)">
                    <path d="M250.543,301.782L854.925,301.327" style="fill:rgb(255,0,0);stroke:black;stroke-width:4px;"/>
                </g>
                <g transform="matrix(1,0,0,1,49.48,-49.4374)">
                    <path d="M255.773,400L854.925,401.993" style="fill:rgb(255,0,0);stroke:black;stroke-width:4px;"/>
                </g>
                <g transform="matrix(1,0,0,1,49.48,-49.4374)">
                    <path d="M250.543,502.894L854.925,501.196" style="fill:rgb(255,0,0);stroke:black;stroke-width:4px;"/>
                </g>
                <g transform="matrix(1,0,0,1,49.48,-49.4374)">
                    <path d="M250.543,603.147L854.925,597.72" style="fill:none;stroke:black;stroke-width:4px;"/>
                </g>
            </g>
            <g transform="matrix(1.07659,0,0,1.00594,168.436,294.951)">
                <rect x="355.52" y="155.52" width="90.688" height="95.505" style="fill:rgb(61,61,61);stroke:rgb(45,45,45);stroke-width:3.84px;"/>
            </g>
            <g transform="matrix(1.07659,0,0,0.529982,168.599,470.186)">
                <rect x="355.52" y="155.52" width="90.688" height="95.505" style="fill:rgb(61,61,61);stroke:rgb(45,45,45);stroke-width:4.71px;"/>
            </g>
            <g transform="matrix(1.07659,0,0,0.529982,168.599,470.186)">
                <rect x="355.52" y="155.52" width="90.688" height="95.505" style="fill:rgb(61,61,61);stroke:rgb(45,45,45);stroke-width:4.71px;"/>
            </g>
            <g transform="matrix(1.07659,0,0,1.00594,168.436,96.0878)">
                <rect x="355.52" y="155.52" width="90.688" height="95.505" style="fill:rgb(61,61,61);stroke:rgb(45,45,45);stroke-width:3.84px;"/>
            </g>
            <g transform="matrix(1.07659,0,0,0.553316,168.273,110.724)">
                <rect x="355.52" y="155.52" width="90.688" height="95.505" style="fill:rgb(61,61,61);stroke:rgb(45,45,45);stroke-width:4.67px;"/>
            </g>
            <g transform="matrix(1.07659,0,0,0.553316,168.273,110.724)">
                <rect x="355.52" y="155.52" width="90.688" height="95.505" style="fill:rgb(61,61,61);stroke:rgb(45,45,45);stroke-width:4.67px;"/>
            </g>
        </g>
        <g transform="matrix(0.866923,0,0,0.870873,-51.1912,-29.2462)">
            <rect x="99.363" y="299.435" width="75.652" height="78.011" style="fill:none;stroke:rgb(67,67,67);stroke-width:4.6px;"/>
        </g>
        <g transform="matrix(0.866923,0,0,0.870873,901.129,-26.1073)">
            <rect x="99.363" y="299.435" width="75.652" height="78.011" style="fill:none;stroke:rgb(67,67,67);stroke-width:4.6px;"/>
        </g>
        <g transform="matrix(0.866923,0,0,0.870873,-51.1912,38.6918)">
            <rect x="99.363" y="299.435" width="75.652" height="78.011" style="fill:none;stroke:rgb(67,67,67);stroke-width:4.6px;"/>
        </g>
        <g transform="matrix(0.866923,0,0,0.870873,901.129,41.8307)">
            <rect x="99.363" y="299.435" width="75.652" height="78.011" style="fill:none;stroke:rgb(67,67,67);stroke-width:4.6px;"/>
        </g>
        <g transform="matrix(0.866923,0,0,0.870873,-51.1912,106.63)">
            <rect x="99.363" y="299.435" width="75.652" height="78.011" style="fill:none;stroke:rgb(67,67,67);stroke-width:4.6px;"/>
        </g>
        <g transform="matrix(0.866923,0,0,0.870873,901.129,109.769)">
            <rect x="99.363" y="299.435" width="75.652" height="78.011" style="fill:none;stroke:rgb(67,67,67);stroke-width:4.6px;"/>
        </g>
        <g transform="matrix(0.866923,0,0,0.870873,64.6011,-29.2462)">
            <rect x="99.363" y="299.435" width="75.652" height="78.011" style="fill:none;stroke:rgb(67,67,67);stroke-width:4.6px;"/>
        </g>
        <g transform="matrix(0.866923,0,0,0.870873,1016.92,-26.1073)">
            <rect x="99.363" y="299.435" width="75.652" height="78.011" style="fill:none;stroke:rgb(67,67,67);stroke-width:4.6px;"/>
        </g>
        <g transform="matrix(0.866923,0,0,0.870873,64.6011,38.6918)">
            <rect x="99.363" y="299.435" width="75.652" height="78.011" style="fill:none;stroke:rgb(67,67,67);stroke-width:4.6px;"/>
        </g>
        <g transform="matrix(0.866923,0,0,0.870873,1016.92,41.8307)">
            <rect x="99.363" y="299.435" width="75.652" height="78.011" style="fill:none;stroke:rgb(67,67,67);stroke-width:4.6px;"/>
        </g>
        <g transform="matrix(0.866923,0,0,0.870873,64.6011,106.63)">
            <rect x="99.363" y="299.435" width="75.652" height="78.011" style="fill:none;stroke:rgb(67,67,67);stroke-width:4.6px;"/>
        </g>
        <g transform="matrix(0.866923,0,0,0.870873,1016.92,109.769)">
            <rect x="99.363" y="299.435" width="75.652" height="78.011" style="fill:none;stroke:rgb(67,67,67);stroke-width:4.6px;"/>
        </g>
        <g transform="matrix(3.72963,0,0,3.72963,-149.371,-524.632)">
            <text x="51.394px" y="196.499px" style="font-family:'ArialMT', 'Arial', sans-serif;font-size:24px;fill:rgb(255,0,7);">1</text>
        </g>
        <g transform="matrix(3.72963,0,0,3.72963,802.949,-521.493)">
            <text x="51.394px" y="196.499px" style="font-family:'ArialMT', 'Arial', sans-serif;font-size:24px;fill:rgb(0,3,255);">1</text>
        </g>
        <g transform="matrix(3.72963,0,0,3.72963,-492.12,-480.792)">
            <text x="175.189px" y="184.745px" style="font-family:'ArialMT', 'Arial', sans-serif;font-size:24px;fill:rgb(255,0,7);">2</text>
        </g>
        <g transform="matrix(3.72963,0,0,3.72963,460.2,-477.653)">
            <text x="175.189px" y="184.745px" style="font-family:'ArialMT', 'Arial', sans-serif;font-size:24px;fill:rgb(0,6,255);">2</text>
        </g>
    </g>
    <g transform="matrix(1,0,0,1,303.134,-99.9548)">
        <g transform="matrix(1,0,0,1,16.3547,-231.668)">
            <circle cx="382.449" cy="730.133" r="31.11" style="fill:rgb(255,0,0);stroke:rgb(255,0,0);stroke-width:4px;"/>
        </g>
        <g transform="matrix(1.7798,-0.141221,0,1.7798,-133.386,-371.397)">
            <text x="292.405px" y="520.625px" style="font-family:'ArialMT', 'Arial', sans-serif;font-size:24px;fill:white;">2</text>
        </g>
    </g>
    <path d="M1118.38,251.197C1117.8,250.478 1118.8,250.811 1119.3,251.43C1121.82,254.537 1124.44,257.568 1126.92,260.709C1132.7,268.032 1139.39,275.07 1144.82,282.582C1145.65,283.733 1151.42,293.875 1152.11,293.186" style="fill:none;stroke:rgb(67,67,67);stroke-width:4px;"/>
    <path d="M1121.72,288.706C1120.96,287.557 1126.1,281.978 1127.58,279.93C1132.58,273.055 1136.2,265.017 1141.5,258.389C1143.68,255.67 1145.87,254.038 1148.46,252.093C1148.85,251.801 1151.47,248.092 1150.12,249.442" style="fill:none;stroke:rgb(67,67,67);stroke-width:4px;"/>
    <path d="M1119.35,287.568C1116.18,286.664 1116.92,278.402 1120.29,277.279C1123.78,276.117 1127.91,281.323 1127.91,280.593" style="fill:none;stroke:rgb(67,67,67);stroke-width:4px;"/>
    <path d="M1148.14,286.21C1147.04,287.922 1146.67,278.292 1152.44,281.587C1156.09,283.672 1158.62,291.529 1152.44,291.529" style="fill:none;stroke:rgb(67,67,67);stroke-width:4px;"/>
    <path d="M1139.62,280.457C1138.16,282.38 1144,277.432 1145.48,275.954" style="fill:none;stroke:rgb(67,67,67);stroke-width:4px;"/>
    <path d="M1127.13,273.743C1127.38,273.515 1131.5,277.412 1134.54,278.936" style="fill:none;stroke:rgb(67,67,67);stroke-width:4px;"/>
    <path d="M657.497,362.836C657.733,362.689 656.47,363.088 658.066,364.816C661.255,368.271 665.122,371.042 668.447,374.367C684.59,390.51 699.836,407.202 717.444,421.703C723.503,426.693 729.374,431.954 734.468,437.897C734.794,438.277 738.785,442.382 737.79,442.88C736.871,443.339 733.638,441.9 733.638,441.219" style="fill:none;stroke:rgb(67,67,67);stroke-width:4px;"/>
    <path d="M666.98,435.345C654.689,439.137 679.904,415.014 680.904,414.229C695.071,403.097 707.453,388.646 720.766,376.443C723.884,373.585 739,361.512 736.544,362.74" style="fill:none;stroke:rgb(67,67,67);stroke-width:4px;"/>
    <g transform="matrix(1,0,0,1,-332.091,201.91)">
        <g transform="matrix(1,0,0,1,15.7011,-426.772)">
            <circle cx="382.449" cy="730.133" r="31.11" style="fill:rgb(255,0,0);stroke:rgb(255,0,0);stroke-width:4px;"/>
        </g>
        <g transform="matrix(2.45329,0,0,2.45329,-603.206,-409.343)">
            <text x="400.896px" y="299.073px" style="font-family:'ArialMT', 'Arial', sans-serif;font-size:24px;fill:white;">1</text>
        </g>
    </g>
    <g transform="matrix(1,0,0,1,-100.266,-198.251)">
        <g transform="matrix(1,0,0,1,249.17,-229.281)">
            <circle cx="551.737" cy="730.133" r="31.11" style="fill:rgb(12,0,255);stroke:rgb(0,2,255);stroke-width:4px;"/>
        </g>
        <g transform="matrix(1.7798,0,0,1.7798,269.286,-411.303)">
            <text x="292.405px" y="520.625px" style="font-family:'ArialMT', 'Arial', sans-serif;font-size:24px;fill:white;">2</text>
        </g>
    </g>
    <g transform="matrix(1,0,0,1,227.1,220.852)">
        <g transform="matrix(1,0,0,1,249.17,-433.111)">
            <circle cx="551.737" cy="730.133" r="31.11" style="fill:rgb(12,0,255);stroke:rgb(0,2,255);stroke-width:4px;"/>
        </g>
        <g transform="matrix(2.45329,0,0,2.45329,-199.08,-417.394)">
            <text x="400.896px" y="299.073px" style="font-family:'ArialMT', 'Arial', sans-serif;font-size:24px;fill:white;">1</text>
        </g>
    </g>
</svg>
