<?xml version="1.0" encoding="UTF-8" standalone="no"?>
<!DOCTYPE svg PUBLIC "-//W3C//DTD SVG 1.1//EN" "http://www.w3.org/Graphics/SVG/1.1/DTD/svg11.dtd">
<svg width="100%" height="100%" viewBox="0 0 1200 800" version="1.1" xmlns="http://www.w3.org/2000/svg" xmlns:xlink="http://www.w3.org/1999/xlink" xml:space="preserve" xmlns:serif="http://www.serif.com/" style="fill-rule:evenodd;clip-rule:evenodd;stroke-linecap:round;stroke-linejoin:round;stroke-miterlimit:1.5;">
    <g>
        <g>
            <g>
                <g transform="matrix(-0.208723,0,0,0.807194,410.789,36.7695)">
                    <path d="M298.918,701.204L301.859,197.671" style="fill:none;stroke:black;stroke-width:6.78px;"/>
                </g>
                <g transform="matrix(1,0,0,1,49.48,-49.4374)">
                    <path d="M398.267,652.215L401.671,245.766" style="fill:rgb(255,0,0);stroke:black;stroke-width:4px;"/>
                </g>
                <g transform="matrix(2e-06,0,0,0.807194,551.346,37.2166)">
                    <path d="M501.111,701.204L503.067,197.671" style="fill:none;stroke:black;stroke-width:7.01px;"/>
                </g>
                <g transform="matrix(1,0,0,0.807194,49.48,37.2166)">
                    <path d="M600,701.204L600,197.671" style="fill:none;stroke:black;stroke-width:4.4px;"/>
                </g>
                <g transform="matrix(1,0,0,1,49.48,-49.4374)">
                    <path d="M698.077,652.215L699.725,245.766" style="fill:none;stroke:black;stroke-width:4px;"/>
                </g>
                <g transform="matrix(1,0,0,1,49.48,-49.4374)">
                    <path d="M801.303,652.215L804.054,245.766" style="fill:none;stroke:black;stroke-width:4px;"/>
                </g>
                <g transform="matrix(1,0,0,1,49.48,-49.4374)">
                    <path d="M250.543,301.782L854.925,301.327" style="fill:rgb(255,0,0);stroke:black;stroke-width:4px;"/>
                </g>
                <g transform="matrix(1,0,0,1,49.48,-49.4374)">
                    <path d="M255.773,400L854.925,401.993" style="fill:rgb(255,0,0);stroke:black;stroke-width:4px;"/>
                </g>
                <g transform="matrix(1,0,0,1,49.48,-49.4374)">
                    <path d="M250.543,502.894L854.925,501.196" style="fill:rgb(255,0,0);stroke:black;stroke-width:4px;"/>
                </g>
                <g transform="matrix(1,0,0,1,49.48,-49.4374)">
                    <path d="M250.543,603.147L854.925,597.72" style="fill:none;stroke:black;stroke-width:4px;"/>
                </g>
            </g>
            <g transform="matrix(1.07659,0,0,1.00594,168.436,294.951)">
                <rect x="355.52" y="155.52" width="90.688" height="95.505" style="fill:rgb(61,61,61);stroke:rgb(45,45,45);stroke-width:3.84px;"/>
            </g>
            <g transform="matrix(1.07659,0,0,0.529982,168.599,470.186)">
                <rect x="355.52" y="155.52" width="90.688" height="95.505" style="fill:rgb(61,61,61);stroke:rgb(45,45,45);stroke-width:4.71px;"/>
            </g>
            <g transform="matrix(1.07659,0,0,0.529982,168.599,470.186)">
                <rect x="355.52" y="155.52" width="90.688" height="95.505" style="fill:rgb(61,61,61);stroke:rgb(45,45,45);stroke-width:4.71px;"/>
            </g>
            <g transform="matrix(1.07659,0,0,1.00594,168.436,96.0878)">
                <rect x="355.52" y="155.52" width="90.688" height="95.505" style="fill:rgb(61,61,61);stroke:rgb(45,45,45);stroke-width:3.84px;"/>
            </g>
            <g transform="matrix(1.07659,0,0,0.553316,168.273,110.724)">
                <rect x="355.52" y="155.52" width="90.688" height="95.505" style="fill:rgb(61,61,61);stroke:rgb(45,45,45);stroke-width:4.67px;"/>
            </g>
            <g transform="matrix(1.07659,0,0,0.553316,168.273,110.724)">
                <rect x="355.52" y="155.52" width="90.688" height="95.505" style="fill:rgb(61,61,61);stroke:rgb(45,45,45);stroke-width:4.67px;"/>
            </g>
        </g>
        <g transform="matrix(0.866923,0,0,0.870873,-51.1912,-29.2462)">
            <rect x="99.363" y="299.435" width="75.652" height="78.011" style="fill:rgb(255,0,0);fill-opacity:0.24;stroke:rgb(67,67,67);stroke-width:4.6px;"/>
        </g>
        <g transform="matrix(0.866923,0,0,0.870873,901.129,-26.1073)">
            <rect x="99.363" y="299.435" width="75.652" height="78.011" style="fill:none;stroke:rgb(67,67,67);stroke-width:4.6px;"/>
        </g>
        <g transform="matrix(0.866923,0,0,0.870873,-51.1912,38.6918)">
            <rect x="99.363" y="299.435" width="75.652" height="78.011" style="fill:none;stroke:rgb(67,67,67);stroke-width:4.6px;"/>
        </g>
        <g transform="matrix(0.866923,0,0,0.870873,901.129,41.8307)">
            <rect x="99.363" y="299.435" width="75.652" height="78.011" style="fill:none;stroke:rgb(67,67,67);stroke-width:4.6px;"/>
        </g>
        <g transform="matrix(0.866923,0,0,0.870873,-51.1912,106.63)">
            <rect x="99.363" y="299.435" width="75.652" height="78.011" style="fill:none;stroke:rgb(67,67,67);stroke-width:4.6px;"/>
        </g>
        <g transform="matrix(0.866923,0,0,0.870873,901.129,109.769)">
            <rect x="99.363" y="299.435" width="75.652" height="78.011" style="fill:none;stroke:rgb(67,67,67);stroke-width:4.6px;"/>
        </g>
        <g transform="matrix(0.866923,0,0,0.870873,64.6011,-29.2462)">
            <rect x="99.363" y="299.435" width="75.652" height="78.011" style="fill:rgb(255,0,0);fill-opacity:0.24;stroke:rgb(67,67,67);stroke-width:4.6px;"/>
        </g>
        <g transform="matrix(0.866923,0,0,0.870873,1016.92,-26.1073)">
            <rect x="99.363" y="299.435" width="75.652" height="78.011" style="fill:none;stroke:rgb(67,67,67);stroke-width:4.6px;"/>
        </g>
        <g transform="matrix(0.866923,0,0,0.870873,64.6011,38.6918)">
            <rect x="99.363" y="299.435" width="75.652" height="78.011" style="fill:none;stroke:rgb(67,67,67);stroke-width:4.6px;"/>
        </g>
        <g transform="matrix(0.866923,0,0,0.870873,1016.92,41.8307)">
            <rect x="99.363" y="299.435" width="75.652" height="78.011" style="fill:none;stroke:rgb(67,67,67);stroke-width:4.6px;"/>
        </g>
        <g transform="matrix(0.866923,0,0,0.870873,64.6011,106.63)">
            <rect x="99.363" y="299.435" width="75.652" height="78.011" style="fill:none;stroke:rgb(67,67,67);stroke-width:4.6px;"/>
        </g>
        <g transform="matrix(0.866923,0,0,0.870873,1016.92,109.769)">
            <rect x="99.363" y="299.435" width="75.652" height="78.011" style="fill:none;stroke:rgb(67,67,67);stroke-width:4.6px;"/>
        </g>
        <g transform="matrix(3.72963,0,0,3.72963,-149.371,-524.632)">
            <text x="51.394px" y="196.499px" style="font-family:'ArialMT', 'Arial', sans-serif;font-size:24px;fill:rgb(255,0,7);">1</text>
        </g>
        <g transform="matrix(3.72963,0,0,3.72963,802.949,-521.493)">
            <text x="51.394px" y="196.499px" style="font-family:'ArialMT', 'Arial', sans-serif;font-size:24px;fill:rgb(0,3,255);">1</text>
        </g>
        <g transform="matrix(3.72963,0,0,3.72963,-492.12,-480.792)">
            <text x="175.189px" y="184.745px" style="font-family:'ArialMT', 'Arial', sans-serif;font-size:24px;fill:rgb(255,0,7);">2</text>
        </g>
        <g transform="matrix(3.72963,0,0,3.72963,460.2,-477.653)">
            <text x="175.189px" y="184.745px" style="font-family:'ArialMT', 'Arial', sans-serif;font-size:24px;fill:rgb(0,6,255);">2</text>
        </g>
    </g>
    <g transform="matrix(1,0,0,1,-0.369983,2.38725)">
        <g transform="matrix(1,0,0,1,16.3547,-231.668)">
            <circle cx="382.449" cy="730.133" r="31.11" style="fill:rgb(255,0,0);stroke:rgb(255,0,0);stroke-width:4px;"/>
        </g>
        <g transform="matrix(1.7798,-0.141221,0,1.7798,-133.386,-371.397)">
            <text x="292.405px" y="520.625px" style="font-family:'ArialMT', 'Arial', sans-serif;font-size:24px;fill:white;">2</text>
        </g>
    </g>
    <g transform="matrix(1,0,0,1,0.283604,-2.98415)">
        <g transform="matrix(1,0,0,1,15.7011,-426.772)">
            <circle cx="382.449" cy="730.133" r="31.11" style="fill:rgb(255,0,0);stroke:rgb(255,0,0);stroke-width:4px;"/>
        </g>
        <g transform="matrix(2.45329,0,0,2.45329,-603.206,-409.343)">
            <text x="400.896px" y="299.073px" style="font-family:'ArialMT', 'Arial', sans-serif;font-size:24px;fill:white;">1</text>
        </g>
    </g>
    <g>
        <g transform="matrix(1,0,0,1,249.17,-229.281)">
            <circle cx="551.737" cy="730.133" r="31.11" style="fill:rgb(12,0,255);stroke:rgb(0,2,255);stroke-width:4px;"/>
        </g>
        <g transform="matrix(1.7798,0,0,1.7798,269.286,-411.303)">
            <text x="292.405px" y="520.625px" style="font-family:'ArialMT', 'Arial', sans-serif;font-size:24px;fill:white;">2</text>
        </g>
    </g>
    <g transform="matrix(1,0,0,1,0,3.35465)">
        <g transform="matrix(1,0,0,1,249.17,-433.111)">
            <circle cx="551.737" cy="730.133" r="31.11" style="fill:rgb(12,0,255);stroke:rgb(0,2,255);stroke-width:4px;"/>
        </g>
        <g transform="matrix(2.45329,0,0,2.45329,-199.08,-417.394)">
            <text x="400.896px" y="299.073px" style="font-family:'ArialMT', 'Arial', sans-serif;font-size:24px;fill:white;">1</text>
        </g>
    </g>
    <path d="M64.027,250.754C64.64,251.203 64.192,247.719 64.192,248.479C64.192,257.942 63.792,267.37 63.792,276.829C63.792,278.293 62.89,283.912 64.192,285.214" style="fill:none;stroke:rgb(67,67,67);stroke-width:4px;"/>
    <path d="M55.666,280.835C56.668,280.739 52.51,278.375 53.411,278.825C58.867,281.554 58.091,290.748 62.994,293.2C63.113,293.259 63.282,293.273 63.393,293.2C67.063,290.753 68.355,282.249 71.778,278.825" style="fill:none;stroke:rgb(67,67,67);stroke-width:4px;"/>
    <path d="M51.425,334.443C51.376,333.901 49.273,334.726 49.817,334.726C53.584,334.726 57.248,334.917 60.997,335.125C67.08,335.463 73.269,335.125 79.365,335.125" style="fill:none;stroke:rgb(67,67,67);stroke-width:4px;"/>
    <path d="M77.739,329.687C77.888,328.89 74.562,329.136 75.372,329.136C77.86,329.136 86.014,331.915 86.951,334.726C87.694,336.954 79.764,340.289 79.764,343.51" style="fill:none;stroke:rgb(67,67,67);stroke-width:4px;"/>
    <path d="M49.677,401.689C51.596,403.3 68.895,401.008 75.771,401.008" style="fill:none;stroke:rgb(67,67,67);stroke-width:4px;"/>
    <path d="M71.33,396.353C71.556,395.719 69.382,395.817 69.382,395.817C69.382,395.817 70.972,396.374 71.778,396.616C74.531,397.441 80.782,398.471 81.76,401.407C82.071,402.339 78.006,404.762 77.368,405.4C76.427,406.341 74.972,409.925 74.972,408.594" style="fill:none;stroke:rgb(67,67,67);stroke-width:4px;"/>
    <path d="M177.549,284.067C179.365,281.789 176.791,270.609 176.791,265.649C176.791,263.919 177.191,249.133 177.191,254.868" style="fill:none;stroke:rgb(67,67,67);stroke-width:4px;"/>
    <path d="M172.563,258.315C168.006,262.393 176.757,249.677 176.791,249.677C177.29,249.677 182.866,261.656 181.183,261.656" style="fill:none;stroke:rgb(67,67,67);stroke-width:4px;"/>
    <path d="M168.498,334.341C166.006,333.942 184.01,333.927 187.572,333.927C188.438,333.927 195.654,334.023 195.159,333.528" style="fill:none;stroke:rgb(67,67,67);stroke-width:4px;"/>
    <path d="M193.213,328.63C192.853,329.381 190.766,329.136 190.766,329.136C190.766,329.136 191.853,329.628 192.364,329.934C195.657,331.91 199.899,331.506 203.144,333.129C204.333,333.723 192.471,342.604 194.36,340.715" style="fill:none;stroke:rgb(67,67,67);stroke-width:4px;"/>
    <path d="M399.927,305.018C399.635,303.471 396.142,307.106 395.269,305.796C393.475,303.105 394.167,297.161 397.498,295.829C406.275,292.318 397.239,312.003 393.731,303.234C390.187,294.374 412.145,301.41 403.981,306.309C399.136,309.215 391.376,304.178 395.269,298.622C397.854,294.931 406.042,300.66 402.443,304.259C400.652,306.05 394.756,304.469 394.756,301.696C394.756,300.085 399.995,297.994 398.856,299.134C397.112,300.878 399.442,314.069 399.368,316.045C399.08,323.822 398.587,323.345 397.831,330.907C397.436,334.857 398.662,376.198 396.294,378.566C395.877,378.982 389.072,369.854 389.119,369.854C391.149,369.854 396.995,384.473 397.319,383.179C398.116,379.99 404.493,369.834 404.493,369.854" style="fill:none;stroke:rgb(67,67,67);stroke-width:4px;"/>
    <path d="M396.658,506.599C397.829,507.262 398.165,503.007 399.368,503.608C404.622,506.235 396.479,514.924 393.142,506.581C391.329,502.049 398.916,495.853 402.443,499.509C406.906,504.134 396.171,508.879 395.269,506.171C393.567,501.065 400.89,497.419 402.956,502.583C407.446,513.808 389.878,503.715 395.269,501.558C396.182,501.193 398.05,500.882 399.189,501.11C407.391,502.75 396.534,508.493 397.831,507.196C399.792,505.235 398.278,488.854 398.343,487.209C399.044,469.688 399.368,451.95 399.368,434.425C399.368,427.605 401.314,419.051 397.319,419.051" style="fill:none;stroke:rgb(67,67,67);stroke-width:4px;"/>
    <path d="M391.162,424.975C391.349,431.445 393.059,415.347 398.856,413.414C401.246,412.617 401.922,418.929 402.443,420.076C403.795,423.051 408.61,425.183 407.568,426.226" style="fill:none;stroke:rgb(67,67,67);stroke-width:4px;"/>
    <path d="M397.893,363.634C396.19,365.601 392.669,362.049 390.144,362.68C382.197,364.667 372.39,372.686 367.595,379.079C362.174,386.308 361.856,393.64 361.958,402.652C362.457,446.538 421.078,441.042 429.604,415.464C433.995,402.292 431.641,392.377 425.504,380.104C421.878,372.851 414.133,368.032 406.543,365.755C354.749,350.217 348.914,430.77 389.119,434.425C408.563,436.193 433.387,422.789 429.604,400.09C428.138,391.291 421.859,366.19 409.105,367.292" style="fill:none;stroke:rgb(67,67,67);stroke-width:4px;"/>
    <path d="M376.015,375.985C375.36,376.041 371.118,374.019 371.695,373.442C372.538,372.599 381.158,380.967 381.945,381.641C392.333,390.546 405.512,397.009 415.255,406.752C417.979,409.476 420.983,411.54 423.967,413.927C425.114,414.845 428.593,415.45 427.554,416.489C425.991,418.052 418.162,409.552 417.305,408.802C406.624,399.457 396.099,389.992 385.019,381.129C380.228,377.296 380.331,377.657 375.282,373.954C373.518,372.661 370.158,367.667 370.158,369.854C370.158,373.207 380.238,378.169 381.945,379.591C392.836,388.668 403.378,399.071 413.717,408.802C413.994,409.062 424.71,419.333 424.479,419.564C421.763,422.28 414.061,412.732 413.205,411.877C404.879,403.551 395.755,396.265 387.069,388.303C382.757,384.35 378.258,380.639 373.745,377.029C372.169,375.768 370.308,374.055 368.62,372.929C367.91,372.455 365.716,371.392 366.571,371.392C369.567,371.392 397.275,398.509 400.906,402.14C404.809,406.043 408.789,410.102 413.205,413.414C414.586,414.45 419.133,419.051 418.842,419.051" style="fill:none;stroke:rgb(67,67,67);stroke-width:4px;"/>
</svg>
